<?xml version="1.0" encoding="UTF-8" ?>
<!DOCTYPE svg PUBLIC "-//W3C//DTD SVG 1.1//EN" "http://www.w3.org/Graphics/SVG/1.1/DTD/svg11.dtd">
<svg width="600pt" height="215pt" viewBox="0 0 600 215" version="1.1" xmlns="http://www.w3.org/2000/svg">
<g id="#000000ff">
<path fill="#000000" opacity="1.00" d=" M 0.00 0.00 L 600.00 0.00 L 600.00 215.00 L 0.00 215.00 L 0.00 0.00 M 344.71 75.92 C 341.10 80.49 338.52 85.72 336.39 91.12 C 332.17 105.51 333.00 122.07 341.22 134.92 C 349.82 150.61 368.43 159.16 385.96 158.58 C 401.06 159.08 415.84 153.25 427.53 143.88 C 427.73 143.17 428.12 141.76 428.31 141.05 C 428.47 127.43 428.31 113.81 428.38 100.19 C 414.01 100.13 399.64 100.16 385.27 100.17 C 385.31 106.53 385.19 112.88 385.39 119.23 C 392.52 119.21 399.66 119.23 406.79 119.21 C 406.79 123.89 406.80 128.58 406.78 133.26 C 399.07 138.37 389.57 139.39 380.57 138.46 C 375.06 136.95 369.65 134.55 365.62 130.40 C 363.41 128.31 362.16 125.44 360.02 123.30 C 358.81 119.21 357.26 115.17 356.91 110.88 C 356.30 107.21 357.28 103.58 357.51 99.93 C 359.25 94.68 361.52 89.46 365.48 85.47 C 370.34 80.13 377.35 77.49 384.36 76.50 C 388.94 76.96 393.62 77.28 397.97 78.89 C 402.85 80.56 407.01 83.70 411.06 86.80 C 415.65 81.24 420.42 75.82 424.84 70.12 C 418.31 64.68 410.78 60.28 402.44 58.37 C 393.81 56.47 384.80 55.96 376.07 57.46 C 363.82 59.53 352.45 66.20 344.71 75.92 M 155.96 58.53 C 158.02 63.96 160.30 69.31 162.43 74.72 C 164.44 79.72 166.48 84.70 168.45 89.71 C 171.21 96.20 173.54 102.87 176.55 109.25 C 182.40 124.92 189.04 140.34 195.16 155.93 C 195.51 158.75 198.64 157.48 200.56 157.79 C 207.74 139.28 215.23 120.87 222.12 102.27 C 225.06 95.28 227.93 88.22 230.44 81.07 C 232.88 75.17 235.37 69.26 237.44 63.22 C 238.23 61.66 238.95 60.07 239.68 58.49 C 237.24 58.41 234.80 58.38 232.36 58.38 C 230.11 63.96 228.13 69.66 225.64 75.14 C 223.54 69.56 221.51 63.96 219.38 58.40 C 211.18 58.38 202.98 58.30 194.79 58.44 C 200.65 73.11 206.56 87.77 212.56 102.38 C 213.06 103.53 213.43 104.71 213.68 105.93 C 211.89 111.86 208.91 117.37 207.31 123.37 C 207.19 123.53 206.94 123.84 206.82 124.00 C 206.51 125.00 206.21 126.02 205.91 127.03 C 203.09 120.33 200.76 113.44 198.16 106.66 L 197.97 106.60 C 195.29 98.59 192.24 90.70 189.20 82.82 C 188.04 78.97 186.29 75.32 185.18 71.45 L 184.93 71.60 C 183.52 67.18 181.87 62.84 180.17 58.53 C 172.10 58.50 164.03 58.50 155.96 58.53 M 248.09 58.60 C 243.41 71.70 237.88 84.48 233.21 97.57 L 232.93 97.38 C 225.46 117.62 217.18 137.55 209.58 157.74 C 211.84 157.75 214.09 157.76 216.35 157.76 C 219.62 150.16 222.08 142.23 225.70 134.80 C 228.73 142.43 231.96 149.98 234.83 157.67 C 241.36 157.85 247.89 157.76 254.43 157.74 C 261.74 139.51 269.27 121.34 276.39 103.03 C 279.15 96.42 282.01 89.83 284.40 83.08 C 287.92 74.97 291.14 66.74 294.42 58.54 C 286.51 58.47 278.60 58.52 270.70 58.51 C 268.90 63.65 266.70 68.65 265.09 73.84 C 262.02 81.76 258.85 89.68 256.30 97.78 L 256.00 97.42 C 252.63 107.47 248.79 117.36 244.97 127.24 C 242.45 120.73 239.98 114.19 237.58 107.63 C 236.65 105.50 237.90 103.33 238.26 101.23 C 244.24 87.12 249.59 72.75 255.19 58.49 C 252.82 58.50 250.45 58.52 248.09 58.60 M 301.80 58.57 C 301.85 91.54 301.87 124.52 301.79 157.49 C 309.12 157.95 316.46 157.64 323.79 157.70 C 323.93 132.14 323.77 106.58 323.92 81.02 C 324.10 73.48 324.25 65.94 323.90 58.40 C 316.53 58.44 309.16 58.18 301.80 58.57 M 446.89 78.76 C 440.25 87.68 437.54 98.91 437.78 109.91 C 437.88 128.66 449.71 146.60 466.86 154.14 C 477.11 159.14 488.84 159.48 499.97 158.27 C 513.87 156.01 527.20 148.00 534.60 135.89 C 538.47 131.10 540.78 125.11 541.71 119.06 C 543.93 111.05 542.26 102.59 542.19 94.46 C 541.95 94.46 541.46 94.47 541.22 94.47 L 541.44 94.16 C 540.81 92.53 540.24 90.90 539.67 89.27 C 535.14 77.55 526.03 67.71 514.70 62.31 C 504.33 57.11 492.41 56.35 481.06 57.70 C 467.48 59.83 454.79 67.46 446.89 78.76 M 70.38 157.75 C 95.58 157.83 120.77 157.82 145.97 157.75 C 146.21 151.13 146.26 144.48 145.91 137.86 C 128.05 137.69 110.19 137.87 92.32 137.77 C 92.20 131.04 92.61 124.29 92.07 117.57 C 106.86 117.47 121.66 117.61 136.46 117.51 C 136.46 110.91 136.51 104.31 136.43 97.71 C 121.69 97.64 106.94 97.83 92.20 97.63 C 92.28 91.08 92.21 84.53 92.26 77.98 C 109.91 77.80 127.57 78.04 145.23 77.85 C 145.23 71.41 145.23 64.97 145.24 58.53 C 120.31 58.41 95.39 58.50 70.46 58.48 C 70.12 91.57 70.36 124.66 70.38 157.75 Z" />
<path fill="#000000" opacity="1.00" d=" M 478.40 79.31 C 484.67 77.25 491.49 76.47 497.94 78.18 C 505.16 79.93 511.36 84.83 515.35 91.03 C 518.21 95.77 519.64 101.19 520.24 106.66 C 520.05 114.35 518.27 122.26 513.23 128.28 C 504.06 140.06 485.48 142.22 473.49 133.59 C 467.11 129.30 463.06 122.26 461.27 114.90 C 459.65 105.96 461.15 96.22 466.69 88.86 C 469.62 84.64 473.97 81.75 478.40 79.31 Z" />
</g>
<g id="#f6a305ff">
<path fill="#f6a305" opacity="1.00" d=" M 344.71 75.92 C 352.45 66.20 363.82 59.53 376.07 57.46 C 384.80 55.96 393.81 56.47 402.44 58.37 C 410.78 60.28 418.31 64.68 424.84 70.12 C 420.42 75.82 415.65 81.24 411.06 86.80 C 407.01 83.70 402.85 80.56 397.97 78.89 C 393.62 77.28 388.94 76.96 384.36 76.50 C 381.52 76.27 378.59 75.92 375.80 76.71 C 371.60 77.83 367.68 80.19 363.23 80.15 C 357.30 80.07 351.34 80.97 345.44 80.02 C 345.20 78.65 344.95 77.29 344.71 75.92 Z" />
</g>
<g id="#f7aa05ff">
<path fill="#f7aa05" opacity="1.00" d=" M 155.96 58.53 C 164.03 58.50 172.10 58.50 180.17 58.53 C 181.87 62.84 183.52 67.18 184.93 71.60 C 183.12 72.68 181.24 73.88 179.05 73.86 C 173.93 74.18 168.77 74.42 163.68 73.74 C 163.37 73.98 162.74 74.48 162.43 74.72 C 160.30 69.31 158.02 63.96 155.96 58.53 Z" />
</g>
<g id="#bb8323ff">
<path fill="#bb8323" opacity="1.00" d=" M 194.79 58.44 C 202.98 58.30 211.18 58.38 219.38 58.40 C 221.51 63.96 223.54 69.56 225.64 75.14 C 228.13 69.66 230.11 63.96 232.36 58.38 C 234.80 58.38 237.24 58.41 239.68 58.49 C 238.95 60.07 238.23 61.66 237.44 63.22 C 237.49 62.27 237.60 60.39 237.66 59.44 C 236.60 59.36 234.48 59.19 233.42 59.11 C 230.88 64.33 229.12 69.87 227.12 75.31 C 226.58 75.48 225.51 75.82 224.97 76.00 C 222.46 70.58 220.90 64.79 218.45 59.34 C 211.25 59.26 204.05 59.23 196.85 59.35 C 198.52 66.46 202.10 72.88 204.64 79.69 C 207.22 86.01 209.66 92.40 212.51 98.61 C 213.96 101.85 215.53 105.56 214.01 109.09 C 212.09 113.97 210.76 119.28 207.31 123.37 C 208.91 117.37 211.89 111.86 213.68 105.93 C 213.43 104.71 213.06 103.53 212.56 102.38 C 206.56 87.77 200.65 73.11 194.79 58.44 Z" />
</g>
<g id="#f1a30cff">
<path fill="#f1a30c" opacity="1.00" d=" M 248.09 58.60 C 250.45 58.52 252.82 58.50 255.19 58.49 C 249.59 72.75 244.24 87.12 238.26 101.23 C 238.49 98.01 238.49 94.79 238.49 91.57 C 237.03 93.80 235.68 96.11 234.49 98.49 C 234.17 98.26 233.53 97.80 233.21 97.57 C 237.88 84.48 243.41 71.70 248.09 58.60 Z" />
</g>
<g id="#c77c1aff">
<path fill="#c77c1a" opacity="1.00" d=" M 301.80 58.57 C 309.16 58.18 316.53 58.44 323.90 58.40 C 324.25 65.94 324.10 73.48 323.92 81.02 C 323.77 106.58 323.93 132.14 323.79 157.70 C 316.46 157.64 309.12 157.95 301.79 157.49 C 301.87 124.52 301.85 91.54 301.80 58.57 M 303.95 59.82 C 302.15 63.59 303.69 68.41 303.26 72.60 C 303.30 83.03 303.28 93.45 303.60 103.87 C 303.36 119.92 303.55 135.98 303.46 152.03 C 303.62 153.44 303.11 155.64 305.07 155.97 C 310.32 156.58 315.70 156.47 320.97 156.09 C 321.30 155.82 321.95 155.29 322.28 155.02 C 322.87 138.25 322.32 121.43 322.46 104.63 C 322.66 93.97 322.76 83.29 322.73 72.62 C 322.70 68.65 323.06 64.66 322.74 60.69 C 322.35 60.37 321.55 59.73 321.16 59.41 C 315.46 59.37 309.50 58.63 303.95 59.82 Z" />
</g>
<g id="#f6a105ff">
<path fill="#f6a105" opacity="1.00" d=" M 446.89 78.76 C 454.79 67.46 467.48 59.83 481.06 57.70 C 492.41 56.35 504.33 57.11 514.70 62.31 C 526.03 67.71 535.14 77.55 539.67 89.27 C 531.87 88.55 524.03 88.81 516.22 88.21 C 516.00 88.92 515.57 90.32 515.35 91.03 C 511.36 84.83 505.16 79.93 497.94 78.18 C 491.49 76.47 484.67 77.25 478.40 79.31 C 473.52 79.17 470.11 82.60 466.31 85.03 C 459.78 86.03 452.85 85.97 446.50 83.92 C 446.60 82.19 446.72 80.47 446.89 78.76 Z" />
</g>
<g id="#b76a17ff">
<path fill="#b76a17" opacity="1.00" d=" M 70.38 157.75 C 70.36 124.66 70.12 91.57 70.46 58.48 C 71.31 72.58 70.47 86.72 71.45 100.81 C 71.33 117.53 71.51 134.25 71.34 150.97 C 71.58 152.80 70.78 155.39 72.89 156.37 C 76.90 156.94 80.96 156.57 84.99 156.62 C 103.01 156.63 121.04 156.57 139.06 156.66 C 140.88 156.47 143.25 156.99 144.35 155.11 C 145.11 149.92 144.56 144.66 144.54 139.44 C 126.92 139.03 109.30 139.51 91.68 139.20 C 91.43 132.02 90.33 124.60 92.07 117.57 C 92.61 124.29 92.20 131.04 92.32 137.77 C 110.19 137.87 128.05 137.69 145.91 137.86 C 146.26 144.48 146.21 151.13 145.97 157.75 C 120.77 157.82 95.58 157.83 70.38 157.75 Z" />
</g>
<g id="#dca030ff">
<path fill="#dca030" opacity="1.00" d=" M 70.46 58.48 C 95.39 58.50 120.31 58.41 145.24 58.53 C 145.23 64.97 145.23 71.41 145.23 77.85 C 127.57 78.04 109.91 77.80 92.26 77.98 C 92.21 84.53 92.28 91.08 92.20 97.63 L 91.07 97.53 C 90.46 92.98 90.40 88.37 90.53 83.78 C 90.76 81.58 90.99 79.37 91.21 77.17 C 98.45 76.25 105.75 76.74 113.02 76.65 C 123.17 76.59 133.33 76.76 143.48 76.60 C 143.62 71.17 143.64 65.73 143.51 60.29 C 119.77 60.08 96.01 60.19 72.26 60.28 C 72.10 69.33 72.31 78.37 72.30 87.42 C 72.57 91.90 72.34 96.40 71.45 100.81 C 70.47 86.72 71.31 72.58 70.46 58.48 Z" />
</g>
<g id="#f6a506ff">
<path fill="#f6a506" opacity="1.00" d=" M 265.09 73.84 C 266.70 68.65 268.90 63.65 270.70 58.51 C 278.60 58.52 286.51 58.47 294.42 58.54 C 291.14 66.74 287.92 74.97 284.40 83.08 C 284.26 82.48 283.97 81.28 283.83 80.68 C 277.72 80.41 271.56 81.10 265.50 80.08 C 265.33 78.00 265.16 75.93 265.09 73.84 Z" />
</g>
<g id="#f7a505ff">
<path fill="#f7a505" opacity="1.00" d=" M 72.26 60.28 C 96.01 60.19 119.77 60.08 143.51 60.29 C 143.64 65.73 143.62 71.17 143.48 76.60 C 133.33 76.76 123.17 76.59 113.02 76.65 C 105.75 76.74 98.45 76.25 91.21 77.17 C 90.99 79.37 90.76 81.58 90.53 83.78 C 90.16 85.32 89.74 86.84 89.32 88.36 C 83.69 88.69 77.23 91.31 72.30 87.42 C 72.31 78.37 72.10 69.33 72.26 60.28 Z" />
</g>
<g id="#f7a605ff">
<path fill="#f7a605" opacity="1.00" d=" M 196.85 59.35 C 204.05 59.23 211.25 59.26 218.45 59.34 C 220.90 64.79 222.46 70.58 224.97 76.00 C 225.51 75.82 226.58 75.48 227.12 75.31 C 229.12 69.87 230.88 64.33 233.42 59.11 C 234.48 59.19 236.60 59.36 237.66 59.44 C 237.60 60.39 237.49 62.27 237.44 63.22 C 235.37 69.26 232.88 75.17 230.44 81.07 C 230.38 79.98 230.32 78.88 230.24 77.79 C 225.16 78.31 220.06 78.50 214.99 79.13 C 212.93 79.55 211.03 78.61 209.07 78.21 C 207.52 78.46 206.09 79.14 204.64 79.69 C 202.10 72.88 198.52 66.46 196.85 59.35 Z" />
</g>
<g id="#f8a904ff">
<path fill="#f8a904" opacity="1.00" d=" M 303.95 59.82 C 309.50 58.63 315.46 59.37 321.16 59.41 C 321.55 59.73 322.35 60.37 322.74 60.69 C 323.06 64.66 322.70 68.65 322.73 72.62 C 316.20 71.17 309.70 74.70 303.26 72.60 C 303.69 68.41 302.15 63.59 303.95 59.82 Z" />
</g>
<g id="#f49907ff">
<path fill="#f49907" opacity="1.00" d=" M 184.93 71.60 L 185.18 71.45 C 186.29 75.32 188.04 78.97 189.20 82.82 C 189.21 85.41 189.04 88.00 188.89 90.59 C 182.44 91.16 175.05 93.01 169.46 88.69 C 169.21 88.95 168.71 89.46 168.45 89.71 C 166.48 84.70 164.44 79.72 162.43 74.72 C 162.74 74.48 163.37 73.98 163.68 73.74 C 168.77 74.42 173.93 74.18 179.05 73.86 C 181.24 73.88 183.12 72.68 184.93 71.60 Z" />
</g>
<g id="#f39307ff">
<path fill="#f39307" opacity="1.00" d=" M 303.26 72.60 C 309.70 74.70 316.20 71.17 322.73 72.62 C 322.76 83.29 322.66 93.97 322.46 104.63 C 316.24 103.44 309.90 103.56 303.60 103.87 C 303.28 93.45 303.30 83.03 303.26 72.60 Z" />
</g>
<g id="#f29107ff">
<path fill="#f29107" opacity="1.00" d=" M 256.30 97.78 C 258.85 89.68 262.02 81.76 265.09 73.84 C 265.16 75.93 265.33 78.00 265.50 80.08 C 271.56 81.10 277.72 80.41 283.83 80.68 C 283.97 81.28 284.26 82.48 284.40 83.08 C 282.01 89.83 279.15 96.42 276.39 103.03 C 275.97 101.90 275.53 100.78 275.08 99.66 C 271.19 99.66 267.32 100.06 263.45 100.29 C 260.88 100.40 257.77 100.25 256.30 97.78 Z" />
</g>
<g id="#f29207ff">
<path fill="#f29207" opacity="1.00" d=" M 336.39 91.12 C 338.52 85.72 341.10 80.49 344.71 75.92 C 344.95 77.29 345.20 78.65 345.44 80.02 C 351.34 80.97 357.30 80.07 363.23 80.15 C 367.68 80.19 371.60 77.83 375.80 76.71 C 378.59 75.92 381.52 76.27 384.36 76.50 C 377.35 77.49 370.34 80.13 365.48 85.47 C 361.52 89.46 359.25 94.68 357.51 99.93 C 357.25 98.66 356.98 97.39 356.70 96.12 C 350.93 95.11 345.07 96.52 339.32 95.64 C 337.06 95.44 337.24 92.67 336.39 91.12 Z" />
</g>
<g id="#f39407ff">
<path fill="#f39407" opacity="1.00" d=" M 214.99 79.13 C 220.06 78.50 225.16 78.31 230.24 77.79 C 230.32 78.88 230.38 79.98 230.44 81.07 C 227.93 88.22 225.06 95.28 222.12 102.27 C 222.03 101.11 221.93 99.94 221.82 98.78 C 218.72 99.27 215.58 99.13 212.51 98.61 C 209.66 92.40 207.22 86.01 204.64 79.69 C 206.09 79.14 207.52 78.46 209.07 78.21 C 211.03 78.61 212.93 79.55 214.99 79.13 Z" />
</g>
<g id="#f18a08ff">
<path fill="#f18a08" opacity="1.00" d=" M 437.78 109.91 C 437.54 98.91 440.25 87.68 446.89 78.76 C 446.72 80.47 446.60 82.19 446.50 83.92 C 452.85 85.97 459.78 86.03 466.31 85.03 C 470.11 82.60 473.52 79.17 478.40 79.31 C 473.97 81.75 469.62 84.64 466.69 88.86 C 461.15 96.22 459.65 105.96 461.27 114.90 C 460.99 115.24 460.42 115.92 460.13 116.26 C 459.54 113.19 459.06 110.10 458.59 107.02 C 451.64 107.52 443.99 105.92 437.78 109.91 Z" />
</g>
<g id="#f18a09ff">
<path fill="#f18a09" opacity="1.00" d=" M 189.20 82.82 C 192.24 90.70 195.29 98.59 197.97 106.60 C 197.54 106.44 196.70 106.14 196.28 105.99 C 194.72 104.50 193.68 102.37 191.75 101.36 C 186.98 100.88 182.17 101.48 177.38 101.18 C 177.07 103.86 176.74 106.55 176.55 109.25 C 173.54 102.87 171.21 96.20 168.45 89.71 C 168.71 89.46 169.21 88.95 169.46 88.69 C 175.05 93.01 182.44 91.16 188.89 90.59 C 189.04 88.00 189.21 85.41 189.20 82.82 Z" />
</g>
<g id="#ef7d05ff">
<path fill="#ef7d05" opacity="1.00" d=" M 89.32 88.36 C 89.74 86.84 90.16 85.32 90.53 83.78 C 90.40 88.37 90.46 92.98 91.07 97.53 L 92.20 97.63 C 106.94 97.83 121.69 97.64 136.43 97.71 C 136.51 104.31 136.46 110.91 136.46 117.51 C 121.66 117.61 106.86 117.47 92.07 117.57 C 90.33 124.60 91.43 132.02 91.68 139.20 C 109.30 139.51 126.92 139.03 144.54 139.44 C 144.56 144.66 145.11 149.92 144.35 155.11 C 143.25 156.99 140.88 156.47 139.06 156.66 C 121.04 156.57 103.01 156.63 84.99 156.62 C 80.96 156.57 76.90 156.94 72.89 156.37 C 70.78 155.39 71.58 152.80 71.34 150.97 C 71.51 134.25 71.33 117.53 71.45 100.81 C 72.34 96.40 72.57 91.90 72.30 87.42 C 77.23 91.31 83.69 88.69 89.32 88.36 Z" />
<path fill="#ef7d05" opacity="1.00" d=" M 212.51 98.61 C 215.58 99.13 218.72 99.27 221.82 98.78 C 221.93 99.94 222.03 101.11 222.12 102.27 C 215.23 120.87 207.74 139.28 200.56 157.79 C 198.64 157.48 195.51 158.75 195.16 155.93 C 189.04 140.34 182.40 124.92 176.55 109.25 C 176.74 106.55 177.07 103.86 177.38 101.18 C 182.17 101.48 186.98 100.88 191.75 101.36 C 193.68 102.37 194.72 104.50 196.28 105.99 C 196.70 106.14 197.54 106.44 197.97 106.60 L 198.16 106.66 C 200.76 113.44 203.09 120.33 205.91 127.03 C 206.21 126.02 206.51 125.00 206.82 124.00 C 206.94 123.84 207.19 123.53 207.31 123.37 C 210.76 119.28 212.09 113.97 214.01 109.09 C 215.53 105.56 213.96 101.85 212.51 98.61 Z" />
</g>
<g id="#f18b08ff">
<path fill="#f18b08" opacity="1.00" d=" M 516.22 88.21 C 524.03 88.81 531.87 88.55 539.67 89.27 C 540.24 90.90 540.81 92.53 541.44 94.16 L 541.22 94.47 C 541.12 94.61 540.93 94.90 540.83 95.04 C 540.94 97.01 541.14 98.98 541.31 100.96 C 534.83 100.68 528.34 100.03 521.87 100.75 C 521.30 102.71 520.71 104.67 520.24 106.66 C 519.64 101.19 518.21 95.77 515.35 91.03 C 515.57 90.32 516.00 88.92 516.22 88.21 Z" />
</g>
<g id="#f08209ff">
<path fill="#f08209" opacity="1.00" d=" M 341.22 134.92 C 333.00 122.07 332.17 105.51 336.39 91.12 C 337.24 92.67 337.06 95.44 339.32 95.64 C 345.07 96.52 350.93 95.11 356.70 96.12 C 356.98 97.39 357.25 98.66 357.51 99.93 C 357.28 103.58 356.30 107.21 356.91 110.88 C 357.26 115.17 358.81 119.21 360.02 123.30 C 355.91 120.70 354.56 115.95 353.04 111.65 C 349.57 116.07 343.98 112.59 339.38 113.32 C 336.54 115.91 337.00 120.38 338.33 123.64 C 339.81 127.26 340.87 131.02 341.22 134.92 Z" />
</g>
<g id="#ef7d02ff">
<path fill="#ef7d02" opacity="1.00" d=" M 234.49 98.49 C 235.68 96.11 237.03 93.80 238.49 91.57 C 238.49 94.79 238.49 98.01 238.26 101.23 C 237.90 103.33 236.65 105.50 237.58 107.63 C 239.98 114.19 242.45 120.73 244.97 127.24 C 248.79 117.36 252.63 107.47 256.00 97.42 L 256.30 97.78 C 257.77 100.25 260.88 100.40 263.45 100.29 C 267.32 100.06 271.19 99.66 275.08 99.66 C 275.53 100.78 275.97 101.90 276.39 103.03 C 269.27 121.34 261.74 139.51 254.43 157.74 C 247.89 157.76 241.36 157.85 234.83 157.67 C 231.96 149.98 228.73 142.43 225.70 134.80 C 222.08 142.23 219.62 150.16 216.35 157.76 C 214.09 157.76 211.84 157.75 209.58 157.74 C 217.18 137.55 225.46 117.62 232.93 97.38 L 233.21 97.57 C 233.53 97.80 234.17 98.26 234.49 98.49 Z" />
</g>
<g id="#ef7d01ff">
<path fill="#ef7d01" opacity="1.00" d=" M 541.22 94.47 C 541.46 94.47 541.95 94.46 542.19 94.46 C 542.26 102.59 543.93 111.05 541.71 119.06 C 538.42 124.23 536.03 129.92 534.60 135.89 C 527.20 148.00 513.87 156.01 499.97 158.27 C 488.84 159.48 477.11 159.14 466.86 154.14 C 449.71 146.60 437.88 128.66 437.78 109.91 C 443.99 105.92 451.64 107.52 458.59 107.02 C 459.06 110.10 459.54 113.19 460.13 116.26 C 460.42 115.92 460.99 115.24 461.27 114.90 C 463.06 122.26 467.11 129.30 473.49 133.59 C 485.48 142.22 504.06 140.06 513.23 128.28 C 518.27 122.26 520.05 114.35 520.24 106.66 C 520.71 104.67 521.30 102.71 521.87 100.75 C 528.34 100.03 534.83 100.68 541.31 100.96 C 541.14 98.98 540.94 97.01 540.83 95.04 C 540.93 94.90 541.12 94.61 541.22 94.47 Z" />
</g>
<g id="#ef7e0aff">
<path fill="#ef7e0a" opacity="1.00" d=" M 385.27 100.17 C 399.64 100.16 414.01 100.13 428.38 100.19 C 428.31 113.81 428.47 127.43 428.31 141.05 C 428.12 141.76 427.73 143.17 427.53 143.88 C 425.26 135.51 428.15 126.62 425.50 118.35 C 423.49 116.79 420.39 118.33 418.00 118.00 C 415.06 118.53 412.73 116.51 410.44 115.04 C 408.17 121.04 409.95 127.52 408.63 133.63 C 406.38 137.12 402.01 138.69 398.05 139.21 C 392.24 139.79 386.22 140.18 380.57 138.46 C 389.57 139.39 399.07 138.37 406.78 133.26 C 406.80 128.58 406.79 123.89 406.79 119.21 C 399.66 119.23 392.52 119.21 385.39 119.23 C 385.19 112.88 385.31 106.53 385.27 100.17 Z" />
</g>
<g id="#ef7d00ff">
<path fill="#ef7d00" opacity="1.00" d=" M 303.60 103.87 C 309.90 103.56 316.24 103.44 322.46 104.63 C 322.32 121.43 322.87 138.25 322.28 155.02 C 321.95 155.29 321.30 155.82 320.97 156.09 C 315.70 156.47 310.32 156.58 305.07 155.97 C 303.11 155.64 303.62 153.44 303.46 152.03 C 303.55 135.98 303.36 119.92 303.60 103.87 Z" />
<path fill="#ef7d00" opacity="1.00" d=" M 353.04 111.65 C 354.56 115.95 355.91 120.70 360.02 123.30 C 362.16 125.44 363.41 128.31 365.62 130.40 C 369.65 134.55 375.06 136.95 380.57 138.46 C 386.22 140.18 392.24 139.79 398.05 139.21 C 402.01 138.69 406.38 137.12 408.63 133.63 C 409.95 127.52 408.17 121.04 410.44 115.04 C 412.73 116.51 415.06 118.53 418.00 118.00 C 420.39 118.33 423.49 116.79 425.50 118.35 C 428.15 126.62 425.26 135.51 427.53 143.88 C 415.84 153.25 401.06 159.08 385.96 158.58 C 368.43 159.16 349.82 150.61 341.22 134.92 C 340.87 131.02 339.81 127.26 338.33 123.64 C 337.00 120.38 336.54 115.91 339.38 113.32 C 343.98 112.59 349.57 116.07 353.04 111.65 Z" />
</g>
<g id="#c06d1bff">
<path fill="#c06d1b" opacity="1.00" d=" M 534.60 135.89 C 536.03 129.92 538.42 124.23 541.71 119.06 C 540.78 125.11 538.47 131.10 534.60 135.89 Z" />
</g>
</svg>
