<?xml version="1.0" encoding="UTF-8" standalone="no"?>
<svg
   width="1400"
   height="351"
   fill="none"
   version="1.1"
   id="svg564"
   sodipodi:docname="SLICE-1-LIVRAISON-DESKTOP.svg"
   inkscape:version="1.1.1 (3bf5ae0d25, 2021-09-20)"
   xmlns:inkscape="http://www.inkscape.org/namespaces/inkscape"
   xmlns:sodipodi="http://sodipodi.sourceforge.net/DTD/sodipodi-0.dtd"
   xmlns="http://www.w3.org/2000/svg"
   xmlns:svg="http://www.w3.org/2000/svg">
  <sodipodi:namedview
     id="namedview566"
     pagecolor="#ffffff"
     bordercolor="#666666"
     borderopacity="1.0"
     inkscape:pageshadow="2"
     inkscape:pageopacity="0.0"
     inkscape:pagecheckerboard="0"
     showgrid="false"
     inkscape:zoom="0.76357143"
     inkscape:cx="700"
     inkscape:cy="176.14593"
     inkscape:window-width="1920"
     inkscape:window-height="1017"
     inkscape:window-x="-8"
     inkscape:window-y="-8"
     inkscape:window-maximized="1"
     inkscape:current-layer="svg564" />
  <path
     fill="#E5E5E5"
     d="M0 0h1400v351H0z"
     id="path2" />
  <path
     fill="#54A3FF"
     d="M0 0h1400v350H0z"
     id="path4" />
  <path
     opacity=".05"
     d="M56.5 137C114.214 137 161 95.139 161 43.5S114.214-50 56.5-50-48-8.139-48 43.5-1.214 137 56.5 137zm236.5 0c18.778 0 34-15.222 34-34s-15.222-34-34-34-34 15.222-34 34 15.222 34 34 34zm559-25c69.588 0 126-47.682 126-106.5S921.588-101 852-101 726-53.318 726 5.5 782.412 112 852 112z"
     fill="#fff"
     stroke="#fff"
     stroke-width="2"
     id="path6" />
  <path
     d="M1276.5-206C1146.44-206 1041-100.339 1041 30s105.44 236 235.5 236S1512 160.339 1512 30s-105.44-236-235.5-236z"
     fill="url(#paint0_linear)"
     id="path8" />
  <path
     d="M760.134 274.715s83.136-63.051 98.224-47.931c10.151 10.168 6.494 25.339 3.004 34.181-1.956 4.97-5.293 9.7-9.77 13.75-6.952 6.298-18.586 14.266-29.895 10.453-8.885-2.988-8.937-11.813-6.757-19.879 2.478-9.234 8.195-18.184 15.948-25.957 12.187-12.204 41.054-27.164 74.592-34.504"
     stroke="url(#paint1_linear)"
     stroke-width="2"
     stroke-miterlimit="10"
     stroke-dasharray="3.07 3.07"
     id="path10" />
  <path
     d="M882.567 202.561c-16.445-15.137-33.41-26.197-53.278-35.352l.385 13.675c-33.717 1.462-63.414 10.964-92.111 29.428 4.539 7.424 9.097 14.829 13.636 22.254 24.831-15.753 50.182-23.87 79.205-25.312l.385 13.675c16.676-9.521 33.025-15.118 51.778-18.368z"
     fill="url(#paint2_linear)"
     id="path12" />
  <path
     d="M993.593 230.133h-12.937v2.701h12.937v-2.701z"
     fill="url(#paint3_linear)"
     id="path14" />
  <path
     d="M980.969 326.257a.921.921 0 11-.922-.922.916.916 0 01.922.922z"
     fill="#fff"
     id="path16" />
  <path
     d="M725.739 347.791c5.541 0 10.033-6.168 10.033-13.777 0-7.608-4.492-13.776-10.033-13.776-5.541 0-10.033 6.168-10.033 13.776 0 7.609 4.492 13.777 10.033 13.777z"
     fill="#3E4039"
     id="path18" />
  <path
     d="M717.558 333.965c0 6.114 2.303 11.063 5.144 11.063s5.144-4.958 5.144-11.063c0-6.114-2.303-11.062-5.144-11.062-2.841-.009-5.144 4.948-5.144 11.062z"
     fill="#D6E3DD"
     id="path20" />
  <path
     d="M643.837 328.508c0 10.2 3.998 18.469 8.916 18.469 4.929 0 8.917-8.269 8.917-18.469 0-10.2-3.998-18.47-8.917-18.47-4.918 0-8.916 8.27-8.916 18.47z"
     fill="#3E4039"
     id="path22" />
  <path
     d="M645.512 328.9c0 6.819 1.578 12.355 3.508 12.355 1.94 0 3.508-5.536 3.508-12.355 0-6.82-1.568-12.356-3.508-12.356s-3.508 5.536-3.508 12.356z"
     fill="#D6E3DD"
     id="path24" />
  <path
     d="M768.361 350.083c7.89 0 14.286-8.773 14.286-19.596s-6.396-19.596-14.286-19.596c-7.889 0-14.285 8.773-14.285 19.596s6.396 19.596 14.285 19.596z"
     fill="#3E4039"
     id="path26" />
  <path
     d="M757.916 328.968c0 9.171 3.841 16.608 8.593 16.608 4.743 0 8.593-7.437 8.593-16.608s-3.841-16.608-8.593-16.608c-4.752.01-8.593 7.437-8.593 16.608z"
     fill="#D6E3DD"
     id="path28" />
  <path
     d="M678.718 350.034c7.186 0 13.012-8.773 13.012-19.596s-5.826-19.596-13.012-19.596c-7.186 0-13.012 8.773-13.012 19.596s5.826 19.596 13.012 19.596z"
     fill="#3E4039"
     id="path30" />
  <path
     d="M667.695 330.34c0 7.691 2.822 13.933 6.31 13.933 3.488 0 6.31-6.242 6.31-13.933 0-7.692-2.822-13.933-6.31-13.933-3.488 0-6.31 6.241-6.31 13.933z"
     fill="#D6E3DD"
     id="path32" />
  <path
     d="M643.884 328.845s-1.057-20.558 1.781-18.471c0 0 3.523 3.348 3.327 12.718 0 0-.196 11.228 4.404 12.122l12.879 1.312s-2.232-8.327 2.016-17.865c0 0 .332-16.435 5.02-9.777.294.417.333.665.822 1.868 1.429 3.557 4.189 11.853 3.797 21.938l.029.09c.049.209.196.765.441 1.461l.01.029c.391 1.143 1.066 2.633 2.006 3.587 0 0 6.801.249 16.969.507 23.301.606 64.335 1.312 81.902-.666a50.806 50.806 0 004.345-.636s1.448-2.345 2.075-4.858c.225-.865.342-1.749.274-2.554 0 0-.059-18.084-4.561-25.436 0 0-1.908-9.956-9.395-13.712 0 0-2.202-2.127-5.47-5.177-8.025-7.502-22.43-20.608-26.042-21.462 0 0-28.771-8.545-62.436-2.981 0 0-10.961 1.729-18.927 10.334 0 0-1.82 2.424-3.572 5.991-1.292 2.643-2.534 5.932-2.955 9.32 0 0-.02.03-.069.07-.538.586-4.227 4.68-4.893 6.22-.763 1.778-2.613 10.85-3.464 14.765 0 .01-4.727 15.202-.313 21.263z"
     fill="url(#paint4_linear)"
     id="path34" />
  <path
     d="M770.564 285.094l.011.066c.087.163.392.838.425 2.252.011.457-1.743.588-1.743.588l-2.692-2.405-4.565-4.277c0-.011 5.121-1.926 8.564 3.776z"
     fill="#183964"
     id="path36" />
  <path
     d="M672.935 275.225s.614-6.712-1.943-7.171c0 0-2.009-.234-2.315.272-2.4 4.034-5.403 10.709-6.677 19.003 0 0 5.542 2.959 7.727 1.002 2.186-1.947 3.208-13.106 3.208-13.106z"
     fill="url(#paint5_linear)"
     id="path38" />
  <path
     d="M667.333 268.021s-9.721 4.527-12.333 14.756c0 0 4.789 1.533 5.301 1.166.512-.367 4.06-10.955 7.402-14.995 0-.009.871-1.111-.37-.927z"
     fill="url(#paint6_linear)"
     id="path40" />
  <path
     d="M756.549 287c1.294.029 1.951-1.544 1-2.428-5.255-4.922-13.97-14.543-18.372-16.174-1.824-.35-18.128-3.398-34.872-3.398-9.422 0-17.245.942-23.314 2.806-.588.184-.98.718-.99 1.33-.059 5.194 2.392 14.174 2.99 16.65.147.631.726 1.058 1.383 1.058 4.088-.019 17.735-.068 32.587-.068 20.578 0 32.559.097 39.588.224z"
     fill="url(#paint7_linear)"
     id="path42" />
  <path
     d="M768.259 296.269c2.04-2.336 4.14-6.269 4.14-6.269 2.81.888 4.789 2.432 6.199 4.187 3.61 4.503 3.4 10.413 3.4 10.413-.54.698-2.67.846-2.67.846C776.658 304.177 764 307 764 307s.44-7.189 4.259-10.731zM684.713 290s-3.921.823-4.606 3.553c-.127.472-.146 1.014-.029 1.606 0 0 1.956 12.849 8.801 9.837 0 0 14.667.201 21.121 1.004 0 0-1.789-6.173-8.986-9.907 0 0-8.918-4.417-16.301-6.093z"
     fill="#D6E3DD"
     id="path44" />
  <path
     d="M719.747 325a.739.739 0 01-.747-.736v-8.528c0-.41.334-.736.747-.736h38.506c.413 0 .747.335.747.736v8.528c0 .41-.334.736-.747.736h-38.506z"
     fill="#fff"
     id="path46" />
  <path
     d="M752.723 319.876l-.901 2.9h.744l.559-1.95.529 1.95h.725l-.852-2.89.852-2.714h-.745l-.509 1.705-.49-1.705h-.735l.823 2.704zm-3.439 0l-.901 2.9h.744l.559-1.95.529 1.95h.735l-.863-2.89.853-2.714h-.735l-.519 1.705-.49-1.705h-.735l.823 2.704zm-7.035 0l-.911 2.9h.754l.549-1.95.529 1.95h.735l-.853-2.89.843-2.714h-.735l-.519 1.705-.48-1.705h-.745l.833 2.704zm-3.439 0l-.901 2.9h.744l.549-1.95.539 1.95h.725l-.853-2.89.853-2.714h-.745l-.519 1.705-.48-1.705h-.735l.823 2.704zm-3.439 0l-.902 2.9h.745l.559-1.95.529 1.95h.725l-.853-2.89.853-2.714h-.745l-.509 1.705-.49-1.705h-.735l.823 2.704zm-7.045 0l-.901 2.9h.744l.559-1.95.529 1.95h.735l-.863-2.89.853-2.714h-.735l-.519 1.705-.48-1.705h-.745l.823 2.704zm-4.341 2.901h.745l.559-1.95.538 1.95h.725l-.862-2.891.853-2.714h-.735l-.519 1.705-.481-1.705h-.744l.833 2.704-.912 2.901zm23.085-3.136v.666h-1.862v-.666h1.862zm-13.982 0v.666h-1.862v-.666h1.862z"
     fill="#979797"
     id="path48" />
  <path
     d="M756.692 325.441h2.439a.777.777 0 00.774-.784v-9.093a.777.777 0 00-.774-.783h-2.439v10.66zm-38.223-9.876v9.092c0 .431.343.784.774.784h2.44v-10.67h-2.44a.793.793 0 00-.774.794z"
     fill="#183964"
     id="path50" />
  <path
     d="M745 279c-2.557-.694-4.934-1.621-7.281-2.61-2.326-1.014-4.603-2.081-6.719-3.39 2.557.694 4.934 1.621 7.281 2.61 2.316 1.014 4.603 2.081 6.719 3.39zm-15 1c-2.375-.809-4.582-1.892-6.761-3.045-2.16-1.183-4.283-2.428-6.239-3.955 2.375.809 4.582 1.892 6.761 3.045 2.151 1.173 4.274 2.428 6.239 3.955zm12 1c-3.881-1.328-7.6-2.907-11.279-4.562-3.658-1.675-7.276-3.426-10.721-5.438 3.881 1.319 7.6 2.907 11.279 4.562 3.648 1.684 7.265 3.426 10.721 5.438z"
     fill="#CAC9C9"
     id="path52" />
  <path
     d="M672 287.418l-.834 2.317s-13.608 1.516-17.154-2.703c0 0-.924-9.588 13.776-6.373 1.62.358.07 6.44.07 6.44s2.682.773 4.142.319z"
     fill="#183964"
     id="path54" />
  <path
     d="M950.233 159.001h-17.614v16.237h17.614v-16.237z"
     fill="#FEEBD7"
     id="path56" />
  <path
     d="M847.249 326.09a34.41 34.41 0 0111.18.857c2.29-11.195 11.7-20.044 23.682-21.083.28-.028.589-.042.87-.056 2.683-17.571 17.867-31.027 36.182-31.027 14.018 0 26.196 7.879 32.348 19.453h.014a45.92 45.92 0 0113.413-1.994c25.269 0 45.762 20.492 45.762 45.775 0 3.427-.38 6.756-1.1 9.972H818.272c4.509-11.868 15.479-20.717 28.977-21.897z"
     fill="#009045"
     id="path58" />
  <path
     d="M977.144 332.073a24.76 24.76 0 018.119.618c1.671-8.132 8.512-14.565 17.207-15.324l.63-.042c1.95-12.767 12.98-22.543 26.29-22.543 10.19 0 19.04 5.73 23.5 14.144h.02a33.249 33.249 0 019.75-1.447c18.35 0 33.24 14.889 33.24 33.26 0 2.487-.27 4.917-.79 7.248H956.09c3.287-8.624 11.251-15.057 21.054-15.914z"
     fill="#7CB928"
     id="path60" />
  <path
     d="M1023.68 321.216a50.882 50.882 0 00-2.83-6.264c.2-1.306.33-2.641.33-4.003 0-3.217-.58-6.279-1.62-9.13-2.1-5.759-6.15-10.548-11.33-13.638-6.88-14.552-21.689-24.651-38.881-24.651-17.656 0-32.797 10.633-39.427 25.83-.112.267-.196.548-.309.801a44.82 44.82 0 00-14.565-1.11c-.885.071-1.784.197-2.655.309-22.403 3.301-38.893 22.867-38.275 45.509 0 .421.043.8.071 1.208-1.7-.773-3.554-1.236-5.548-1.236-.169 0-.338 0-.506.028-7.037.267-12.641 6.011-12.641 13.118h170.216c.62-3.132.95-6.404.95-9.747a48.96 48.96 0 00-2.98-17.024z"
     fill="#7CB928"
     id="path62" />
  <path
     d="M1040.59 220.676h-2.96v-3.863H908.573v3.863h-2.964v7.767h2.964v119.544h129.057V228.443h2.96v-7.767z"
     fill="#FEEBD7"
     id="path64" />
  <path
     d="M1045.14 222.796H901.044l1.419-4.213 6.377-18.99 8.188-24.342h112.142l2.77 8.203 11.8 35.129 1.4 4.213z"
     fill="url(#paint8_linear)"
     id="path66" />
  <path
     d="M951.735 293.827v51.421h-27.164v-51.421h27.164zm2.739-2.739h-32.642v56.899h32.642v-56.899z"
     fill="#fff"
     id="path68" />
  <path
     d="M951.736 293.826h-27.165v51.422h27.165v-51.422z"
     fill="url(#paint9_linear)"
     id="path70" />
  <path
     d="M1034.55 301.397h-73.334l2.95-8.778h67.404l1.67 4.916 1.31 3.862z"
     fill="url(#paint10_linear)"
     id="path72" />
  <path
     d="M1020.98 247.166h-53.19v33.794h53.19v-33.794z"
     fill="#63849C"
     id="path74" />
  <path
     d="M1020.98 247.167v33.794h-53.19v-33.794h53.19zm2.74-2.739h-58.669V283.7h58.669v-39.272z"
     fill="#fff"
     id="path76" />
  <path
     d="M995.853 247.166h-2.739v33.794h2.739v-33.794z"
     fill="#fff"
     id="path78" />
  <path
     d="M1020.12 308.476h-43.341v27.53h43.341v-27.53z"
     fill="#63849C"
     id="path80" />
  <path
     d="M1020.12 308.477v27.529h-43.341v-27.529h43.341zm2.74-2.725h-48.82v33.007h48.82v-33.007z"
     fill="#fff"
     id="path82" />
  <path
     d="M951.09 247.166h-25.887v33.794h25.887v-33.794z"
     fill="#63849C"
     id="path84" />
  <path
     d="M951.089 247.167v33.794h-25.886v-33.794h25.886zm2.739-2.739h-31.364V283.7h31.364v-39.272zm10.345-40.34a4.998 4.998 0 01-5.002 5.003 5 5 0 01-5.003-5.003 4.998 4.998 0 015.003-5.002 5.005 5.005 0 015.002 5.002z"
     fill="#fff"
     id="path86" />
  <path
     d="M959.394 201.111c-.07 0-.141-.024-.212-.024a3 3 0 00-3.001 3.002 2.998 2.998 0 003.001 3.001 2.999 2.999 0 003.002-3.001c0-.2-.024-.389-.059-.577-1.624-.07-2.401-1.106-2.731-2.401z"
     fill="#183964"
     id="path88" />
  <path
     d="M993.529 204.088a5 5 0 01-5.003 5.003 4.998 4.998 0 01-5.002-5.003 4.998 4.998 0 015.002-5.002 5.013 5.013 0 015.003 5.002z"
     fill="#fff"
     id="path90" />
  <path
     d="M988.738 201.111c-.07 0-.141-.024-.212-.024a3 3 0 00-3.001 3.002 2.998 2.998 0 003.001 3.001 2.999 2.999 0 003.002-3.001c0-.2-.024-.389-.059-.577-1.624-.07-2.401-1.106-2.731-2.401z"
     fill="#183964"
     id="path92" />
  <path
     d="M973.707 209.868c2.59 0 4.144-2.072 4.661-3.625.518-1.554-.517-1.554-.517-1.554h-8.287s-1.036 0-.518 1.554c.518 1.553 2.072 3.625 4.661 3.625z"
     fill="#fff"
     id="path94" />
  <path
     d="M1041.25 107.161c0-15.418-16.2-25.186-32.71-17.455-3.73 1.748-6.83 4.696-8.689 8.323-4.162 8.049-2.327 17.239 1.449 24.868l12.86 32.584c1.85 4.696 8.51 4.667 10.31-.043l12.6-32.743c4.37-9.985 4.18-15.534 4.18-15.534zm-15.52 13.41c-11.1 6.459-22.35-5.477-16.27-17.253a9.336 9.336 0 013.53-3.743c11.09-6.459 22.35 5.477 16.27 17.253a9.227 9.227 0 01-3.53 3.743z"
     fill="url(#paint11_linear)"
     id="path96" />
  <path
     d="M101.678 349.585l-8.142-85.859h56.011v85.859h-47.869z"
     fill="url(#paint12_linear)"
     stroke="#968F8F"
     id="path98" />
  <path
     d="M208.377 202.36l-60.231 1.902v55.793h60.231V202.36z"
     fill="url(#paint13_linear)"
     id="path100" />
  <path
     d="M456.909 189.046v-37.724l-129.338 9.51-127.766 23.459-3.475 16.801 260.579-12.046z"
     fill="url(#paint14_linear)"
     id="path102" />
  <path
     d="M93.487 259.555v-37.709l51.622-3.732v41.441H93.487z"
     fill="url(#paint15_linear)"
     stroke="#968F8F"
     id="path104" />
  <path
     d="M210.913 203.331l247.264-9.847v155.942l-247.264.659V203.331z"
     fill="#C4C4C4"
     id="path106" />
  <path
     d="M458.177 193.484l106.514 15.85-5.39 140.75-101.124-.658V193.484z"
     fill="#CCC"
     id="path108" />
  <path
     d="M214.083 221.803l240.29-3.91v4.755l-240.29 2.536v-3.381zm0 7.608l240.29-3.91v4.756l-240.29 2.536v-3.382zm0-23.669l240.29-6.129v6.974l-240.29 2.536v-3.381zm0 7.818l240.29-3.91v4.755l-240.29 2.537v-3.382zm0 23.459l240.29-3.91v4.755l-240.29 2.536v-3.381zm0 7.609l240.29-3.91v4.755l-240.29 2.536v-3.381zm0 7.607l240.29-3.91v4.755l-240.29 2.536v-3.381zm0 7.608l240.29-3.909v4.755l-240.29 2.536v-3.382zm0 7.609l240.29-3.91v4.755l-240.29 2.536v-3.381zm0 7.608l240.29-3.91v4.755l-240.29 2.536v-3.381zm0 7.608l240.29-3.91v4.755l-240.29 2.536v-3.381zm0 8.876l240.29-3.909v4.755l-240.29 2.536v-3.382zm0 7.608l240.29-3.91v4.756l-240.29 2.536v-3.382zm0 7.609l240.29-3.91v4.755l-240.29 2.536v-3.381zm0 7.607l240.29-3.91v4.756l-240.29 2.536v-3.382zm0 7.608l240.29-3.909v4.755l-240.29 2.536v-3.382zm0 7.609l240.29-3.91v4.755l-240.29 2.536v-3.381zm0 7.608l240.29-3.91v4.755l-240.29 2.536v-3.381zm0 7.608l240.29-3.91v4.755l-240.29 2.536v-3.381z"
     fill="#9C9A9A"
     id="path110" />
  <path
     d="M461.345 193.973l3.489.534-1.206 153.041h-2.283V193.973zm5.074.778l3.488.534-1.206 152.897h-2.282V194.751zm5.072.635l3.489.531-1.207 152.265h-2.282V195.386zm5.072.635l3.17.529-1.096 151.633h-2.074V196.021zm4.438.633l3.17.527-1.096 151.002h-2.074V196.654zm4.438.634l3.17.524-1.096 150.37h-2.074V197.288zm4.438.634l2.536.522-.877 149.738h-1.659v-150.26zm3.804.634l2.536.52-.876 149.107h-1.66V198.556zm3.804.634l2.537.52-.877 149.106h-1.66V199.19zm3.804.634l2.536.518-.876 148.474h-1.66V199.824zm3.805.634l2.536.515-.877 147.843h-1.659V200.458zm3.803.634l1.902.352-.657 147.372h-1.245V201.092zm3.171.634l1.902.351-.658 146.739h-1.244v-147.09zm6.34 1.268l1.902.348-.658 145.474h-1.244V202.994zm-3.171-.634l1.902.35-.657 146.107h-1.245V202.36zm6.341 1.268l1.902.346-.658 144.842h-1.244V203.628zm3.17 0l1.902.348-.658 145.474h-1.244V203.628zm6.34 1.268l1.902.345-.658 144.209h-1.244V204.896zm3.17.634l1.268.241-.604 143.68h-.664V205.53zm2.536 0l1.268.241-.605 143.68h-.663V205.53zm2.536.634l1.268.24-.604 143.046h-.664V206.164zm2.536 0l1.268.24-.604 143.046h-.664V206.164zm2.536.634l1.268.239-.604 142.413h-.664V206.798zm2.536.634l1.268.238-.604 141.78h-.664V207.432zm2.536 0l1.268.238-.604 141.78h-.664V207.432zm2.536.634l1.268.238-.604 141.781h-.664V208.066zm2.536 0l1.268.238-.604 141.781h-.664V208.066zm2.536.634l1.902.634-1.54 140.75h-.362V208.7zm-29.164-4.438l1.902.347-.658 144.841h-1.244V204.262z"
     fill="#B7B7B7"
     id="path112" />
  <path
     d="M248.453 264.299v85.286h-28.164v-88.96l28.164 3.674z"
     fill="#E6E6E6"
     stroke="#968F8F"
     id="path114" />
  <path
     d="M517.457 200.775l-59.914-49.135v37.114l59.914 12.021z"
     fill="url(#paint16_linear)"
     id="path116" />
  <path
     fill="#C4C4C4"
     stroke="#968F8F"
     d="M146.11 262.726v-44.649h2.17v44.649zm62.133-1.903v-59.231h2.17v59.231h-2.17z"
     id="path118" />
  <path
     fill="#C4C4C4"
     stroke="#968F8F"
     d="M93.487 260.556h116.926v2.17H93.487zm97.003-56.812v-2.173l266.553-12.001v4.384l-266.553 9.79zm267.553-9.838v-4.265l85.85 14.821 1.637 1.636-87.487-12.192z"
     id="path120" />
  <path
     d="M142.305 349.585v-85.901l76.984-3.108v89.009h-76.984z"
     fill="#EDEDED"
     stroke="#968F8F"
     id="path122" />
  <path
     d="M265.53 180.507l-.012.003-28.173 7.941-.008.002-.008.002-22.28 7.083-.004.001-23.894 7.408h0l-.011.004-25.839 8.687-.005.002-78.068 27.142-4.42-15.151 144.077-50.065L269.49 161l.01-.003 28.393-7.741.011-.003 57.103-12.947 101.563-16.849-.13 28.124-37.281 2.698-.013.001-.013.002-41.803 5.247-.001.001-32.086 3.954-.013.002-.013.002-25.537 4.56-.006.001-22.088 4.227-.016.003-.015.004-32.025 8.224z"
     fill="#C4C4C4"
     stroke="#968F8F"
     id="path124" />
  <path
     d="M457.409 151.723v-27.79l88.644 81.826-29.335-4.191-59.309-49.845z"
     fill="#DBDBDB"
     stroke="#968F8F"
     id="path126" />
  <path
     stroke="#000"
     d="M179.078 282.246v65.303m38.822-66.706l-74.179 1.902"
     id="path128" />
  <path
     d="M183.15 315.848c0 .44-.12.816-.287 1.068-.17.254-.35.334-.481.334s-.311-.08-.48-.334c-.168-.252-.288-.628-.288-1.068 0-.44.12-.816.288-1.068.169-.254.349-.334.48-.334s.311.08.481.334c.167.252.287.628.287 1.068z"
     fill="#C4C4C4"
     stroke="#000"
     id="path130" />
  <path
     d="M148.44 269.515l2.666-.046c1.214-.022 2.098.137 2.651.475.557.334.842.878.855 1.632.009.511-.105.933-.342 1.266a1.426 1.426 0 01-.944.608l.001.059c.545.111.939.331 1.183.659.248.328.377.767.387 1.317.013.782-.259 1.396-.818 1.843-.555.447-1.316.679-2.285.696l-3.204.056-.15-8.565zm1.875 3.361l1.055-.019c.492-.008.846-.091 1.062-.247.22-.156.327-.41.321-.762-.006-.328-.131-.56-.376-.696-.24-.141-.621-.206-1.14-.197l-.955.017.033 1.904zm.025 1.441l.039 2.232 1.184-.021c.5-.009.867-.111 1.102-.306.235-.196.349-.491.342-.885-.012-.711-.526-1.058-1.542-1.04l-1.125.02zm5.95-4.617c-.01-.581.309-.878.957-.889.649-.012.978.274.988.856.005.277-.073.495-.235.654-.157.155-.398.236-.722.241-.648.012-.978-.276-.988-.862zm2.007 8.211l-1.787.031-.114-6.55 1.787-.031.114 6.55zm4.499-5.482c-.379.007-.674.133-.884.379-.211.242-.328.584-.352 1.026l2.508-.044c-.016-.441-.137-.779-.364-1.013-.227-.239-.529-.354-.908-.348zm.348 5.514c-1.055.019-1.884-.258-2.487-.829-.604-.572-.916-1.391-.934-2.457-.019-1.098.239-1.95.776-2.557.54-.611 1.294-.925 2.263-.942.926-.016 1.651.235 2.175.753.525.518.796 1.242.812 2.172l.015.867-4.224.074c.028.507.186.901.472 1.181s.683.416 1.191.407a4.933 4.933 0 001.117-.142c.35-.089.715-.226 1.094-.412l.024 1.382a4.105 4.105 0 01-.995.364 6.13 6.13 0 01-1.299.139zm10.168-.294l-1.787.031-.066-3.826c-.009-.472-.099-.824-.271-1.056-.172-.235-.441-.349-.809-.343-.5.009-.858.183-1.075.523-.216.336-.318.89-.305 1.664l.054 3.081-1.787.031-.114-6.55 1.365-.023.255.833.099-.002c.194-.319.463-.562.808-.729.349-.17.746-.259 1.191-.266.762-.014 1.343.183 1.745.59.402.403.609.994.623 1.771l.074 4.271zm3.398-.06l-2.61-6.506 1.869-.032 1.331 3.709c.148.47.244.916.287 1.337h.035c.013-.376.093-.824.24-1.346l1.194-3.754 1.869-.033-2.381 6.593-1.834.032zm7.891-5.54c-.379.006-.674.132-.884.378-.211.242-.328.584-.351 1.026l2.507-.044c-.015-.441-.137-.779-.363-1.013-.227-.238-.53-.354-.909-.347zm.348 5.514c-1.054.018-1.883-.258-2.487-.83-.604-.572-.915-1.39-.934-2.457-.019-1.097.24-1.949.776-2.557.54-.611 1.295-.925 2.263-.942.926-.016 1.651.235 2.176.754.524.518.795 1.242.811 2.171l.015.867-4.224.074c.029.507.186.901.472 1.182.286.28.683.415 1.191.407a4.925 4.925 0 001.117-.143c.35-.088.715-.225 1.094-.412l.025 1.383c-.31.161-.642.283-.996.363a6.19 6.19 0 01-1.299.14zm10.169-.295l-1.787.031-.067-3.825c-.008-.473-.098-.825-.27-1.056-.173-.236-.442-.35-.809-.344-.5.009-.859.183-1.075.523-.217.336-.319.891-.305 1.664l.053 3.081-1.786.032-.115-6.55 1.365-.024.255.834.1-.002a1.87 1.87 0 01.807-.729c.349-.17.746-.259 1.191-.267.762-.013 1.344.184 1.745.591.402.403.609.993.623 1.77l.075 4.271zm6.479-.113l-.255-.834-.093.002a1.913 1.913 0 01-.802.723c-.349.17-.748.259-1.197.267-.77.014-1.353-.181-1.751-.585-.398-.407-.603-.997-.617-1.77l-.074-4.271 1.787-.031.066 3.825c.009.473.099.827.271 1.062.172.232.441.344.809.338.499-.009.858-.181 1.075-.517.216-.34.318-.897.305-1.67l-.054-3.081 1.787-.032.114 6.55-1.371.024zm5.864-5.505c-.379.006-.674.132-.884.378-.211.242-.328.584-.352 1.026l2.508-.044c-.016-.441-.137-.779-.364-1.013-.226-.238-.529-.354-.908-.347zm.348 5.514c-1.054.018-1.884-.258-2.487-.83-.604-.572-.915-1.39-.934-2.457-.019-1.097.239-1.949.776-2.557.54-.611 1.294-.925 2.263-.942.926-.016 1.651.235 2.176.754.524.518.795 1.242.811 2.171l.015.867-4.224.074c.029.507.186.901.472 1.181.286.281.683.416 1.191.407a4.878 4.878 0 001.117-.142c.35-.088.715-.225 1.094-.412l.024 1.383a4.103 4.103 0 01-.995.363 6.19 6.19 0 01-1.299.14z"
     fill="#000"
     id="path132" />
  <path
     fill="#D9D7D7"
     d="M235.823 206.674l196.476-5.145.73 27.887-196.476 5.144z"
     id="path134" />
  <g
     filter="url(#filter0_d)"
     id="g138">
    <path
       d="M255.635 211.042l.419 16.015-3.475.091-8.177-11.684.312 11.89-3.475.091-.419-16.015 4.544-.119 7.06 9.937-.264-10.115 3.474-.091h.001zm16.209 9.076l.024.932c-.031.266-.025.488-.02.71a3.64 3.64 0 00-.021.622l-10.654.279c.167.529.559.918 1.139 1.169s1.424.362 2.531.333l.726-.019c.303-.052.609-.06.953-.069.304-.052.648-.061 1.03-.071.342-.054.686-.063 1.029-.072a532.9 532.9 0 012.517-.199l.064 2.44-2.166.456c-.609.105-1.294.212-2.017.319-.723.108-1.41.126-2.06.143-1.335.035-2.482.021-3.404-.133-.92-.109-1.691-.399-2.275-.784a3.455 3.455 0 01-1.268-1.742c-.287-.748-.427-1.72-.458-2.918-.031-1.198.057-2.177.305-2.938.209-.76.613-1.392 1.175-1.806.561-.459 1.317-.79 2.23-.946a23.825 23.825 0 013.393-.312 19.557 19.557 0 012.945.146c.844.11 1.615.357 2.235.696.621.383 1.13.858 1.49 1.47.322.613.533 1.363.557 2.294zm-3.633-.127l-.013-.488a1.769 1.769 0 00-.163-.395c-.08-.132-.236-.261-.506-.342a3.947 3.947 0 00-1.037-.195 18.57 18.57 0 00-1.797-.042c-1.183.031-2.058.187-2.624.468-.566.282-.898.734-.997 1.358l7.141-.187-.004-.177zm11.027 6.725c-.954.025-1.758.002-2.487-.157a3.746 3.746 0 01-1.817-.796c-.509-.43-.867-.998-1.154-1.745-.249-.749-.389-1.721-.421-2.919l-.146-5.589 3.475-.091.146 5.589c.012.444.097.796.182 1.105.083.264.242.482.4.656.209.183.461.313.735.379.269.038.613.073.995.063l.65-.017c.228-.006.419-.055.647-.061.19-.049.458-.056.685-.106.267-.007.572-.06.953-.114l-.2-7.63 3.475-.091.277 10.602c-.494.101-.95.202-1.443.303-.457.101-.951.203-1.446.261-.532.102-1.065.16-1.636.264-.572.06-1.183.076-1.87.094zm14.907-10.023l.081 3.105-3.474.091.163 6.255-3.513.092-.209-7.985c-.036-1.376.009-2.575.173-3.601.126-1.024.449-1.876 1.002-2.601.517-.679 1.268-1.232 2.289-1.613.984-.337 2.316-.549 3.996-.593l.955-.025.084 3.194-.994.026c-.801.021-1.486.128-1.978.318a3.248 3.248 0 00-1.202.786 3.346 3.346 0 00-.619 1.17 8.287 8.287 0 00-.191 1.471l3.436-.09h.001zm11.7 9.06l-5.733-11.747.311 11.889-3.475.091-.419-16.015 4.773-.125 5.328 10.87 4.79-11.134 4.735-.124.419 16.014-3.475.091-.311-11.889-5.111 12.031-1.832.048zm19.253-11.824c1.375-.036 2.485.023 3.404.133.92.108 1.692.399 2.277.828.583.384 1.019.994 1.268 1.742.287.748.427 1.72.458 2.918.032 1.198-.057 2.177-.305 2.938a3.457 3.457 0 01-1.175 1.807c-.563.414-1.318.744-2.231.901-.911.202-2.017.275-3.393.311-1.336.035-2.482.021-3.404-.133-.92-.108-1.653-.4-2.236-.785a3.443 3.443 0 01-1.268-1.742c-.287-.747-.428-1.72-.459-2.918-.032-1.198.058-2.176.305-2.938.209-.76.613-1.392 1.175-1.806.562-.459 1.279-.788 2.192-.945a23.824 23.824 0 013.392-.312v.001zm.212 8.074a17.737 17.737 0 001.754-.135c.457-.056.837-.155 1.099-.34.264-.139.41-.41.517-.679.107-.313.134-.714.122-1.202-.014-.532-.063-.931-.186-1.238-.122-.307-.281-.525-.552-.652-.271-.17-.656-.248-1.116-.325-.459-.032-1.032-.017-1.758.002-.687.018-1.298.034-1.755.09-.456.101-.797.198-1.06.382a1.153 1.153 0 00-.555.681 4.896 4.896 0 00.064 2.44c.121.263.319.524.59.65.272.171.618.251 1.077.283.459.032 1.071.061 1.759.043zm12.122-8.397l-3.487 1.112.27 10.292 3.513-.092-.296-11.312zm-.245-3.501c.006.222-.026.489-.134.714-.071.224-.18.404-.29.585a1.605 1.605 0 01-.525.413 1.007 1.007 0 01-.606.194 1 1 0 01-.615-.162 1.58 1.58 0 01-.545-.385 2.586 2.586 0 01-.321-.569 1.584 1.584 0 01-.171-.706 1.463 1.463 0 01.134-.713c.071-.225.179-.449.289-.63.149-.137.337-.275.524-.413.189-.094.378-.143.608-.149.229-.006.421.033.614.117.194.128.389.256.545.385.119.175.239.393.322.613.12.22.164.44.171.706zm10.401 3.235c1.375-.036 2.485.023 3.405.133.958.107 1.691.399 2.275.828.584.384 1.02.994 1.269 1.742.287.748.427 1.72.458 2.918l.144 5.502-3.704.097-.144-5.502c-.014-.532-.062-.931-.184-1.238a.975.975 0 00-.553-.652c-.272-.17-.656-.248-1.116-.325-.46-.032-1.032-.017-1.758.002l-.878.023a8.393 8.393 0 01-1.068.072 9.409 9.409 0 01-1.143.119c-.381.054-.763.064-1.105.117l.198 7.586-3.474.091-.291-11.09 2.521-.066.435.565a8.186 8.186 0 012.008-.63 16.603 16.603 0 012.705-.292zm21.443 7.562c.017.666-.084 1.201-.301 1.651-.216.493-.627.86-1.193 1.14-.565.282-1.285.523-2.237.637-.913.156-2.059.186-3.434.222-.534.014-1.07-.016-1.644-.046-.536-.074-1.034-.105-1.533-.181-.497-.031-.92-.109-1.341-.143-.384-.078-.691-.115-.921-.153l-.068-2.574c.765.026 1.492.05 2.179.032.612.029 1.224.057 1.836.041.484.021.968.023 1.452.007.764-.02 1.375.008 1.833-.004.458-.056.839-.066 1.067-.117.176-.031.343-.095.492-.19.074-.091.147-.226.145-.315-.003-.133-.006-.222-.085-.308a1.611 1.611 0 00-.347-.124 8.498 8.498 0 00-.729-.114c-.306.008-.688-.027-1.186-.058a36.779 36.779 0 01-3.64-.393c-.959-.152-1.691-.4-2.195-.652-.543-.297-.896-.643-1.098-1.082-.203-.439-.293-.969-.308-1.545-.016-.622.084-1.157.302-1.607.254-.494.627-.86 1.192-1.14.565-.326 1.323-.568 2.237-.681.913-.157 2.057-.231 3.47-.268l1.837.085c.55.065 1.1.14 1.648.223.575.074 1.112.149 1.612.269l.07 2.661a23.646 23.646 0 00-1.187-.102c-.46-.032-.918-.02-1.416-.052-.497-.031-.955-.019-1.414-.051-.459.012-.842-.022-1.147-.014l-1.833.048a5.876 5.876 0 00-1.067.116c-.266.051-.417.1-.529.192a.43.43 0 00-.107.313c.002.089.043.177.083.265.078.042.155.084.347.123.154.041.385.079.69.071.407.044.816.078 1.225.101 1.493.094 2.718.196 3.679.393.921.153 1.653.4 2.196.696.503.254.894.599 1.059 1.038.202.439.293.969.309 1.59zm1.287-4.828c-.036-1.375.047-2.576.211-3.601.164-1.026.524-1.879 1.079-2.604.517-.679 1.304-1.232 2.327-1.57 1.022-.381 2.392-.595 4.034-.638.763-.02 1.527-.04 2.255.03.765.024 1.454.095 2.066.123.652.072 1.227.146 1.725.222.499.075.884.154 1.19.19l.086 3.283c-.153-.04-.421-.033-.844-.111-.421-.033-.958-.108-1.608-.136-.65-.027-1.378-.097-2.219-.119-.803-.024-1.681-.001-2.597.023-.955.025-1.716.134-2.283.371-.529.236-.941.557-1.198.964-.256.45-.396.943-.457 1.521a15.13 15.13 0 00-.063 1.955c.018.709.074 1.375.165 1.949.092.575.257 1.058.535 1.451.278.392.706.692 1.247.9.579.251 1.345.319 2.3.294a54.583 54.583 0 002.823-.162c.877-.068 1.677-.178 2.325-.238.799-.11 1.522-.218 2.168-.368l.086 3.283c-.265.096-.646.149-1.14.251-.568.116-1.139.22-1.712.312-.646.105-1.371.169-2.094.232-.762.109-1.525.129-2.328.15-1.641.043-3.019-.054-4.06-.382-1.04-.328-1.854-.795-2.407-1.491-.591-.65-.996-1.528-1.214-2.543a19.557 19.557 0 01-.398-3.541zm20.433-3.243a11.54 11.54 0 011.291-.345c.379-.098.836-.154 1.33-.256.534-.059 1.029-.116 1.601-.131a23.984 23.984 0 013.404.133c.92.108 1.692.399 2.238.829.584.384 1.02.994 1.269 1.742.287.748.427 1.721.458 2.918l.144 5.502-3.665.096-.144-5.502c-.014-.532-.063-.931-.186-1.238a1.152 1.152 0 00-.589-.65c-.273-.171-.619-.25-1.079-.327-.459-.032-1.071-.016-1.758.002l-.878.023c-.342.053-.686.062-1.068.072-.38.054-.761.109-1.143.119-.419.055-.801.065-1.143.118l.198 7.586-3.474.091-.42-16.014 3.475-.091.139 5.323zm27.334 3.457l.024.932c.007.266-.025.489-.019.711.006.221-.027.444-.022.622l-10.653.279c.167.528.559.918 1.139 1.168.58.252 1.423.363 2.53.334l.726-.019c.304-.053.609-.061.953-.07.305-.052.648-.061 1.03-.071a8.391 8.391 0 011.03-.071c.8-.066 1.639-.132 2.516-.199l.064 2.44c-.722.151-1.405.302-2.128.455-.684.111-1.369.218-2.054.32-.724.108-1.411.126-2.06.143-1.336.035-2.483.02-3.404-.133-.92-.109-1.692-.4-2.275-.784a3.463 3.463 0 01-1.269-1.743c-.287-.747-.426-1.72-.458-2.918-.031-1.197.058-2.176.305-2.938.21-.76.613-1.392 1.176-1.805.561-.46 1.317-.79 2.229-.947a23.988 23.988 0 013.392-.311c1.07-.028 2.065.035 2.947.145.882.109 1.614.357 2.234.696.622.383 1.13.859 1.49 1.47.36.612.533 1.363.557 2.294zm-3.633-.127l-.013-.487c-.004-.134-.083-.265-.163-.396s-.236-.26-.468-.342a4.77 4.77 0 00-1.074-.195 17.678 17.678 0 00-1.798-.041c-1.183.031-2.058.187-2.624.468-.565.281-.897.733-.996 1.358l7.14-.187-.004-.178zm5.208-3.954c.53-.147 1.101-.251 1.747-.4.608-.105 1.257-.167 1.903-.273.648-.061 1.334-.123 2.02-.185.686-.063 1.336-.08 2.023-.098l.077 2.928c-.726.019-1.335.124-1.868.182-.494.102-.95.203-1.292.256a15.2 15.2 0 00-1.063.294l.204 7.763-3.475.091-.276-10.558z"
       fill="#E06329"
       id="path136" />
  </g>
  <path
     d="M599.998 279.12a50.403 50.403 0 00-24.132 15.144 50.152 50.152 0 00-12.022 25.774l-.351 2.331c-.051.341-.016.689.102 1.013a2.076 2.076 0 001.484 1.303c.337.076.688.067 1.021-.027l2.276-.639a50.415 50.415 0 0024.131-15.144 50.146 50.146 0 0012.023-25.774l.824-5.486-5.356 1.505z"
     fill="url(#paint17_linear)"
     id="path140" />
  <path
     d="M569.52 322.139a50.408 50.408 0 00-10.723-26.394 50.153 50.153 0 00-23.295-16.316l-2.235-.751a2.058 2.058 0 00-1.942.347 2.066 2.066 0 00-.765 1.824l.234 2.352a50.416 50.416 0 0010.724 26.395 50.153 50.153 0 0023.295 16.315l5.259 1.764-.552-5.536z"
     fill="url(#paint18_linear)"
     id="path142" />
  <path
     d="M556.33 311.917h-12.585c-7.374-7.985-11.925-18.219-12.94-29.102l-.245-2.239a2.79 2.79 0 01.259-1.437l25.511 32.778z"
     fill="url(#paint19_linear)"
     id="path144" />
  <path
     d="M576.439 312.214c3.922-13.697-1.623-32.473-12.323-41.719l-7.306-6.313a1.999 1.999 0 00-.887-.442 1.966 1.966 0 00-.987.042 2.006 2.006 0 00-.848.516 2.04 2.04 0 00-.501.865l-2.678 9.353c-3.922 13.698 1.623 32.474 12.323 41.72l9.665 8.351 3.542-12.373z"
     fill="url(#paint20_linear)"
     id="path146" />
  <path
     d="M584.803 297.653l-1.36-9.854c6.106-7.237 14.462-12.675 23.76-15.464l1.909-.603a2.652 2.652 0 011.27-.06l-25.579 25.981z"
     fill="url(#paint21_linear)"
     id="path148" />
  <path
     d="M561.325 350.692h16.771c2.779 0-.197-2.436-.654-3.48.07-1.599-1.847-2.784-1.847-5.045v-17.052c0-2.261-.04-4.429-.11-6.028-.071-1.599-.167-2.497-.266-2.497l-9.175 3.479c-.1.007-1.322.142-1.392 1.74-.07 1.599-.727 1.05-.727 3.306l-.933 17.052c-1.111 2.957-1.737 3.446-1.667 5.045.071 1.599-1.945 3.48 0 3.48z"
     fill="url(#paint22_linear)"
     id="path150" />
  <path
     d="M574.869 279.119a50.4 50.4 0 00-24.131 15.144 50.146 50.146 0 00-12.023 25.774l-.351 2.331a2.05 2.05 0 00.103 1.012 2.075 2.075 0 002.504 1.277l2.276-.639a50.423 50.423 0 0024.132-15.144 50.156 50.156 0 0012.022-25.774l.824-5.486-5.356 1.505z"
     fill="url(#paint23_linear)"
     id="path152" />
  <path
     d="M544.392 322.139a50.4 50.4 0 00-10.724-26.395 50.146 50.146 0 00-23.295-16.315l-2.235-.751a2.048 2.048 0 00-1.941.346 2.08 2.08 0 00-.766 1.824l.235 2.352a50.414 50.414 0 0010.723 26.395 50.158 50.158 0 0023.295 16.315l5.259 1.765-.551-5.536z"
     fill="url(#paint24_linear)"
     id="path154" />
  <path
     d="M531.202 311.916h-12.585c-7.374-7.984-11.925-18.219-12.94-29.102l-.246-2.238a2.794 2.794 0 01.26-1.438l25.511 32.778z"
     fill="url(#paint25_linear)"
     id="path156" />
  <path
     d="M551.31 312.213c3.923-13.697-1.622-32.473-12.323-41.72l-7.305-6.313a1.997 1.997 0 00-.888-.442 1.996 1.996 0 00-1.835.559 2.038 2.038 0 00-.501.865l-2.678 9.353c-3.922 13.697 1.623 32.473 12.324 41.72l9.664 8.351 3.542-12.373z"
     fill="url(#paint26_linear)"
     id="path158" />
  <path
     d="M559.674 297.651l-1.359-9.853c6.106-7.237 14.462-12.676 23.76-15.465l1.909-.602a2.627 2.627 0 011.27-.06l-25.58 25.98z"
     fill="url(#paint27_linear)"
     id="path160" />
  <path
     d="M536.197 350.691h16.77c2.779 0-.197-2.436-.654-3.48.071-1.599-1.846-2.784-1.846-5.045v-17.052c0-2.261-.04-4.429-.111-6.028-.07-1.599-.166-2.497-.266-2.497l-9.174 3.479c-.1.007-1.322.142-1.392 1.74-.071 1.599-.728 1.05-.728 3.306l-.932 17.052c-1.112 2.957-1.738 3.446-1.667 5.045.07 1.599-1.945 3.48 0 3.48z"
     fill="url(#paint28_linear)"
     id="path162" />
  <path
     d="M539.448 278.424a50.4 50.4 0 00-24.131 15.144 50.154 50.154 0 00-12.023 25.774l-.351 2.331a2.055 2.055 0 00.678 1.853 2.072 2.072 0 001.929.436l2.276-.639a50.418 50.418 0 0024.132-15.144 50.152 50.152 0 0012.022-25.774l.825-5.486-5.357 1.505z"
     fill="url(#paint29_linear)"
     id="path164" />
  <path
     d="M508.971 321.444a50.4 50.4 0 00-10.724-26.395 50.153 50.153 0 00-23.295-16.315l-2.235-.751a2.053 2.053 0 00-1.941.346 2.08 2.08 0 00-.766 1.824l.235 2.352a50.408 50.408 0 0010.723 26.395 50.158 50.158 0 0023.295 16.315l5.259 1.765-.551-5.536z"
     fill="url(#paint30_linear)"
     id="path166" />
  <path
     d="M495.781 311.221h-12.585c-7.374-7.984-11.925-18.219-12.94-29.102l-.246-2.238a2.788 2.788 0 01.26-1.437l25.511 32.777z"
     fill="url(#paint31_linear)"
     id="path168" />
  <path
     d="M515.889 311.518c3.923-13.697-1.622-32.473-12.323-41.719l-7.305-6.314a1.978 1.978 0 00-1.875-.399 1.996 1.996 0 00-.848.516 2.044 2.044 0 00-.501.865l-2.678 9.353c-3.922 13.698 1.623 32.473 12.324 41.72l9.664 8.351 3.542-12.373z"
     fill="url(#paint32_linear)"
     id="path170" />
  <path
     d="M524.253 296.956l-1.359-9.853c6.106-7.237 14.462-12.675 23.76-15.464l1.909-.603a2.627 2.627 0 011.27-.06l-25.58 25.98z"
     fill="url(#paint33_linear)"
     id="path172" />
  <path
     d="M500.776 349.996h16.77c2.779 0-.197-2.436-.654-3.479.071-1.599-1.846-2.785-1.846-5.046v-17.052c0-2.261-.04-4.429-.111-6.028-.07-1.599-.166-2.497-.266-2.497l-9.174 3.48c-.1.006-1.322.141-1.392 1.74-.071 1.598-.728 1.049-.728 3.305l-.932 17.052c-1.112 2.958-1.738 3.447-1.667 5.046.07 1.598-1.945 3.479 0 3.479z"
     fill="url(#paint34_linear)"
     id="path174" />
  <defs
     id="defs562">
    <linearGradient
       id="paint0_linear"
       x1="1084.31"
       y1="222.597"
       x2="1470.46"
       y2="-162.733"
       gradientUnits="userSpaceOnUse">
      <stop
         stop-color="#FFDC2E"
         id="stop176" />
      <stop
         offset=".09"
         stop-color="#FFE359"
         id="stop178" />
      <stop
         offset=".199"
         stop-color="#FFEA84"
         id="stop180" />
      <stop
         offset=".312"
         stop-color="#FFF1AA"
         id="stop182" />
      <stop
         offset=".43"
         stop-color="#FFF6C9"
         id="stop184" />
      <stop
         offset=".552"
         stop-color="#FFFAE1"
         id="stop186" />
      <stop
         offset=".682"
         stop-color="#FFFDF2"
         id="stop188" />
      <stop
         offset=".824"
         stop-color="#FFFEFC"
         id="stop190" />
      <stop
         offset="1"
         stop-color="#fff"
         id="stop192" />
    </linearGradient>
    <linearGradient
       id="paint1_linear"
       x1="806.308"
       y1="262.031"
       x2="907.859"
       y2="216.818"
       gradientUnits="userSpaceOnUse">
      <stop
         stop-color="#F39121"
         id="stop195" />
      <stop
         offset=".272"
         stop-color="#F39121"
         id="stop197" />
      <stop
         offset=".964"
         stop-color="#F8AE3C"
         id="stop199" />
      <stop
         offset="1"
         stop-color="#F8AE3C"
         id="stop201" />
    </linearGradient>
    <linearGradient
       id="paint2_linear"
       x1="739.232"
       y1="198.209"
       x2="880.356"
       y2="218.072"
       gradientUnits="userSpaceOnUse">
      <stop
         stop-color="#46AE4D"
         id="stop204" />
      <stop
         offset=".262"
         stop-color="#46AE4D"
         id="stop206" />
      <stop
         offset=".761"
         stop-color="#009045"
         id="stop208" />
      <stop
         offset="1"
         stop-color="#009045"
         id="stop210" />
    </linearGradient>
    <linearGradient
       id="paint3_linear"
       x1="981.989"
       y1="218.112"
       x2="996.715"
       y2="256.476"
       gradientUnits="userSpaceOnUse">
      <stop
         stop-color="#EB5B2D"
         id="stop213" />
      <stop
         offset="1"
         stop-color="#BF292E"
         id="stop215" />
    </linearGradient>
    <linearGradient
       id="paint4_linear"
       x1="785.989"
       y1="299.008"
       x2="642"
       y2="299.008"
       gradientUnits="userSpaceOnUse">
      <stop
         stop-color="#0A72B9"
         id="stop218" />
      <stop
         offset=".279"
         stop-color="#0A72B9"
         id="stop220" />
      <stop
         offset=".773"
         stop-color="#0C4D86"
         id="stop222" />
      <stop
         offset="1"
         stop-color="#0C4D86"
         id="stop224" />
    </linearGradient>
    <linearGradient
       id="paint5_linear"
       x1="672.995"
       y1="278.496"
       x2="662.003"
       y2="278.496"
       gradientUnits="userSpaceOnUse">
      <stop
         offset=".279"
         stop-color="#fff"
         id="stop227" />
      <stop
         offset="1"
         stop-color="#9FD8F0"
         id="stop229" />
    </linearGradient>
    <linearGradient
       id="paint6_linear"
       x1="667.997"
       y1="275.999"
       x2="654.999"
       y2="275.999"
       gradientUnits="userSpaceOnUse">
      <stop
         offset=".279"
         stop-color="#fff"
         id="stop232" />
      <stop
         offset="1"
         stop-color="#9FD8F0"
         id="stop234" />
    </linearGradient>
    <linearGradient
       id="paint7_linear"
       x1="747.045"
       y1="273.644"
       x2="652.579"
       y2="285.013"
       gradientUnits="userSpaceOnUse">
      <stop
         offset=".279"
         stop-color="#fff"
         id="stop237" />
      <stop
         offset="1"
         stop-color="#9FD8F0"
         id="stop239" />
    </linearGradient>
    <linearGradient
       id="paint8_linear"
       x1="939.923"
       y1="133.409"
       x2="965.041"
       y2="198.846"
       gradientUnits="userSpaceOnUse">
      <stop
         stop-color="#EB5B2D"
         id="stop242" />
      <stop
         offset="1"
         stop-color="#BF292E"
         id="stop244" />
    </linearGradient>
    <linearGradient
       id="paint9_linear"
       x1="934.685"
       y1="306.79"
       x2="948.565"
       y2="357.851"
       gradientUnits="userSpaceOnUse">
      <stop
         stop-color="#F39121"
         id="stop247" />
      <stop
         offset=".272"
         stop-color="#F39121"
         id="stop249" />
      <stop
         offset=".964"
         stop-color="#F8AE3C"
         id="stop251" />
      <stop
         offset="1"
         stop-color="#F8AE3C"
         id="stop253" />
    </linearGradient>
    <linearGradient
       id="paint10_linear"
       x1="993.435"
       y1="287.567"
       x2="1005.33"
       y2="324.582"
       gradientUnits="userSpaceOnUse">
      <stop
         stop-color="#EB5B2D"
         id="stop256" />
      <stop
         offset="1"
         stop-color="#BF292E"
         id="stop258" />
    </linearGradient>
    <linearGradient
       id="paint11_linear"
       x1="997.473"
       y1="122.989"
       x2="1041.25"
       y2="122.989"
       gradientUnits="userSpaceOnUse">
      <stop
         stop-color="#EB5B2D"
         id="stop261" />
      <stop
         offset="1"
         stop-color="#BF292E"
         id="stop263" />
    </linearGradient>
    <linearGradient
       id="paint12_linear"
       x1="123.102"
       y1="263.226"
       x2="123.102"
       y2="353.211"
       gradientUnits="userSpaceOnUse">
      <stop
         stop-color="#B3FFFF"
         id="stop266" />
      <stop
         offset=".069"
         stop-color="#BDFFFF"
         id="stop268" />
      <stop
         offset=".306"
         stop-color="#DAFFFF"
         id="stop270" />
      <stop
         offset=".543"
         stop-color="#EFF"
         id="stop272" />
      <stop
         offset=".775"
         stop-color="#FBFFFF"
         id="stop274" />
      <stop
         offset="1"
         stop-color="#fff"
         id="stop276" />
    </linearGradient>
    <linearGradient
       id="paint13_linear"
       x1="180.018"
       y1="204.262"
       x2="180.018"
       y2="259.021"
       gradientUnits="userSpaceOnUse">
      <stop
         stop-color="#B3FFFF"
         id="stop279" />
      <stop
         offset=".069"
         stop-color="#BDFFFF"
         id="stop281" />
      <stop
         offset=".306"
         stop-color="#DAFFFF"
         id="stop283" />
      <stop
         offset=".543"
         stop-color="#EFF"
         id="stop285" />
      <stop
         offset=".775"
         stop-color="#FBFFFF"
         id="stop287" />
      <stop
         offset="1"
         stop-color="#fff"
         id="stop289" />
    </linearGradient>
    <linearGradient
       id="paint14_linear"
       x1="338.437"
       y1="161.149"
       x2="338.437"
       y2="187.906"
       gradientUnits="userSpaceOnUse">
      <stop
         stop-color="#B3FFFF"
         id="stop292" />
      <stop
         offset=".069"
         stop-color="#BDFFFF"
         id="stop294" />
      <stop
         offset=".306"
         stop-color="#DAFFFF"
         id="stop296" />
      <stop
         offset=".543"
         stop-color="#EFF"
         id="stop298" />
      <stop
         offset=".775"
         stop-color="#FBFFFF"
         id="stop300" />
      <stop
         offset="1"
         stop-color="#fff"
         id="stop302" />
    </linearGradient>
    <linearGradient
       id="paint15_linear"
       x1="121.431"
       y1="219.479"
       x2="121.431"
       y2="259.303"
       gradientUnits="userSpaceOnUse">
      <stop
         stop-color="#B3FFFF"
         id="stop305" />
      <stop
         offset=".069"
         stop-color="#BDFFFF"
         id="stop307" />
      <stop
         offset=".306"
         stop-color="#DAFFFF"
         id="stop309" />
      <stop
         offset=".543"
         stop-color="#EFF"
         id="stop311" />
      <stop
         offset=".775"
         stop-color="#FBFFFF"
         id="stop313" />
      <stop
         offset="1"
         stop-color="#fff"
         id="stop315" />
    </linearGradient>
    <linearGradient
       id="paint16_linear"
       x1="484.673"
       y1="131.946"
       x2="484.673"
       y2="199.852"
       gradientUnits="userSpaceOnUse">
      <stop
         stop-color="#B3FFFF"
         id="stop318" />
      <stop
         offset=".069"
         stop-color="#BDFFFF"
         id="stop320" />
      <stop
         offset=".306"
         stop-color="#DAFFFF"
         id="stop322" />
      <stop
         offset=".543"
         stop-color="#EFF"
         id="stop324" />
      <stop
         offset=".775"
         stop-color="#FBFFFF"
         id="stop326" />
      <stop
         offset="1"
         stop-color="#fff"
         id="stop328" />
    </linearGradient>
    <linearGradient
       id="paint17_linear"
       x1="567.853"
       y1="243.935"
       x2="557.078"
       y2="182.827"
       gradientUnits="userSpaceOnUse">
      <stop
         stop-color="#B6DD54"
         id="stop331" />
      <stop
         offset=".143"
         stop-color="#B2DC54"
         id="stop333" />
      <stop
         offset=".292"
         stop-color="#A5D753"
         id="stop335" />
      <stop
         offset=".443"
         stop-color="#91D051"
         id="stop337" />
      <stop
         offset=".595"
         stop-color="#74C64F"
         id="stop339" />
      <stop
         offset=".749"
         stop-color="#4EB94D"
         id="stop341" />
      <stop
         offset=".902"
         stop-color="#21A949"
         id="stop343" />
      <stop
         offset="1"
         stop-color="#009E47"
         id="stop345" />
    </linearGradient>
    <linearGradient
       id="paint18_linear"
       x1="609.752"
       y1="296.593"
       x2="671.803"
       y2="296.593"
       gradientUnits="userSpaceOnUse">
      <stop
         stop-color="#B6DD54"
         id="stop348" />
      <stop
         offset=".143"
         stop-color="#B2DC54"
         id="stop350" />
      <stop
         offset=".292"
         stop-color="#A5D753"
         id="stop352" />
      <stop
         offset=".443"
         stop-color="#91D051"
         id="stop354" />
      <stop
         offset=".595"
         stop-color="#74C64F"
         id="stop356" />
      <stop
         offset=".749"
         stop-color="#4EB94D"
         id="stop358" />
      <stop
         offset=".902"
         stop-color="#21A949"
         id="stop360" />
      <stop
         offset="1"
         stop-color="#009E47"
         id="stop362" />
    </linearGradient>
    <linearGradient
       id="paint19_linear"
       x1="527.224"
       y1="281.925"
       x2="557.751"
       y2="306.948"
       gradientUnits="userSpaceOnUse">
      <stop
         stop-color="#302926"
         stop-opacity="0"
         id="stop365" />
      <stop
         offset=".388"
         stop-color="#2D2724"
         stop-opacity=".027"
         id="stop367" />
      <stop
         offset=".621"
         stop-color="#25201D"
         stop-opacity=".043"
         id="stop369" />
      <stop
         offset=".812"
         stop-color="#171412"
         stop-opacity=".059"
         id="stop371" />
      <stop
         offset=".981"
         stop-color="#030202"
         stop-opacity=".071"
         id="stop373" />
      <stop
         offset="1"
         stop-opacity=".071"
         id="stop375" />
    </linearGradient>
    <linearGradient
       id="paint20_linear"
       x1="552.173"
       y1="259.434"
       x2="591.479"
       y2="293.28"
       gradientUnits="userSpaceOnUse">
      <stop
         stop-color="#B6DD54"
         id="stop378" />
      <stop
         offset="1"
         stop-color="#009E47"
         id="stop380" />
    </linearGradient>
    <linearGradient
       id="paint21_linear"
       x1="607.585"
       y1="269.368"
       x2="593.01"
       y2="299.662"
       gradientUnits="userSpaceOnUse">
      <stop
         stop-color="#302926"
         stop-opacity="0"
         id="stop383" />
      <stop
         offset=".388"
         stop-color="#2D2724"
         stop-opacity=".027"
         id="stop385" />
      <stop
         offset=".621"
         stop-color="#25201D"
         stop-opacity=".043"
         id="stop387" />
      <stop
         offset=".812"
         stop-color="#171412"
         stop-opacity=".059"
         id="stop389" />
      <stop
         offset=".981"
         stop-color="#030202"
         stop-opacity=".071"
         id="stop391" />
      <stop
         offset="1"
         stop-opacity=".071"
         id="stop393" />
    </linearGradient>
    <linearGradient
       id="paint22_linear"
       x1="604.574"
       y1="357.304"
       x2="592.46"
       y2="357.304"
       gradientUnits="userSpaceOnUse">
      <stop
         stop-color="#B16464"
         id="stop396" />
      <stop
         offset=".59"
         stop-color="#9C6764"
         id="stop398" />
      <stop
         offset="1"
         stop-color="#936864"
         id="stop400" />
    </linearGradient>
    <linearGradient
       id="paint23_linear"
       x1="542.725"
       y1="243.934"
       x2="531.95"
       y2="182.826"
       gradientUnits="userSpaceOnUse">
      <stop
         stop-color="#B6DD54"
         id="stop403" />
      <stop
         offset=".143"
         stop-color="#B2DC54"
         id="stop405" />
      <stop
         offset=".292"
         stop-color="#A5D753"
         id="stop407" />
      <stop
         offset=".443"
         stop-color="#91D051"
         id="stop409" />
      <stop
         offset=".595"
         stop-color="#74C64F"
         id="stop411" />
      <stop
         offset=".749"
         stop-color="#4EB94D"
         id="stop413" />
      <stop
         offset=".902"
         stop-color="#21A949"
         id="stop415" />
      <stop
         offset="1"
         stop-color="#009E47"
         id="stop417" />
    </linearGradient>
    <linearGradient
       id="paint24_linear"
       x1="584.624"
       y1="296.592"
       x2="646.674"
       y2="296.592"
       gradientUnits="userSpaceOnUse">
      <stop
         stop-color="#B6DD54"
         id="stop420" />
      <stop
         offset=".143"
         stop-color="#B2DC54"
         id="stop422" />
      <stop
         offset=".292"
         stop-color="#A5D753"
         id="stop424" />
      <stop
         offset=".443"
         stop-color="#91D051"
         id="stop426" />
      <stop
         offset=".595"
         stop-color="#74C64F"
         id="stop428" />
      <stop
         offset=".749"
         stop-color="#4EB94D"
         id="stop430" />
      <stop
         offset=".902"
         stop-color="#21A949"
         id="stop432" />
      <stop
         offset="1"
         stop-color="#009E47"
         id="stop434" />
    </linearGradient>
    <linearGradient
       id="paint25_linear"
       x1="502.095"
       y1="281.925"
       x2="532.622"
       y2="306.947"
       gradientUnits="userSpaceOnUse">
      <stop
         stop-color="#302926"
         stop-opacity="0"
         id="stop437" />
      <stop
         offset=".388"
         stop-color="#2D2724"
         stop-opacity=".027"
         id="stop439" />
      <stop
         offset=".621"
         stop-color="#25201D"
         stop-opacity=".043"
         id="stop441" />
      <stop
         offset=".812"
         stop-color="#171412"
         stop-opacity=".059"
         id="stop443" />
      <stop
         offset=".981"
         stop-color="#030202"
         stop-opacity=".071"
         id="stop445" />
      <stop
         offset="1"
         stop-opacity=".071"
         id="stop447" />
    </linearGradient>
    <linearGradient
       id="paint26_linear"
       x1="527.045"
       y1="259.432"
       x2="566.351"
       y2="293.278"
       gradientUnits="userSpaceOnUse">
      <stop
         stop-color="#B6DD54"
         id="stop450" />
      <stop
         offset="1"
         stop-color="#009E47"
         id="stop452" />
    </linearGradient>
    <linearGradient
       id="paint27_linear"
       x1="582.457"
       y1="269.366"
       x2="567.882"
       y2="299.661"
       gradientUnits="userSpaceOnUse">
      <stop
         stop-color="#302926"
         stop-opacity="0"
         id="stop455" />
      <stop
         offset=".388"
         stop-color="#2D2724"
         stop-opacity=".027"
         id="stop457" />
      <stop
         offset=".621"
         stop-color="#25201D"
         stop-opacity=".043"
         id="stop459" />
      <stop
         offset=".812"
         stop-color="#171412"
         stop-opacity=".059"
         id="stop461" />
      <stop
         offset=".981"
         stop-color="#030202"
         stop-opacity=".071"
         id="stop463" />
      <stop
         offset="1"
         stop-opacity=".071"
         id="stop465" />
    </linearGradient>
    <linearGradient
       id="paint28_linear"
       x1="579.446"
       y1="357.303"
       x2="567.332"
       y2="357.303"
       gradientUnits="userSpaceOnUse">
      <stop
         stop-color="#B16464"
         id="stop468" />
      <stop
         offset=".59"
         stop-color="#9C6764"
         id="stop470" />
      <stop
         offset="1"
         stop-color="#936864"
         id="stop472" />
    </linearGradient>
    <linearGradient
       id="paint29_linear"
       x1="507.304"
       y1="243.239"
       x2="496.529"
       y2="182.131"
       gradientUnits="userSpaceOnUse">
      <stop
         stop-color="#B6DD54"
         id="stop475" />
      <stop
         offset=".143"
         stop-color="#B2DC54"
         id="stop477" />
      <stop
         offset=".292"
         stop-color="#A5D753"
         id="stop479" />
      <stop
         offset=".443"
         stop-color="#91D051"
         id="stop481" />
      <stop
         offset=".595"
         stop-color="#74C64F"
         id="stop483" />
      <stop
         offset=".749"
         stop-color="#4EB94D"
         id="stop485" />
      <stop
         offset=".902"
         stop-color="#21A949"
         id="stop487" />
      <stop
         offset="1"
         stop-color="#009E47"
         id="stop489" />
    </linearGradient>
    <linearGradient
       id="paint30_linear"
       x1="549.203"
       y1="295.897"
       x2="611.253"
       y2="295.897"
       gradientUnits="userSpaceOnUse">
      <stop
         stop-color="#B6DD54"
         id="stop492" />
      <stop
         offset=".143"
         stop-color="#B2DC54"
         id="stop494" />
      <stop
         offset=".292"
         stop-color="#A5D753"
         id="stop496" />
      <stop
         offset=".443"
         stop-color="#91D051"
         id="stop498" />
      <stop
         offset=".595"
         stop-color="#74C64F"
         id="stop500" />
      <stop
         offset=".749"
         stop-color="#4EB94D"
         id="stop502" />
      <stop
         offset=".902"
         stop-color="#21A949"
         id="stop504" />
      <stop
         offset="1"
         stop-color="#009E47"
         id="stop506" />
    </linearGradient>
    <linearGradient
       id="paint31_linear"
       x1="466.674"
       y1="281.23"
       x2="497.201"
       y2="306.253"
       gradientUnits="userSpaceOnUse">
      <stop
         stop-color="#302926"
         stop-opacity="0"
         id="stop509" />
      <stop
         offset=".388"
         stop-color="#2D2724"
         stop-opacity=".027"
         id="stop511" />
      <stop
         offset=".621"
         stop-color="#25201D"
         stop-opacity=".043"
         id="stop513" />
      <stop
         offset=".812"
         stop-color="#171412"
         stop-opacity=".059"
         id="stop515" />
      <stop
         offset=".981"
         stop-color="#030202"
         stop-opacity=".071"
         id="stop517" />
      <stop
         offset="1"
         stop-opacity=".071"
         id="stop519" />
    </linearGradient>
    <linearGradient
       id="paint32_linear"
       x1="491.624"
       y1="258.738"
       x2="530.93"
       y2="292.584"
       gradientUnits="userSpaceOnUse">
      <stop
         stop-color="#B6DD54"
         id="stop522" />
      <stop
         offset="1"
         stop-color="#009E47"
         id="stop524" />
    </linearGradient>
    <linearGradient
       id="paint33_linear"
       x1="547.036"
       y1="268.671"
       x2="532.461"
       y2="298.966"
       gradientUnits="userSpaceOnUse">
      <stop
         stop-color="#302926"
         stop-opacity="0"
         id="stop527" />
      <stop
         offset=".388"
         stop-color="#2D2724"
         stop-opacity=".027"
         id="stop529" />
      <stop
         offset=".621"
         stop-color="#25201D"
         stop-opacity=".043"
         id="stop531" />
      <stop
         offset=".812"
         stop-color="#171412"
         stop-opacity=".059"
         id="stop533" />
      <stop
         offset=".981"
         stop-color="#030202"
         stop-opacity=".071"
         id="stop535" />
      <stop
         offset="1"
         stop-opacity=".071"
         id="stop537" />
    </linearGradient>
    <linearGradient
       id="paint34_linear"
       x1="544.025"
       y1="356.608"
       x2="531.911"
       y2="356.608"
       gradientUnits="userSpaceOnUse">
      <stop
         stop-color="#B16464"
         id="stop540" />
      <stop
         offset=".59"
         stop-color="#9C6764"
         id="stop542" />
      <stop
         offset="1"
         stop-color="#936864"
         id="stop544" />
    </linearGradient>
    <filter
       id="filter0_d"
       x="236.82"
       y="207.508"
       width="194.61"
       height="27.937"
       filterUnits="userSpaceOnUse"
       color-interpolation-filters="sRGB">
      <feFlood
         flood-opacity="0"
         result="BackgroundImageFix"
         id="feFlood547" />
      <feColorMatrix
         in="SourceAlpha"
         values="0 0 0 0 0 0 0 0 0 0 0 0 0 0 0 0 0 0 127 0"
         id="feColorMatrix549" />
      <feOffset
         dy="4"
         id="feOffset551" />
      <feGaussianBlur
         stdDeviation="2"
         id="feGaussianBlur553" />
      <feColorMatrix
         values="0 0 0 0 0 0 0 0 0 0 0 0 0 0 0 0 0 0 0.25 0"
         id="feColorMatrix555" />
      <feBlend
         in2="BackgroundImageFix"
         result="effect1_dropShadow"
         id="feBlend557" />
      <feBlend
         in="SourceGraphic"
         in2="effect1_dropShadow"
         result="shape"
         id="feBlend559" />
    </filter>
  </defs>
  <g
     id="#000000ff"
     transform="matrix(0.17999957,0,0,0.20413016,280.29783,243.19402)">
    <path
       fill="#000000"
       opacity="1"
       d="M 0,0 H 600 V 215 H 0 V 0 m 344.71,75.92 c -3.61,4.57 -6.19,9.8 -8.32,15.2 -4.22,14.39 -3.39,30.95 4.83,43.8 8.6,15.69 27.21,24.24 44.74,23.66 15.1,0.5 29.88,-5.33 41.57,-14.7 0.2,-0.71 0.59,-2.12 0.78,-2.83 0.16,-13.62 0,-27.24 0.07,-40.86 -14.37,-0.06 -28.74,-0.03 -43.11,-0.02 0.04,6.36 -0.08,12.71 0.12,19.06 7.13,-0.02 14.27,0 21.4,-0.02 0,4.68 0.01,9.37 -0.01,14.05 -7.71,5.11 -17.21,6.13 -26.21,5.2 -5.51,-1.51 -10.92,-3.91 -14.95,-8.06 -2.21,-2.09 -3.46,-4.96 -5.6,-7.1 -1.21,-4.09 -2.76,-8.13 -3.11,-12.42 -0.61,-3.67 0.37,-7.3 0.6,-10.95 1.74,-5.25 4.01,-10.47 7.97,-14.46 4.86,-5.34 11.87,-7.98 18.88,-8.97 4.58,0.46 9.26,0.78 13.61,2.39 4.88,1.67 9.04,4.81 13.09,7.91 4.59,-5.56 9.36,-10.98 13.78,-16.68 -6.53,-5.44 -14.06,-9.84 -22.4,-11.75 -8.63,-1.9 -17.64,-2.41 -26.37,-0.91 -12.25,2.07 -23.62,8.74 -31.36,18.46 M 155.96,58.53 c 2.06,5.43 4.34,10.78 6.47,16.19 2.01,5 4.05,9.98 6.02,14.99 2.76,6.49 5.09,13.16 8.1,19.54 5.85,15.67 12.49,31.09 18.61,46.68 0.35,2.82 3.48,1.55 5.4,1.86 7.18,-18.51 14.67,-36.92 21.56,-55.52 2.94,-6.99 5.81,-14.05 8.32,-21.2 2.44,-5.9 4.93,-11.81 7,-17.85 0.79,-1.56 1.51,-3.15 2.24,-4.73 -2.44,-0.08 -4.88,-0.11 -7.32,-0.11 -2.25,5.58 -4.23,11.28 -6.72,16.76 -2.1,-5.58 -4.13,-11.18 -6.26,-16.74 -8.2,-0.02 -16.4,-0.1 -24.59,0.04 5.86,14.67 11.77,29.33 17.77,43.94 0.5,1.15 0.87,2.33 1.12,3.55 -1.79,5.93 -4.77,11.44 -6.37,17.44 -0.12,0.16 -0.37,0.47 -0.49,0.63 -0.31,1 -0.61,2.02 -0.91,3.03 -2.82,-6.7 -5.15,-13.59 -7.75,-20.37 l -0.19,-0.06 c -2.68,-8.01 -5.73,-15.9 -8.77,-23.78 -1.16,-3.85 -2.91,-7.5 -4.02,-11.37 l -0.25,0.15 c -1.41,-4.42 -3.06,-8.76 -4.76,-13.07 -8.07,-0.03 -16.14,-0.03 -24.21,0 m 92.13,0.07 c -4.68,13.1 -10.21,25.88 -14.88,38.97 l -0.28,-0.19 c -7.47,20.24 -15.75,40.17 -23.35,60.36 2.26,0.01 4.51,0.02 6.77,0.02 3.27,-7.6 5.73,-15.53 9.35,-22.96 3.03,7.63 6.26,15.18 9.13,22.87 6.53,0.18 13.06,0.09 19.6,0.07 7.31,-18.23 14.84,-36.4 21.96,-54.71 2.76,-6.61 5.62,-13.2 8.01,-19.95 3.52,-8.11 6.74,-16.34 10.02,-24.54 -7.91,-0.07 -15.82,-0.02 -23.72,-0.03 -1.8,5.14 -4,10.14 -5.61,15.33 -3.07,7.92 -6.24,15.84 -8.79,23.94 L 256,97.42 c -3.37,10.05 -7.21,19.94 -11.03,29.82 -2.52,-6.51 -4.99,-13.05 -7.39,-19.61 -0.93,-2.13 0.32,-4.3 0.68,-6.4 5.98,-14.11 11.33,-28.48 16.93,-42.74 -2.37,0.01 -4.74,0.03 -7.1,0.11 m 53.71,-0.03 c 0.05,32.97 0.07,65.95 -0.01,98.92 7.33,0.46 14.67,0.15 22,0.21 0.14,-25.56 -0.02,-51.12 0.13,-76.68 0.18,-7.54 0.33,-15.08 -0.02,-22.62 -7.37,0.04 -14.74,-0.22 -22.1,0.17 m 145.09,20.19 c -6.64,8.92 -9.35,20.15 -9.11,31.15 0.1,18.75 11.93,36.69 29.08,44.23 10.25,5 21.98,5.34 33.11,4.13 13.9,-2.26 27.23,-10.27 34.63,-22.38 3.87,-4.79 6.18,-10.78 7.11,-16.83 2.22,-8.01 0.55,-16.47 0.48,-24.6 -0.24,0 -0.73,0.01 -0.97,0.01 l 0.22,-0.31 c -0.63,-1.63 -1.2,-3.26 -1.77,-4.89 -4.53,-11.72 -13.64,-21.56 -24.97,-26.96 -10.37,-5.2 -22.29,-5.96 -33.64,-4.61 -13.58,2.13 -26.27,9.76 -34.17,21.06 M 70.38,157.75 c 25.2,0.08 50.39,0.07 75.59,0 0.24,-6.62 0.29,-13.27 -0.06,-19.89 -17.86,-0.17 -35.72,0.01 -53.59,-0.09 -0.12,-6.73 0.29,-13.48 -0.25,-20.2 14.79,-0.1 29.59,0.04 44.39,-0.06 0,-6.6 0.05,-13.2 -0.03,-19.8 -14.74,-0.07 -29.49,0.12 -44.23,-0.08 0.08,-6.55 0.01,-13.1 0.06,-19.65 17.65,-0.18 35.31,0.06 52.97,-0.13 0,-6.44 0,-12.88 0.01,-19.32 -24.93,-0.12 -49.85,-0.03 -74.78,-0.05 -0.34,33.09 -0.1,66.18 -0.08,99.27 z"
       id="path2-7" />
    <path
       fill="#000000"
       opacity="1"
       d="m 478.4,79.31 c 6.27,-2.06 13.09,-2.84 19.54,-1.13 7.22,1.75 13.42,6.65 17.41,12.85 2.86,4.74 4.29,10.16 4.89,15.63 -0.19,7.69 -1.97,15.6 -7.01,21.62 -9.17,11.78 -27.75,13.94 -39.74,5.31 -6.38,-4.29 -10.43,-11.33 -12.22,-18.69 -1.62,-8.94 -0.12,-18.68 5.42,-26.04 2.93,-4.22 7.28,-7.11 11.71,-9.55 z"
       id="path4-3" />
  </g>
  <g
     id="#f6a305ff"
     transform="matrix(0.17999957,0,0,0.20413016,280.29783,243.19402)">
    <path
       fill="#f6a305"
       opacity="1"
       d="m 344.71,75.92 c 7.74,-9.72 19.11,-16.39 31.36,-18.46 8.73,-1.5 17.74,-0.99 26.37,0.91 8.34,1.91 15.87,6.31 22.4,11.75 -4.42,5.7 -9.19,11.12 -13.78,16.68 -4.05,-3.1 -8.21,-6.24 -13.09,-7.91 -4.35,-1.61 -9.03,-1.93 -13.61,-2.39 -2.84,-0.23 -5.77,-0.58 -8.56,0.21 -4.2,1.12 -8.12,3.48 -12.57,3.44 -5.93,-0.08 -11.89,0.82 -17.79,-0.13 -0.24,-1.37 -0.49,-2.73 -0.73,-4.1 z"
       id="path7" />
  </g>
  <g
     id="#f7aa05ff"
     transform="matrix(0.17999957,0,0,0.20413016,280.29783,243.19402)">
    <path
       fill="#f7aa05"
       opacity="1"
       d="m 155.96,58.53 c 8.07,-0.03 16.14,-0.03 24.21,0 1.7,4.31 3.35,8.65 4.76,13.07 -1.81,1.08 -3.69,2.28 -5.88,2.26 -5.12,0.32 -10.28,0.56 -15.37,-0.12 -0.31,0.24 -0.94,0.74 -1.25,0.98 -2.13,-5.41 -4.41,-10.76 -6.47,-16.19 z"
       id="path10-8" />
  </g>
  <g
     id="#bb8323ff"
     transform="matrix(0.17999957,0,0,0.20413016,280.29783,243.19402)">
    <path
       fill="#bb8323"
       opacity="1"
       d="m 194.79,58.44 c 8.19,-0.14 16.39,-0.06 24.59,-0.04 2.13,5.56 4.16,11.16 6.26,16.74 2.49,-5.48 4.47,-11.18 6.72,-16.76 2.44,0 4.88,0.03 7.32,0.11 -0.73,1.58 -1.45,3.17 -2.24,4.73 0.05,-0.95 0.16,-2.83 0.22,-3.78 -1.06,-0.08 -3.18,-0.25 -4.24,-0.33 -2.54,5.22 -4.3,10.76 -6.3,16.2 -0.54,0.17 -1.61,0.51 -2.15,0.69 -2.51,-5.42 -4.07,-11.21 -6.52,-16.66 -7.2,-0.08 -14.4,-0.11 -21.6,0.01 1.67,7.11 5.25,13.53 7.79,20.34 2.58,6.32 5.02,12.71 7.87,18.92 1.45,3.24 3.02,6.95 1.5,10.48 -1.92,4.88 -3.25,10.19 -6.7,14.28 1.6,-6 4.58,-11.51 6.37,-17.44 -0.25,-1.22 -0.62,-2.4 -1.12,-3.55 -6,-14.61 -11.91,-29.27 -17.77,-43.94 z"
       id="path13" />
  </g>
  <g
     id="#f1a30cff"
     transform="matrix(0.17999957,0,0,0.20413016,280.29783,243.19402)">
    <path
       fill="#f1a30c"
       opacity="1"
       d="m 248.09,58.6 c 2.36,-0.08 4.73,-0.1 7.1,-0.11 -5.6,14.26 -10.95,28.63 -16.93,42.74 0.23,-3.22 0.23,-6.44 0.23,-9.66 -1.46,2.23 -2.81,4.54 -4,6.92 -0.32,-0.23 -0.96,-0.69 -1.28,-0.92 4.67,-13.09 10.2,-25.87 14.88,-38.97 z"
       id="path16-2" />
  </g>
  <g
     id="#c77c1aff"
     transform="matrix(0.17999957,0,0,0.20413016,280.29783,243.19402)">
    <path
       fill="#c77c1a"
       opacity="1"
       d="m 301.8,58.57 c 7.36,-0.39 14.73,-0.13 22.1,-0.17 0.35,7.54 0.2,15.08 0.02,22.62 -0.15,25.56 0.01,51.12 -0.13,76.68 -7.33,-0.06 -14.67,0.25 -22,-0.21 0.08,-32.97 0.06,-65.95 0.01,-98.92 m 2.15,1.25 c -1.8,3.77 -0.26,8.59 -0.69,12.78 0.04,10.43 0.02,20.85 0.34,31.27 -0.24,16.05 -0.05,32.11 -0.14,48.16 0.16,1.41 -0.35,3.61 1.61,3.94 5.25,0.61 10.63,0.5 15.9,0.12 0.33,-0.27 0.98,-0.8 1.31,-1.07 0.59,-16.77 0.04,-33.59 0.18,-50.39 0.2,-10.66 0.3,-21.34 0.27,-32.01 -0.03,-3.97 0.33,-7.96 0.01,-11.93 -0.39,-0.32 -1.19,-0.96 -1.58,-1.28 -5.7,-0.04 -11.66,-0.78 -17.21,0.41 z"
       id="path19" />
  </g>
  <g
     id="#f6a105ff"
     transform="matrix(0.17999957,0,0,0.20413016,280.29783,243.19402)">
    <path
       fill="#f6a105"
       opacity="1"
       d="m 446.89,78.76 c 7.9,-11.3 20.59,-18.93 34.17,-21.06 11.35,-1.35 23.27,-0.59 33.64,4.61 11.33,5.4 20.44,15.24 24.97,26.96 -7.8,-0.72 -15.64,-0.46 -23.45,-1.06 -0.22,0.71 -0.65,2.11 -0.87,2.82 -3.99,-6.2 -10.19,-11.1 -17.41,-12.85 -6.45,-1.71 -13.27,-0.93 -19.54,1.13 -4.88,-0.14 -8.29,3.29 -12.09,5.72 -6.53,1 -13.46,0.94 -19.81,-1.11 0.1,-1.73 0.22,-3.45 0.39,-5.16 z"
       id="path22-6" />
  </g>
  <g
     id="#b76a17ff"
     transform="matrix(0.17999957,0,0,0.20413016,280.29783,243.19402)">
    <path
       fill="#b76a17"
       opacity="1"
       d="m 70.38,157.75 c -0.02,-33.09 -0.26,-66.18 0.08,-99.27 0.85,14.1 0.01,28.24 0.99,42.33 -0.12,16.72 0.06,33.44 -0.11,50.16 0.24,1.83 -0.56,4.42 1.55,5.4 4.01,0.57 8.07,0.2 12.1,0.25 18.02,0.01 36.05,-0.05 54.07,0.04 1.82,-0.19 4.19,0.33 5.29,-1.55 0.76,-5.19 0.21,-10.45 0.19,-15.67 -17.62,-0.41 -35.24,0.07 -52.86,-0.24 -0.25,-7.18 -1.35,-14.6 0.39,-21.63 0.54,6.72 0.13,13.47 0.25,20.2 17.87,0.1 35.73,-0.08 53.59,0.09 0.35,6.62 0.3,13.27 0.06,19.89 -25.2,0.07 -50.39,0.08 -75.59,0 z"
       id="path25" />
  </g>
  <g
     id="#dca030ff"
     transform="matrix(0.17999957,0,0,0.20413016,280.29783,243.19402)">
    <path
       fill="#dca030"
       opacity="1"
       d="m 70.46,58.48 c 24.93,0.02 49.85,-0.07 74.78,0.05 -0.01,6.44 -0.01,12.88 -0.01,19.32 -17.66,0.19 -35.32,-0.05 -52.97,0.13 -0.05,6.55 0.02,13.1 -0.06,19.65 l -1.13,-0.1 c -0.61,-4.55 -0.67,-9.16 -0.54,-13.75 0.23,-2.2 0.46,-4.41 0.68,-6.61 7.24,-0.92 14.54,-0.43 21.81,-0.52 10.15,-0.06 20.31,0.11 30.46,-0.05 0.14,-5.43 0.16,-10.87 0.03,-16.31 -23.74,-0.21 -47.5,-0.1 -71.25,-0.01 -0.16,9.05 0.05,18.09 0.04,27.14 0.27,4.48 0.04,8.98 -0.85,13.39 C 70.47,86.72 71.31,72.58 70.46,58.48 Z"
       id="path28-8" />
  </g>
  <g
     id="#f6a506ff"
     transform="matrix(0.17999957,0,0,0.20413016,280.29783,243.19402)">
    <path
       fill="#f6a506"
       opacity="1"
       d="m 265.09,73.84 c 1.61,-5.19 3.81,-10.19 5.61,-15.33 7.9,0.01 15.81,-0.04 23.72,0.03 -3.28,8.2 -6.5,16.43 -10.02,24.54 -0.14,-0.6 -0.43,-1.8 -0.57,-2.4 -6.11,-0.27 -12.27,0.42 -18.33,-0.6 -0.17,-2.08 -0.34,-4.15 -0.41,-6.24 z"
       id="path31" />
  </g>
  <g
     id="#f7a505ff"
     transform="matrix(0.17999957,0,0,0.20413016,280.29783,243.19402)">
    <path
       fill="#f7a505"
       opacity="1"
       d="m 72.26,60.28 c 23.75,-0.09 47.51,-0.2 71.25,0.01 0.13,5.44 0.11,10.88 -0.03,16.31 -10.15,0.16 -20.31,-0.01 -30.46,0.05 -7.27,0.09 -14.57,-0.4 -21.81,0.52 -0.22,2.2 -0.45,4.41 -0.68,6.61 -0.37,1.54 -0.79,3.06 -1.21,4.58 -5.63,0.33 -12.09,2.95 -17.02,-0.94 0.01,-9.05 -0.2,-18.09 -0.04,-27.14 z"
       id="path34-0" />
  </g>
  <g
     id="#f7a605ff"
     transform="matrix(0.17999957,0,0,0.20413016,280.29783,243.19402)">
    <path
       fill="#f7a605"
       opacity="1"
       d="m 196.85,59.35 c 7.2,-0.12 14.4,-0.09 21.6,-0.01 2.45,5.45 4.01,11.24 6.52,16.66 0.54,-0.18 1.61,-0.52 2.15,-0.69 2,-5.44 3.76,-10.98 6.3,-16.2 1.06,0.08 3.18,0.25 4.24,0.33 -0.06,0.95 -0.17,2.83 -0.22,3.78 -2.07,6.04 -4.56,11.95 -7,17.85 -0.06,-1.09 -0.12,-2.19 -0.2,-3.28 -5.08,0.52 -10.18,0.71 -15.25,1.34 -2.06,0.42 -3.96,-0.52 -5.92,-0.92 -1.55,0.25 -2.98,0.93 -4.43,1.48 -2.54,-6.81 -6.12,-13.23 -7.79,-20.34 z"
       id="path37" />
  </g>
  <g
     id="#f8a904ff"
     transform="matrix(0.17999957,0,0,0.20413016,280.29783,243.19402)">
    <path
       fill="#f8a904"
       opacity="1"
       d="m 303.95,59.82 c 5.55,-1.19 11.51,-0.45 17.21,-0.41 0.39,0.32 1.19,0.96 1.58,1.28 0.32,3.97 -0.04,7.96 -0.01,11.93 -6.53,-1.45 -13.03,2.08 -19.47,-0.02 0.43,-4.19 -1.11,-9.01 0.69,-12.78 z"
       id="path40-6" />
  </g>
  <g
     id="#f49907ff"
     transform="matrix(0.17999957,0,0,0.20413016,280.29783,243.19402)">
    <path
       fill="#f49907"
       opacity="1"
       d="m 184.93,71.6 0.25,-0.15 c 1.11,3.87 2.86,7.52 4.02,11.37 0.01,2.59 -0.16,5.18 -0.31,7.77 -6.45,0.57 -13.84,2.42 -19.43,-1.9 -0.25,0.26 -0.75,0.77 -1.01,1.02 -1.97,-5.01 -4.01,-9.99 -6.02,-14.99 0.31,-0.24 0.94,-0.74 1.25,-0.98 5.09,0.68 10.25,0.44 15.37,0.12 2.19,0.02 4.07,-1.18 5.88,-2.26 z"
       id="path43" />
  </g>
  <g
     id="#f39307ff"
     transform="matrix(0.17999957,0,0,0.20413016,280.29783,243.19402)">
    <path
       fill="#f39307"
       opacity="1"
       d="m 303.26,72.6 c 6.44,2.1 12.94,-1.43 19.47,0.02 0.03,10.67 -0.07,21.35 -0.27,32.01 -6.22,-1.19 -12.56,-1.07 -18.86,-0.76 -0.32,-10.42 -0.3,-20.84 -0.34,-31.27 z"
       id="path46-4" />
  </g>
  <g
     id="#f29107ff"
     transform="matrix(0.17999957,0,0,0.20413016,280.29783,243.19402)">
    <path
       fill="#f29107"
       opacity="1"
       d="m 256.3,97.78 c 2.55,-8.1 5.72,-16.02 8.79,-23.94 0.07,2.09 0.24,4.16 0.41,6.24 6.06,1.02 12.22,0.33 18.33,0.6 0.14,0.6 0.43,1.8 0.57,2.4 -2.39,6.75 -5.25,13.34 -8.01,19.95 -0.42,-1.13 -0.86,-2.25 -1.31,-3.37 -3.89,0 -7.76,0.4 -11.63,0.63 -2.57,0.11 -5.68,-0.04 -7.15,-2.51 z"
       id="path49" />
  </g>
  <g
     id="#f29207ff"
     transform="matrix(0.17999957,0,0,0.20413016,280.29783,243.19402)">
    <path
       fill="#f29207"
       opacity="1"
       d="m 336.39,91.12 c 2.13,-5.4 4.71,-10.63 8.32,-15.2 0.24,1.37 0.49,2.73 0.73,4.1 5.9,0.95 11.86,0.05 17.79,0.13 4.45,0.04 8.37,-2.32 12.57,-3.44 2.79,-0.79 5.72,-0.44 8.56,-0.21 -7.01,0.99 -14.02,3.63 -18.88,8.97 -3.96,3.99 -6.23,9.21 -7.97,14.46 -0.26,-1.27 -0.53,-2.54 -0.81,-3.81 -5.77,-1.01 -11.63,0.4 -17.38,-0.48 -2.26,-0.2 -2.08,-2.97 -2.93,-4.52 z"
       id="path52-4" />
  </g>
  <g
     id="#f39407ff"
     transform="matrix(0.17999957,0,0,0.20413016,280.29783,243.19402)">
    <path
       fill="#f39407"
       opacity="1"
       d="m 214.99,79.13 c 5.07,-0.63 10.17,-0.82 15.25,-1.34 0.08,1.09 0.14,2.19 0.2,3.28 -2.51,7.15 -5.38,14.21 -8.32,21.2 -0.09,-1.16 -0.19,-2.33 -0.3,-3.49 -3.1,0.49 -6.24,0.35 -9.31,-0.17 -2.85,-6.21 -5.29,-12.6 -7.87,-18.92 1.45,-0.55 2.88,-1.23 4.43,-1.48 1.96,0.4 3.86,1.34 5.92,0.92 z"
       id="path55" />
  </g>
  <g
     id="#f18a08ff"
     transform="matrix(0.17999957,0,0,0.20413016,280.29783,243.19402)">
    <path
       fill="#f18a08"
       opacity="1"
       d="m 437.78,109.91 c -0.24,-11 2.47,-22.23 9.11,-31.15 -0.17,1.71 -0.29,3.43 -0.39,5.16 6.35,2.05 13.28,2.11 19.81,1.11 3.8,-2.43 7.21,-5.86 12.09,-5.72 -4.43,2.44 -8.78,5.33 -11.71,9.55 -5.54,7.36 -7.04,17.1 -5.42,26.04 -0.28,0.34 -0.85,1.02 -1.14,1.36 -0.59,-3.07 -1.07,-6.16 -1.54,-9.24 -6.95,0.5 -14.6,-1.1 -20.81,2.89 z"
       id="path58-1" />
  </g>
  <g
     id="#f18a09ff"
     transform="matrix(0.17999957,0,0,0.20413016,280.29783,243.19402)">
    <path
       fill="#f18a09"
       opacity="1"
       d="m 189.2,82.82 c 3.04,7.88 6.09,15.77 8.77,23.78 -0.43,-0.16 -1.27,-0.46 -1.69,-0.61 -1.56,-1.49 -2.6,-3.62 -4.53,-4.63 -4.77,-0.48 -9.58,0.12 -14.37,-0.18 -0.31,2.68 -0.64,5.37 -0.83,8.07 -3.01,-6.38 -5.34,-13.05 -8.1,-19.54 0.26,-0.25 0.76,-0.76 1.01,-1.02 5.59,4.32 12.98,2.47 19.43,1.9 0.15,-2.59 0.32,-5.18 0.31,-7.77 z"
       id="path61" />
  </g>
  <g
     id="#ef7d05ff"
     transform="matrix(0.17999957,0,0,0.20413016,280.29783,243.19402)">
    <path
       fill="#ef7d05"
       opacity="1"
       d="m 89.32,88.36 c 0.42,-1.52 0.84,-3.04 1.21,-4.58 -0.13,4.59 -0.07,9.2 0.54,13.75 l 1.13,0.1 c 14.74,0.2 29.49,0.01 44.23,0.08 0.08,6.6 0.03,13.2 0.03,19.8 -14.8,0.1 -29.6,-0.04 -44.39,0.06 -1.74,7.03 -0.64,14.45 -0.39,21.63 17.62,0.31 35.24,-0.17 52.86,0.24 0.02,5.22 0.57,10.48 -0.19,15.67 -1.1,1.88 -3.47,1.36 -5.29,1.55 -18.02,-0.09 -36.05,-0.03 -54.07,-0.04 -4.03,-0.05 -8.09,0.32 -12.1,-0.25 -2.11,-0.98 -1.31,-3.57 -1.55,-5.4 0.17,-16.72 -0.01,-33.44 0.11,-50.16 0.89,-4.41 1.12,-8.91 0.85,-13.39 4.93,3.89 11.39,1.27 17.02,0.94 z"
       id="path64-1" />
    <path
       fill="#ef7d05"
       opacity="1"
       d="m 212.51,98.61 c 3.07,0.52 6.21,0.66 9.31,0.17 0.11,1.16 0.21,2.33 0.3,3.49 -6.89,18.6 -14.38,37.01 -21.56,55.52 -1.92,-0.31 -5.05,0.96 -5.4,-1.86 -6.12,-15.59 -12.76,-31.01 -18.61,-46.68 0.19,-2.7 0.52,-5.39 0.83,-8.07 4.79,0.3 9.6,-0.3 14.37,0.18 1.93,1.01 2.97,3.14 4.53,4.63 0.42,0.15 1.26,0.45 1.69,0.61 l 0.19,0.06 c 2.6,6.78 4.93,13.67 7.75,20.37 0.3,-1.01 0.6,-2.03 0.91,-3.03 0.12,-0.16 0.37,-0.47 0.49,-0.63 3.45,-4.09 4.78,-9.4 6.7,-14.28 1.52,-3.53 -0.05,-7.24 -1.5,-10.48 z"
       id="path66-6" />
  </g>
  <g
     id="#f18b08ff"
     transform="matrix(0.17999957,0,0,0.20413016,280.29783,243.19402)">
    <path
       fill="#f18b08"
       opacity="1"
       d="m 516.22,88.21 c 7.81,0.6 15.65,0.34 23.45,1.06 0.57,1.63 1.14,3.26 1.77,4.89 l -0.22,0.31 c -0.1,0.14 -0.29,0.43 -0.39,0.57 0.11,1.97 0.31,3.94 0.48,5.92 -6.48,-0.28 -12.97,-0.93 -19.44,-0.21 -0.57,1.96 -1.16,3.92 -1.63,5.91 -0.6,-5.47 -2.03,-10.89 -4.89,-15.63 0.22,-0.71 0.65,-2.11 0.87,-2.82 z"
       id="path69" />
  </g>
  <g
     id="#f08209ff"
     transform="matrix(0.17999957,0,0,0.20413016,280.29783,243.19402)">
    <path
       fill="#f08209"
       opacity="1"
       d="m 341.22,134.92 c -8.22,-12.85 -9.05,-29.41 -4.83,-43.8 0.85,1.55 0.67,4.32 2.93,4.52 5.75,0.88 11.61,-0.53 17.38,0.48 0.28,1.27 0.55,2.54 0.81,3.81 -0.23,3.65 -1.21,7.28 -0.6,10.95 0.35,4.29 1.9,8.33 3.11,12.42 -4.11,-2.6 -5.46,-7.35 -6.98,-11.65 -3.47,4.42 -9.06,0.94 -13.66,1.67 -2.84,2.59 -2.38,7.06 -1.05,10.32 1.48,3.62 2.54,7.38 2.89,11.28 z"
       id="path72-2" />
  </g>
  <g
     id="#ef7d02ff"
     transform="matrix(0.17999957,0,0,0.20413016,280.29783,243.19402)">
    <path
       fill="#ef7d02"
       opacity="1"
       d="m 234.49,98.49 c 1.19,-2.38 2.54,-4.69 4,-6.92 0,3.22 0,6.44 -0.23,9.66 -0.36,2.1 -1.61,4.27 -0.68,6.4 2.4,6.56 4.87,13.1 7.39,19.61 3.82,-9.88 7.66,-19.77 11.03,-29.82 l 0.3,0.36 c 1.47,2.47 4.58,2.62 7.15,2.51 3.87,-0.23 7.74,-0.63 11.63,-0.63 0.45,1.12 0.89,2.24 1.31,3.37 -7.12,18.31 -14.65,36.48 -21.96,54.71 -6.54,0.02 -13.07,0.11 -19.6,-0.07 -2.87,-7.69 -6.1,-15.24 -9.13,-22.87 -3.62,7.43 -6.08,15.36 -9.35,22.96 -2.26,0 -4.51,-0.01 -6.77,-0.02 7.6,-20.19 15.88,-40.12 23.35,-60.36 l 0.28,0.19 c 0.32,0.23 0.96,0.69 1.28,0.92 z"
       id="path75" />
  </g>
  <g
     id="#ef7d01ff"
     transform="matrix(0.17999957,0,0,0.20413016,280.29783,243.19402)">
    <path
       fill="#ef7d01"
       opacity="1"
       d="m 541.22,94.47 c 0.24,0 0.73,-0.01 0.97,-0.01 0.07,8.13 1.74,16.59 -0.48,24.6 -3.29,5.17 -5.68,10.86 -7.11,16.83 -7.4,12.11 -20.73,20.12 -34.63,22.38 -11.13,1.21 -22.86,0.87 -33.11,-4.13 -17.15,-7.54 -28.98,-25.48 -29.08,-44.23 6.21,-3.99 13.86,-2.39 20.81,-2.89 0.47,3.08 0.95,6.17 1.54,9.24 0.29,-0.34 0.86,-1.02 1.14,-1.36 1.79,7.36 5.84,14.4 12.22,18.69 11.99,8.63 30.57,6.47 39.74,-5.31 5.04,-6.02 6.82,-13.93 7.01,-21.62 0.47,-1.99 1.06,-3.95 1.63,-5.91 6.47,-0.72 12.96,-0.07 19.44,0.21 -0.17,-1.98 -0.37,-3.95 -0.48,-5.92 0.1,-0.14 0.29,-0.43 0.39,-0.57 z"
       id="path78-0" />
  </g>
  <g
     id="#ef7e0aff"
     transform="matrix(0.17999957,0,0,0.20413016,280.29783,243.19402)">
    <path
       fill="#ef7e0a"
       opacity="1"
       d="m 385.27,100.17 c 14.37,-0.01 28.74,-0.04 43.11,0.02 -0.07,13.62 0.09,27.24 -0.07,40.86 -0.19,0.71 -0.58,2.12 -0.78,2.83 -2.27,-8.37 0.62,-17.26 -2.03,-25.53 -2.01,-1.56 -5.11,-0.02 -7.5,-0.35 -2.94,0.53 -5.27,-1.49 -7.56,-2.96 -2.27,6 -0.49,12.48 -1.81,18.59 -2.25,3.49 -6.62,5.06 -10.58,5.58 -5.81,0.58 -11.83,0.97 -17.48,-0.75 9,0.93 18.5,-0.09 26.21,-5.2 0.02,-4.68 0.01,-9.37 0.01,-14.05 -7.13,0.02 -14.27,0 -21.4,0.02 -0.2,-6.35 -0.08,-12.7 -0.12,-19.06 z"
       id="path81" />
  </g>
  <g
     id="#ef7d00ff"
     transform="matrix(0.17999957,0,0,0.20413016,280.29783,243.19402)">
    <path
       fill="#ef7d00"
       opacity="1"
       d="m 303.6,103.87 c 6.3,-0.31 12.64,-0.43 18.86,0.76 -0.14,16.8 0.41,33.62 -0.18,50.39 -0.33,0.27 -0.98,0.8 -1.31,1.07 -5.27,0.38 -10.65,0.49 -15.9,-0.12 -1.96,-0.33 -1.45,-2.53 -1.61,-3.94 0.09,-16.05 -0.1,-32.11 0.14,-48.16 z"
       id="path84-6" />
    <path
       fill="#ef7d00"
       opacity="1"
       d="m 353.04,111.65 c 1.52,4.3 2.87,9.05 6.98,11.65 2.14,2.14 3.39,5.01 5.6,7.1 4.03,4.15 9.44,6.55 14.95,8.06 5.65,1.72 11.67,1.33 17.48,0.75 3.96,-0.52 8.33,-2.09 10.58,-5.58 1.32,-6.11 -0.46,-12.59 1.81,-18.59 2.29,1.47 4.62,3.49 7.56,2.96 2.39,0.33 5.49,-1.21 7.5,0.35 2.65,8.27 -0.24,17.16 2.03,25.53 -11.69,9.37 -26.47,15.2 -41.57,14.7 -17.53,0.58 -36.14,-7.97 -44.74,-23.66 -0.35,-3.9 -1.41,-7.66 -2.89,-11.28 -1.33,-3.26 -1.79,-7.73 1.05,-10.32 4.6,-0.73 10.19,2.75 13.66,-1.67 z"
       id="path86-2" />
  </g>
  <g
     id="#c06d1bff"
     transform="matrix(0.17999957,0,0,0.20413016,280.29783,243.19402)">
    <path
       fill="#c06d1b"
       opacity="1"
       d="m 534.6,135.89 c 1.43,-5.97 3.82,-11.66 7.11,-16.83 -0.93,6.05 -3.24,12.04 -7.11,16.83 z"
       id="path89" />
  </g>
</svg>
