<?xml version="1.0" encoding="UTF-8" standalone="no"?>
<svg
   width="768"
   height="690"
   fill="none"
   version="1.1"
   id="svg564"
   sodipodi:docname="SLICE-2-LIVRAISON-MOBILE.svg"
   inkscape:version="1.1.1 (3bf5ae0d25, 2021-09-20)"
   xmlns:inkscape="http://www.inkscape.org/namespaces/inkscape"
   xmlns:sodipodi="http://sodipodi.sourceforge.net/DTD/sodipodi-0.dtd"
   xmlns="http://www.w3.org/2000/svg"
   xmlns:svg="http://www.w3.org/2000/svg">
  <sodipodi:namedview
     id="namedview566"
     pagecolor="#ffffff"
     bordercolor="#666666"
     borderopacity="1.0"
     inkscape:pageshadow="2"
     inkscape:pageopacity="0.0"
     inkscape:pagecheckerboard="0"
     showgrid="false"
     inkscape:zoom="1.2057971"
     inkscape:cx="384.39303"
     inkscape:cy="344.58534"
     inkscape:window-width="1920"
     inkscape:window-height="1017"
     inkscape:window-x="-8"
     inkscape:window-y="-8"
     inkscape:window-maximized="1"
     inkscape:current-layer="svg564" />
  <path
     fill="#E5E5E5"
     d="M0 0h768v690H0z"
     id="path2" />
  <path
     fill="#54A3FF"
     d="M0 0h768v690H0z"
     id="path4" />
  <path
     opacity=".05"
     d="M252.5 178c20.711 0 37.5-16.342 37.5-36.5S273.211 105 252.5 105 215 121.342 215 141.5s16.789 36.5 37.5 36.5zm206 6C546.589 184 618 112.589 618 24.5 618-63.59 546.589-135 458.5-135S299-63.59 299 24.5c0 88.089 71.411 159.5 159.5 159.5zM62 156c57.438 0 104-47.01 104-105S119.438-54 62-54-42-6.99-42 51 4.562 156 62 156z"
     fill="#fff"
     stroke="#fff"
     stroke-width="2"
     id="path6" />
  <path
     d="M724.5-35C594.437-35 489 70.66 489 201c0 130.339 105.437 236 235.5 236S960 331.339 960 201C960 70.66 854.563-35 724.5-35z"
     fill="url(#paint0_linear)"
     id="path8" />
  <path
     d="M14.468 689.584l-6.581-69.403h45.2v69.403h-38.62z"
     fill="url(#paint1_linear)"
     stroke="#968F8F"
     id="path10" />
  <path
     d="M100.866 570.347l-48.82 1.541v45.223h48.82v-46.764z"
     fill="url(#paint2_linear)"
     id="path12" />
  <path
     d="M302.313 559.555v-30.577l-104.834 7.708-103.56 19.015-2.817 13.618 211.211-9.764z"
     fill="url(#paint3_linear)"
     id="path14" />
  <path
     d="M7.837 616.611v-30.382l41.653-3.011v33.393H7.837z"
     fill="url(#paint4_linear)"
     stroke="#968F8F"
     id="path16" />
  <path
     d="M102.922 571.134l200.419-7.982v126.399l-200.419.534V571.134z"
     fill="#C4C4C4"
     id="path18" />
  <path
     d="M303.341 563.152l86.335 12.847-4.368 114.085-81.967-.534V563.152z"
     fill="#CCC"
     id="path20" />
  <path
     d="M105.491 586.106l194.767-3.169v3.854l-194.767 2.055v-2.74zm0 6.167l194.767-3.169v3.854l-194.767 2.056v-2.741zm0-19.186l194.767-4.967v5.652l-194.767 2.056v-2.741zm0 6.337l194.767-3.169v3.855l-194.767 2.055v-2.741zm0 19.015l194.767-3.169v3.854l-194.767 2.056v-2.741zm0 6.167l194.767-3.169v3.854l-194.767 2.056v-2.741zm0 6.167l194.767-3.169v3.854l-194.767 2.055v-2.74zm0 6.167l194.767-3.169v3.854l-194.767 2.055v-2.74zm0 6.166l194.767-3.169v3.854l-194.767 2.056v-2.741zm0 6.167l194.767-3.169v3.854l-194.767 2.056v-2.741zm0 6.167l194.767-3.169v3.854l-194.767 2.056v-2.741zm0 7.195l194.767-3.169v3.854l-194.767 2.055v-2.74zm0 6.166l194.767-3.169v3.854l-194.767 2.056v-2.741zm0 6.167l194.767-3.169v3.855l-194.767 2.055v-2.741zm0 6.167l194.767-3.169v3.854l-194.767 2.055v-2.74zm0 6.166l194.767-3.169v3.855l-194.767 2.055v-2.741zm0 6.167l194.767-3.169v3.855l-194.767 2.055v-2.741zm0 6.167l194.767-3.169v3.854l-194.767 2.056v-2.741zm0 6.167l194.767-3.169v3.854l-194.767 2.056v-2.741z"
     fill="#9C9A9A"
     id="path22" />
  <path
     d="M305.91 563.548l2.827.433-.977 124.048h-1.85V563.548zm4.111.631l2.828.433-.977 123.93h-1.851V564.179zm4.112.514l2.828.431-.978 123.418h-1.85V564.693zm4.111.515l2.57.429-.889 122.906h-1.681V565.208zm3.597.514l2.57.427-.889 122.394h-1.681V565.722zm3.597.513l2.57.425-.888 121.882h-1.682V566.235zm3.598.514l2.055.423-.71 121.37h-1.345V566.749zm3.083.514l2.056.422-.711 120.858h-1.345v-121.28zm3.084.514l2.055.422-.71 120.857h-1.345V567.777zm3.083.514l2.056.419-.711 120.346h-1.345V568.291zm3.084.513l2.055.418-.711 119.834h-1.344V568.804zm3.083.514l1.542.286-.533 119.452h-1.009V569.318zm2.569.514l1.542.285-.533 118.939h-1.009V569.832zm5.139 1.028l1.542.282-.533 117.914h-1.009V570.86zm-2.569-.513l1.541.283-.533 118.427h-1.008v-118.71zm5.139 1.027l1.542.281-.533 117.401h-1.009V571.374zm2.569 0l1.542.282-.533 117.914H357.3V571.374zm5.139 1.028l1.542.279-.533 116.889h-1.009V572.402zm2.57.514l1.028.196-.49 116.458h-.538V572.916zm2.055 0l1.028.196-.49 116.458h-.538V572.916zm2.056.513l1.028.195-.49 115.946h-.538V573.429zm2.055 0l1.028.195-.49 115.946h-.538V573.429zm2.056.514l1.028.194-.49 115.433h-.538V573.943zm2.056.515l1.027.192-.489 114.92h-.538V574.458zm2.055 0l1.028.192-.49 114.92h-.538V574.458zm2.056.514l1.028.193-.49 114.919h-.538V574.972zm2.055 0l1.028.193-.49 114.919h-.538V574.972zm2.056.513l1.542.514-1.249 114.085h-.293V575.485zm-23.639-3.597l1.541.281-.533 117.401h-1.008V571.888z"
     fill="#B7B7B7"
     id="path24" />
  <path
     d="M133.255 620.634v68.951h-22.639v-71.904l22.639 2.953z"
     fill="#E6E6E6"
     stroke="#968F8F"
     id="path26" />
  <path
     d="M351.391 569.062l-48.564-39.827v30.083l48.564 9.744z"
     fill="url(#paint5_linear)"
     id="path28" />
  <path
     fill="#C4C4C4"
     stroke="#968F8F"
     d="M50.49 619.181v-36h1.57v36zM302.5 559.5v-36.001h1.569V559.5zm-201.648 58.139v-47.82h1.57v47.82h-1.57z"
     id="path30" />
  <path
     fill="#C4C4C4"
     stroke="#968F8F"
     d="M7.837 617.611h94.585v1.569H7.837zm78.626-46.241v-1.572l215.864-9.719v3.363L86.463 571.37zm216.864-7.958v-3.263l69.446 11.99 1.105 1.105-70.551-9.832z"
     id="path32" />
  <path
     d="M47.407 689.585v-69.442l62.209-2.511v71.953h-62.21z"
     fill="#EDEDED"
     stroke="#968F8F"
     id="path34" />
  <path
     d="M271.708 531.28l-.013.001-.013.002-33.883 4.253h-.001l-26.006 3.206-.014.001-.013.003-20.699 3.695-.006.002-17.904 3.426-.015.003-.015.003-25.958 6.666-.011.004-22.836 6.436-.008.002-.008.003-18.059 5.741-.003.001-19.367 6.004h0l-.011.003-20.944 7.042-.005.002-63.184 21.967-3.53-12.099 116.695-40.549 34.529-10.185.01-.002 23.01-6.274 46.289-10.496 82.209-13.638-.105 22.596-30.131 2.181z"
     fill="#C4C4C4"
     stroke="#968F8F"
     id="path36" />
  <path
     d="M302.813 529.258v-22.264l71.468 65.97-23.449-3.35-48.019-40.356z"
     fill="#DBDBDB"
     stroke="#968F8F"
     id="path38" />
  <path
     stroke="#000"
     d="M77.213 635.098v52.931m31.375-53.974l-60.126 1.542"
     id="path40" />
  <path
     d="M80.324 662.334c0 .341-.093.627-.217.813-.126.189-.246.229-.31.229-.065 0-.185-.04-.311-.229-.124-.186-.217-.472-.217-.813 0-.341.093-.627.217-.813.126-.189.246-.229.31-.229.065 0 .185.04.311.229.124.186.217.472.217.813z"
     fill="#C4C4C4"
     stroke="#000"
     id="path42" />
  <path
     d="M52.504 625.615l2.665-.046c1.215-.021 2.099.137 2.651.475.557.334.842.878.855 1.632.01.511-.105.933-.341 1.266a1.428 1.428 0 01-.945.608l.001.059c.545.111.94.331 1.184.659.248.328.377.767.386 1.318.014.781-.259 1.395-.817 1.842-.555.447-1.317.68-2.285.696l-3.205.056-.15-8.565zm1.875 3.361l1.054-.019c.492-.008.846-.091 1.063-.247.22-.156.326-.41.32-.761-.005-.329-.13-.561-.375-.697-.24-.14-.621-.206-1.14-.197l-.955.017.033 1.904zm.025 1.441l.039 2.232 1.183-.021c.5-.008.868-.111 1.103-.306.235-.196.349-.491.342-.885-.013-.711-.527-1.058-1.542-1.04l-1.125.02zm5.95-4.616c-.01-.582.309-.879.957-.89.648-.012.977.274.988.856.005.277-.074.495-.235.654-.157.155-.398.236-.722.241-.649.012-.978-.276-.988-.861zm2.007 8.21l-1.787.031-.115-6.55 1.787-.031.114 6.55zm4.498-5.482c-.379.007-.673.133-.884.379-.21.242-.328.584-.351 1.026l2.507-.044c-.015-.441-.136-.779-.363-1.013-.227-.239-.53-.354-.909-.348zm.349 5.515c-1.055.018-1.884-.259-2.488-.83-.604-.572-.915-1.391-.934-2.457-.019-1.097.24-1.95.776-2.557.54-.611 1.295-.925 2.263-.942.926-.016 1.651.235 2.176.753.525.519.795 1.242.811 2.172l.016.867-4.224.074c.028.507.185.901.471 1.181.287.28.684.416 1.191.407a4.928 4.928 0 001.117-.142c.35-.088.715-.226 1.095-.412l.024 1.383c-.31.161-.642.282-.996.363a6.189 6.189 0 01-1.299.14zm10.168-.295l-1.787.031-.067-3.826c-.008-.472-.098-.824-.27-1.056-.172-.235-.442-.349-.81-.343-.499.009-.857.183-1.074.523-.217.336-.319.89-.305 1.664l.054 3.081-1.787.031-.114-6.549 1.365-.024.254.833.1-.001a1.87 1.87 0 01.808-.729 2.77 2.77 0 011.19-.267c.762-.014 1.344.183 1.745.59.402.404.61.994.623 1.771l.075 4.271zm3.398-.059l-2.61-6.507 1.868-.032 1.331 3.709c.149.471.245.916.287 1.337h.035c.013-.375.093-.824.24-1.346l1.195-3.754 1.869-.033-2.382 6.594-1.833.032zm7.89-5.541c-.378.006-.673.132-.884.378-.21.242-.327.584-.35 1.026l2.506-.044c-.015-.441-.136-.779-.363-1.013-.227-.238-.53-.354-.908-.347zm.349 5.514c-1.055.018-1.884-.258-2.488-.83-.604-.571-.915-1.39-.933-2.457-.02-1.097.24-1.949.775-2.556.54-.612 1.295-.926 2.264-.942.925-.017 1.65.234 2.175.753.525.518.795 1.242.812 2.171l.015.867-4.224.074c.028.508.185.901.472 1.182.286.28.683.415 1.19.407a4.928 4.928 0 001.117-.143c.35-.088.715-.225 1.095-.412l.024 1.383c-.31.162-.642.283-.996.363a6.189 6.189 0 01-1.298.14zm10.168-.295l-1.787.031-.067-3.825c-.008-.473-.098-.825-.27-1.056-.172-.235-.442-.35-.809-.344-.5.009-.858.183-1.075.523-.217.336-.318.891-.305 1.664l.054 3.082-1.787.031-.114-6.55 1.365-.024.255.834.1-.002c.193-.32.462-.563.807-.729a2.8 2.8 0 011.19-.267c.762-.013 1.344.184 1.746.591.401.403.609.993.623 1.77l.074 4.271zm6.48-.113l-.255-.833-.094.001a1.9 1.9 0 01-.802.723c-.349.17-.748.259-1.197.267-.769.014-1.353-.181-1.75-.584-.398-.408-.604-.998-.617-1.771l-.075-4.271 1.787-.031.067 3.825c.008.473.098.827.27 1.062.172.232.442.344.809.338.5-.009.858-.181 1.075-.517.217-.34.319-.897.305-1.67l-.054-3.081 1.787-.032.114 6.55-1.37.024zM55.41 644.732c-.379.006-.674.132-.884.378-.211.242-.328.584-.352 1.026l2.508-.044c-.016-.441-.137-.779-.364-1.013-.226-.238-.53-.354-.908-.347zm.348 5.514c-1.055.018-1.884-.258-2.488-.83-.603-.572-.915-1.39-.933-2.457-.02-1.097.24-1.949.776-2.557.54-.611 1.294-.925 2.263-.942.925-.016 1.65.235 2.175.754.525.518.796 1.242.812 2.171l.015.867-4.224.074c.028.507.186.901.472 1.181.286.281.683.416 1.19.408a4.929 4.929 0 001.118-.143c.35-.088.715-.225 1.094-.412l.024 1.383a4.12 4.12 0 01-.995.363 6.19 6.19 0 01-1.299.14z"
     fill="#000"
     id="path44" />
  <path
     fill="#D9D7D7"
     d="M123.113 573.843l159.253-4.17.592 22.603-159.253 4.17z"
     id="path46" />
  <g
     filter="url(#filter0_d)"
     id="g50">
    <path
       d="M139.171 577.384l.34 12.98-2.817.074-6.627-9.47.252 9.637-2.816.074-.34-12.981 3.683-.096 5.723 8.054-.215-8.199 2.817-.073zm13.138 7.356l.02.755a3.815 3.815 0 00-.016.576c-.026.181-.021.36-.017.504l-8.635.226c.135.429.452.744.922.948.47.203 1.154.293 2.052.27l.588-.016c.246-.042.494-.049.773-.056.246-.042.525-.049.835-.057.277-.044.555-.051.834-.058.68-.056 1.36-.11 2.04-.162l.052 1.978-1.756.37c-.493.084-1.049.171-1.635.258-.586.088-1.143.102-1.669.116-1.083.028-2.013.017-2.759-.108-.746-.088-1.372-.324-1.844-.635a2.804 2.804 0 01-1.028-1.412c-.233-.606-.346-1.395-.372-2.366-.025-.97.047-1.764.247-2.381.17-.616.498-1.128.953-1.464.455-.372 1.067-.64 1.807-.767s1.667-.224 2.751-.252c.866-.023 1.672.028 2.387.118a5.215 5.215 0 011.811.564c.504.31.916.696 1.208 1.191.261.497.432 1.105.451 1.86zm-2.945-.103l-.01-.395a1.383 1.383 0 00-.132-.321c-.065-.106-.191-.211-.41-.277a3.216 3.216 0 00-.84-.158 15.07 15.07 0 00-1.457-.034c-.959.025-1.668.152-2.127.38a1.41 1.41 0 00-.808 1.1l5.788-.151-.004-.144zm8.939 5.451c-.774.02-1.425.001-2.016-.127a3.04 3.04 0 01-1.473-.645c-.412-.349-.702-.809-.935-1.415-.202-.607-.316-1.395-.341-2.366l-.119-4.53 2.817-.074.118 4.53c.01.36.079.646.148.896.067.214.196.391.324.532.169.148.374.254.596.307.217.031.497.06.807.051l.526-.013c.185-.005.339-.045.525-.05.153-.04.37-.046.555-.086.216-.006.463-.049.772-.093l-.162-6.184 2.817-.074.225 8.593c-.401.083-.771.164-1.171.247-.37.081-.77.164-1.172.211-.431.083-.863.13-1.326.214-.463.048-.958.062-1.515.076zm12.083-8.124l.066 2.517-2.817.073.133 5.07-2.848.075-.169-6.472c-.029-1.115.007-2.088.14-2.919.102-.83.363-1.52.812-2.108.419-.551 1.027-.999 1.855-1.308.798-.273 1.878-.445 3.24-.48l.774-.021.068 2.589-.806.021c-.65.017-1.205.104-1.603.258a2.633 2.633 0 00-.974.637 2.685 2.685 0 00-.502.949 6.636 6.636 0 00-.155 1.191l2.785-.072h.001zm9.483 7.343l-4.647-9.521.252 9.636-2.816.074-.34-12.98 3.868-.102 4.32 8.811 3.882-9.025 3.838-.101.34 12.981-2.817.073-.252-9.636-4.143 9.752-1.485.038zm15.606-9.583c1.114-.03 2.014.018 2.759.107.746.088 1.371.324 1.845.671.473.312.826.806 1.028 1.412.233.606.346 1.395.372 2.366.025.971-.047 1.764-.248 2.381a2.802 2.802 0 01-.952 1.464c-.456.336-1.069.604-1.809.731-.738.164-1.635.223-2.75.252-1.082.029-2.012.017-2.759-.107-.745-.089-1.34-.325-1.813-.637a2.798 2.798 0 01-1.027-1.412c-.233-.606-.347-1.394-.372-2.365-.026-.971.047-1.764.247-2.382.17-.616.497-1.128.953-1.463.455-.372 1.036-.639 1.776-.767.74-.127 1.667-.224 2.75-.252v.001zm.171 6.544a14.335 14.335 0 001.422-.11c.37-.045.678-.125.891-.275.214-.113.332-.332.419-.551.086-.254.109-.578.098-.974-.011-.431-.05-.754-.15-1.003-.099-.249-.228-.426-.447-.528-.22-.139-.532-.202-.905-.264-.372-.026-.837-.014-1.425.001-.557.015-1.052.028-1.422.073-.37.082-.647.161-.86.31a.942.942 0 00-.45.552 4.087 4.087 0 00-.097 1.01c.01.396.08.718.149.968.099.213.259.425.479.527.22.138.5.203.873.229.372.026.868.049 1.425.035zm9.826-6.806l-2.826.901.218 8.342 2.848-.074-.24-9.169zm-.199-2.838a1.29 1.29 0 01-.109.579c-.057.182-.146.327-.235.474a1.29 1.29 0 01-.425.335.817.817 0 01-.491.157.823.823 0 01-.499-.131 1.316 1.316 0 01-.442-.312c-.096-.142-.193-.283-.26-.462a1.298 1.298 0 01-.139-.572 1.198 1.198 0 01.109-.578c.058-.182.146-.364.235-.51a5.3 5.3 0 01.425-.335c.152-.076.306-.116.492-.121.186-.005.341.027.498.095.157.104.315.208.442.312.096.142.194.319.26.497.098.178.134.356.139.572zm8.431 2.622a19.04 19.04 0 012.759.108c.777.087 1.371.323 1.845.671.473.311.826.806 1.028 1.412.233.606.346 1.395.372 2.365l.116 4.46-3.002.078-.117-4.459c-.011-.431-.05-.755-.149-1.004a.788.788 0 00-.448-.528c-.22-.138-.532-.201-.905-.264-.372-.026-.837-.013-1.425.002l-.712.019c-.277.042-.556.05-.865.058a7.6 7.6 0 01-.927.096c-.308.044-.618.053-.895.095l.161 6.149-2.817.074-.235-8.989 2.043-.054.352.459c.398-.191.95-.385 1.629-.511a13.435 13.435 0 012.192-.237zm17.38 6.13c.014.539-.068.973-.243 1.337-.176.401-.509.698-.968.925-.458.228-1.041.423-1.813.516-.74.126-1.669.151-2.783.18-.433.011-.867-.013-1.332-.037-.436-.06-.839-.086-1.243-.147-.404-.025-.746-.088-1.087-.116-.311-.063-.56-.093-.747-.124l-.055-2.086c.62.02 1.21.041 1.767.026.496.023.992.046 1.487.033.392.017.785.019 1.177.006.619-.017 1.115.006 1.486-.004.371-.045.68-.053.865-.094.142-.025.278-.078.399-.154.06-.074.119-.184.117-.256-.003-.107-.004-.179-.068-.249a1.335 1.335 0 00-.282-.101 7.266 7.266 0 00-.591-.093c-.247.007-.558-.021-.961-.046a30.052 30.052 0 01-2.951-.319c-.777-.123-1.37-.324-1.779-.529-.44-.24-.726-.521-.89-.876-.164-.356-.237-.786-.249-1.253-.014-.504.068-.938.244-1.302.206-.401.509-.697.967-.925.458-.264 1.072-.46 1.813-.551.74-.128 1.667-.187 2.813-.217l1.488.068c.447.053.892.114 1.336.181.467.06.902.121 1.307.218l.056 2.157c-.319-.036-.64-.063-.962-.082-.372-.027-.744-.017-1.147-.042-.403-.026-.775-.016-1.147-.042-.371.01-.682-.018-.929-.012l-1.486.039a4.83 4.83 0 00-.865.094c-.215.042-.338.081-.429.156a.355.355 0 00-.086.254c.001.072.035.143.067.214a.842.842 0 00.281.101c.125.032.312.064.559.057.331.036.662.063.994.082 1.209.076 2.203.158 2.981.318.747.124 1.34.324 1.781.565.407.205.724.485.858.841.164.356.237.785.25 1.289zm1.043-3.914a15.934 15.934 0 01.172-2.919c.133-.831.425-1.522.874-2.11.419-.55 1.057-.999 1.886-1.272.829-.31 1.939-.483 3.27-.518.619-.016 1.238-.032 1.828.024.62.02 1.179.078 1.675.1.528.059.994.118 1.398.18.404.061.716.125.964.154l.07 2.661c-.125-.033-.342-.027-.684-.09-.341-.027-.776-.087-1.304-.11-.526-.022-1.117-.078-1.798-.097-.651-.019-1.363 0-2.106.019-.773.021-1.39.109-1.85.301-.429.191-.762.452-.971.781-.207.365-.321.764-.37 1.233-.049.47-.067 1.009-.051 1.584.015.576.06 1.115.134 1.58.074.466.208.858.433 1.177.226.318.572.56 1.011.729.47.203 1.09.259 1.864.238a42.486 42.486 0 002.288-.131c.711-.055 1.359-.144 1.885-.193a20.208 20.208 0 001.757-.298l.07 2.66c-.215.078-.523.122-.924.205-.461.093-.923.177-1.387.252-.524.085-1.112.137-1.698.188-.618.088-1.237.104-1.887.121-1.33.035-2.447-.043-3.291-.309-.843-.266-1.503-.644-1.951-1.209-.479-.526-.807-1.238-.984-2.061a15.887 15.887 0 01-.323-2.87zm16.563-2.628a9.236 9.236 0 011.046-.28c.307-.079.677-.125 1.078-.208.433-.047.834-.093 1.298-.106a19.4 19.4 0 012.759.108c.746.088 1.371.324 1.814.672.473.311.826.806 1.028 1.412.233.606.346 1.395.372 2.365l.116 4.46-2.971.077-.116-4.459c-.012-.431-.051-.754-.151-1.003a.935.935 0 00-.478-.528c-.22-.138-.501-.202-.874-.265-.372-.025-.868-.012-1.425.002l-.711.019c-.278.043-.556.05-.866.058a8.276 8.276 0 01-.927.097c-.339.044-.649.053-.926.095l.161 6.149-2.817.074-.34-12.98 2.817-.074.113 4.314v.001zm22.155 2.802l.02.755c.005.216-.021.396-.016.576.005.18-.022.36-.018.504l-8.634.226c.135.429.453.744.923.948.47.203 1.153.293 2.05.27l.589-.016c.246-.042.494-.049.772-.056.247-.042.526-.049.835-.057.278-.044.587-.052.835-.058a491.23 491.23 0 012.039-.162l.052 1.978c-.585.123-1.139.245-1.724.369-.555.09-1.11.177-1.666.259-.586.088-1.143.102-1.67.116-1.082.028-2.012.017-2.759-.108-.745-.088-1.37-.324-1.843-.635a2.806 2.806 0 01-1.029-1.412c-.232-.606-.346-1.395-.371-2.366-.025-.97.046-1.764.247-2.381.17-.616.497-1.128.953-1.464.455-.372 1.067-.64 1.807-.767s1.667-.224 2.75-.252c.866-.023 1.673.028 2.388.118a4.993 4.993 0 011.811.564c.504.31.916.696 1.208 1.191.291.496.431 1.105.451 1.86zm-2.945-.103l-.01-.395c-.003-.109-.067-.215-.132-.321a.72.72 0 00-.379-.278 3.905 3.905 0 00-.871-.157 14.455 14.455 0 00-1.457-.034c-.959.025-1.669.152-2.127.38a1.411 1.411 0 00-.808 1.1l5.788-.151-.004-.144zm4.221-3.205c.431-.119.893-.203 1.417-.325.493-.085 1.018-.135 1.542-.221.525-.049 1.081-.1 1.638-.15.556-.05 1.082-.064 1.639-.079l.062 2.374c-.588.015-1.081.1-1.513.146-.401.083-.77.165-1.048.208-.338.081-.615.16-.861.238l.165 6.293-2.817.074-.224-8.558z"
       fill="#E06329"
       id="path48" />
  </g>
  <path
     d="M327.37 632.066a40.857 40.857 0 00-19.56 12.275 40.655 40.655 0 00-9.745 20.891l-.285 1.89a1.67 1.67 0 001.286 1.877c.273.061.558.054.828-.022l1.844-.518a40.857 40.857 0 0019.56-12.275 40.655 40.655 0 009.745-20.891l.668-4.447-4.341 1.22z"
     fill="url(#paint6_linear)"
     id="path52" />
  <path
     d="M302.666 666.935a40.854 40.854 0 00-8.692-21.394 40.65 40.65 0 00-18.881-13.224l-1.812-.609a1.667 1.667 0 00-2.072.941c-.108.258-.15.539-.122.818l.19 1.907a40.854 40.854 0 008.692 21.394 40.65 40.65 0 0018.881 13.224l4.263 1.43-.447-4.487z"
     fill="url(#paint7_linear)"
     id="path54" />
  <path
     d="M291.975 658.65h-10.201c-5.977-6.472-9.666-14.768-10.488-23.589l-.199-1.815c-.035-.4.038-.802.21-1.164l20.678 26.568z"
     fill="url(#paint8_linear)"
     id="path56" />
  <path
     d="M308.274 658.891c3.179-11.103-1.315-26.322-9.989-33.816l-5.921-5.117a1.611 1.611 0 00-2.207.094c-.19.196-.33.437-.406.701l-2.17 7.581c-3.18 11.103 1.315 26.322 9.988 33.816l7.834 6.769 2.871-10.028z"
     fill="url(#paint9_linear)"
     id="path58" />
  <path
     d="M315.053 647.088l-1.102-7.987c4.95-5.866 11.723-10.274 19.259-12.535l1.547-.488a2.15 2.15 0 011.03-.049l-20.734 21.059z"
     fill="url(#paint10_linear)"
     id="path60" />
  <path
     d="M296.024 690.079h13.593c2.252 0-.16-1.975-.53-2.821.057-1.296-1.497-2.257-1.497-4.09v-13.821c0-1.832-.032-3.59-.089-4.886-.058-1.296-.135-2.024-.216-2.024l-7.437 2.821c-.08.005-1.071.115-1.128 1.41-.057 1.295-.589.85-.589 2.679l-.756 13.821c-.901 2.398-1.409 2.794-1.351 4.09.057 1.296-1.577 2.821 0 2.821z"
     fill="url(#paint11_linear)"
     id="path62" />
  <path
     d="M307.002 632.065a40.857 40.857 0 00-19.56 12.275 40.655 40.655 0 00-9.745 20.891l-.285 1.89a1.67 1.67 0 001.286 1.877c.274.061.558.054.828-.022l1.844-.518a40.857 40.857 0 0019.56-12.275 40.655 40.655 0 009.745-20.891l.668-4.447-4.341 1.22z"
     fill="url(#paint12_linear)"
     id="path64" />
  <path
     d="M282.298 666.935a40.857 40.857 0 00-8.692-21.395 40.658 40.658 0 00-18.881-13.224l-1.812-.608a1.667 1.667 0 00-2.072.94c-.108.258-.15.54-.122.818l.19 1.907a40.86 40.86 0 008.692 21.394 40.653 40.653 0 0018.881 13.225l4.263 1.43-.447-4.487z"
     fill="url(#paint13_linear)"
     id="path66" />
  <path
     d="M271.607 658.649h-10.201c-5.977-6.472-9.665-14.768-10.488-23.589l-.199-1.814c-.035-.4.038-.803.21-1.165l20.678 26.568z"
     fill="url(#paint14_linear)"
     id="path68" />
  <path
     d="M287.906 658.89c3.179-11.103-1.315-26.321-9.988-33.816l-5.922-5.117a1.602 1.602 0 00-1.52-.324 1.625 1.625 0 00-.686.418 1.664 1.664 0 00-.407.701l-2.17 7.582c-3.179 11.102 1.315 26.321 9.988 33.815l7.834 6.77 2.871-10.029z"
     fill="url(#paint15_linear)"
     id="path70" />
  <path
     d="M294.685 647.087l-1.101-7.987c4.949-5.866 11.722-10.274 19.258-12.535l1.547-.488a2.15 2.15 0 011.03-.049l-20.734 21.059z"
     fill="url(#paint16_linear)"
     id="path72" />
  <path
     d="M275.656 690.078h13.593c2.252 0-.16-1.974-.53-2.821.057-1.295-1.497-2.257-1.497-4.089v-13.821c0-1.833-.032-3.591-.089-4.887-.058-1.296-.135-2.024-.216-2.024l-7.437 2.821c-.08.005-1.071.115-1.128 1.41-.057 1.296-.589.851-.589 2.68l-.756 13.821c-.901 2.397-1.409 2.794-1.351 4.089.057 1.296-1.577 2.821 0 2.821z"
     fill="url(#paint17_linear)"
     id="path74" />
  <path
     d="M278.292 631.502a40.85 40.85 0 00-19.56 12.275 40.655 40.655 0 00-9.745 20.891l-.285 1.89a1.67 1.67 0 001.286 1.876c.273.062.558.055.827-.021l1.845-.518a40.862 40.862 0 0019.56-12.275 40.655 40.655 0 009.745-20.891l.668-4.447-4.341 1.22z"
     fill="url(#paint18_linear)"
     id="path76" />
  <path
     d="M253.588 666.372a40.866 40.866 0 00-8.692-21.395 40.649 40.649 0 00-18.882-13.224l-1.811-.609a1.678 1.678 0 00-1.574.281 1.683 1.683 0 00-.621 1.478l.191 1.907a40.853 40.853 0 008.691 21.394 40.649 40.649 0 0018.882 13.224l4.263 1.431-.447-4.487z"
     fill="url(#paint19_linear)"
     id="path78" />
  <path
     d="M242.897 658.086h-10.201c-5.977-6.472-9.666-14.768-10.489-23.589l-.199-1.814a2.268 2.268 0 01.211-1.165l20.678 26.568z"
     fill="url(#paint20_linear)"
     id="path80" />
  <path
     d="M259.196 658.327c3.179-11.103-1.316-26.321-9.989-33.816l-5.921-5.117a1.608 1.608 0 00-2.207.094 1.652 1.652 0 00-.406.701l-2.171 7.582c-3.179 11.102 1.316 26.321 9.989 33.815l7.833 6.769 2.872-10.028z"
     fill="url(#paint21_linear)"
     id="path82" />
  <path
     d="M265.975 646.523l-1.102-7.986c4.949-5.866 11.722-10.274 19.259-12.535l1.547-.488a2.133 2.133 0 011.029-.049l-20.733 21.058z"
     fill="url(#paint22_linear)"
     id="path84" />
  <path
     d="M246.945 689.515h13.594c2.252 0-.16-1.975-.531-2.821.057-1.296-1.496-2.257-1.496-4.09v-13.82c0-1.833-.033-3.591-.09-4.887-.057-1.296-.135-2.024-.216-2.024l-7.436 2.821c-.081.005-1.071.115-1.128 1.41-.057 1.295-.59.85-.59 2.68l-.755 13.82c-.901 2.398-1.409 2.794-1.352 4.09.057 1.296-1.576 2.821 0 2.821z"
     fill="url(#paint23_linear)"
     id="path86" />
  <path
     d="M410.204 611.077s89.061-67.545 105.224-51.347c10.875 10.892 6.957 27.144 3.218 36.617-2.095 5.324-5.67 10.391-10.466 14.73-7.448 6.747-19.911 15.283-32.026 11.198-9.517-3.201-9.573-12.655-7.239-21.296 2.655-9.892 8.78-19.48 17.085-27.807 13.056-13.073 43.98-29.1 79.909-36.964"
     stroke="url(#paint24_linear)"
     stroke-width="2"
     stroke-miterlimit="10"
     stroke-dasharray="3.07 3.07"
     id="path88" />
  <path
     d="M541.362 533.78c-17.617-16.216-35.79-28.064-57.075-37.872.165 5.852.248 8.778.412 14.65-36.12 1.566-67.933 11.745-98.675 31.525 4.862 7.954 9.746 15.886 14.608 23.84 26.601-16.875 53.758-25.571 84.85-27.116.165 5.852.248 8.778.412 14.65 17.865-10.199 35.379-16.195 55.468-19.677z"
     fill="url(#paint25_linear)"
     id="path90" />
  <path
     d="M660.301 563.317h-13.858v2.894h13.858v-2.894z"
     fill="url(#paint26_linear)"
     id="path92" />
  <path
     d="M646.778 666.292a.986.986 0 01-.988.988.986.986 0 01-.988-.988c0-.547.441-.988.988-.988a.98.98 0 01.988.988z"
     fill="#fff"
     id="path94" />
  <path
     d="M415.621 687.395c5.335 0 9.659-5.938 9.659-13.263s-4.324-13.263-9.659-13.263c-5.335 0-9.66 5.938-9.66 13.263s4.325 13.263 9.66 13.263z"
     fill="#3E4039"
     id="path96" />
  <path
     d="M407.745 674.085c0 5.886 2.216 10.65 4.952 10.65 2.736 0 4.953-4.773 4.953-10.65 0-5.886-2.217-10.65-4.953-10.65-2.736-.01-4.952 4.764-4.952 10.65z"
     fill="#D6E3DD"
     id="path98" />
  <path
     d="M336.769 668.83c0 9.82 3.848 17.782 8.584 17.782 4.745 0 8.584-7.962 8.584-17.782s-3.849-17.781-8.584-17.781c-4.736 0-8.584 7.961-8.584 17.781z"
     fill="#3E4039"
     id="path100" />
  <path
     d="M338.381 669.208c0 6.566 1.519 11.895 3.377 11.895 1.868 0 3.378-5.329 3.378-11.895 0-6.565-1.51-11.895-3.378-11.895-1.867 0-3.377 5.33-3.377 11.895z"
     fill="#D6E3DD"
     id="path102" />
  <path
     d="M456.656 689.603c7.596 0 13.753-8.447 13.753-18.867 0-10.42-6.157-18.866-13.753-18.866s-13.754 8.446-13.754 18.866 6.158 18.867 13.754 18.867z"
     fill="#3E4039"
     id="path104" />
  <path
     d="M446.6 669.274c0 8.83 3.698 15.989 8.273 15.989 4.566 0 8.273-7.159 8.273-15.989 0-8.83-3.698-15.989-8.273-15.989-4.575.009-8.273 7.159-8.273 15.989z"
     fill="#D6E3DD"
     id="path106" />
  <path
     d="M370.35 689.555c6.919 0 12.528-8.447 12.528-18.866 0-10.42-5.609-18.867-12.528-18.867-6.918 0-12.527 8.447-12.527 18.867 0 10.419 5.609 18.866 12.527 18.866z"
     fill="#3E4039"
     id="path108" />
  <path
     d="M359.738 670.594c0 7.405 2.717 13.414 6.075 13.414s6.075-6.009 6.075-13.414c0-7.405-2.717-13.414-6.075-13.414s-6.075 6.009-6.075 13.414z"
     fill="#D6E3DD"
     id="path110" />
  <path
     d="M336.818 669.353s-1.02-19.53 1.719-17.548c0 0 3.401 3.181 3.212 12.083 0 0-.189 10.666 4.251 11.516l12.432 1.246s-2.154-7.911 1.946-16.972c0 0 .321-15.613 4.846-9.289.283.397.321.633.793 1.775 1.379 3.379 4.043 11.261 3.666 20.842l.028.085c.047.198.189.727.425 1.388l.009.028c.378 1.085 1.03 2.501 1.937 3.407 0 0 6.565.236 16.38.482 22.492.576 62.101 1.246 79.058-.633a49.727 49.727 0 004.194-.604s1.398-2.227 2.003-4.616c.217-.821.33-1.661.264-2.425 0 0-.056-17.18-4.402-24.165 0 0-1.842-9.458-9.068-13.026 0 0-2.126-2.02-5.281-4.918-7.746-7.127-21.651-19.577-25.137-20.389 0 0-27.773-8.118-60.269-2.832 0 0-10.58 1.642-18.269 9.817 0 0-1.757 2.303-3.448 5.692-1.247 2.511-2.447 5.635-2.853 8.854 0 0-.019.028-.066.066-.52.557-4.081 4.446-4.723 5.909-.737 1.69-2.523 10.308-3.345 14.027 0 .009-4.562 14.442-.302 20.2z"
     fill="url(#paint27_linear)"
     id="path112" />
  <path
     d="M458.613 627.509l.009.056c.078.14.349.719.378 1.931.01.392-1.55.504-1.55.504l-2.392-2.062-4.058-3.666c0-.009 4.552-1.651 7.613 3.237z"
     fill="#183964"
     id="path114" />
  <path
     d="M364.935 617.225s.614-6.712-1.943-7.171c0 0-2.009-.234-2.315.272-2.4 4.034-5.403 10.709-6.677 19.003 0 0 5.542 2.959 7.727 1.002 2.186-1.947 3.208-13.106 3.208-13.106z"
     fill="url(#paint28_linear)"
     id="path116" />
  <path
     d="M359.384 610.021s-8.973 4.527-11.384 14.756c0 0 4.421 1.533 4.893 1.166.473-.367 3.748-10.955 6.833-14.995 0-.009.804-1.111-.342-.927z"
     fill="url(#paint29_linear)"
     id="path118" />
  <path
     d="M445.605 629c1.244.029 1.876-1.544.961-2.428-5.052-4.922-13.433-14.543-17.665-16.174-1.754-.35-17.43-3.398-33.531-3.398-9.059 0-16.582.942-22.417 2.806-.565.184-.943.718-.952 1.33-.057 5.194 2.3 14.174 2.875 16.65a1.355 1.355 0 001.329 1.058c3.931-.019 17.053-.068 31.335-.068 19.786 0 31.306.097 38.065.224z"
     fill="url(#paint30_linear)"
     id="path120" />
  <path
     d="M456.023 638.532c1.926-2.062 3.909-5.532 3.909-5.532 2.654.784 4.524 2.146 5.855 3.694 3.409 3.974 3.211 9.188 3.211 9.188-.51.616-2.521.747-2.521.747C463.955 645.509 452 648 452 648s.416-6.343 4.023-9.468zM376.556 632s-3.791.772-4.452 3.331a3.212 3.212 0 00-.029 1.506s1.891 12.045 8.508 9.222c0 0 14.178.188 20.417.941 0 0-1.73-5.787-8.687-9.288 0 0-8.621-4.14-15.757-5.712z"
     fill="#D6E3DD"
     id="path122" />
  <path
     d="M409.729 666a.73.73 0 01-.729-.736v-8.528a.73.73 0 01.729-.736h37.542c.403 0 .729.335.729.736v8.528a.73.73 0 01-.729.736h-37.542z"
     fill="#fff"
     id="path124" />
  <path
     d="M441.6 660.52l-.868 2.792h.717l.538-1.877.509 1.877h.698l-.821-2.782.821-2.613h-.717l-.49 1.641-.472-1.641h-.708l.793 2.603zm-3.311 0l-.868 2.792h.717l.538-1.877.509 1.877h.708l-.83-2.782.82-2.613h-.707l-.5 1.641-.472-1.641h-.707l.792 2.603zm-6.773 0l-.877 2.792h.726l.528-1.877.51 1.877h.707l-.821-2.782.812-2.613h-.708l-.5 1.641-.462-1.641h-.717l.802 2.603zm-3.311 0l-.868 2.792h.717l.528-1.877.519 1.877h.698l-.821-2.782.821-2.613h-.717l-.5 1.641-.462-1.641h-.708l.793 2.603zm-3.311 0l-.868 2.792h.717l.538-1.877.509 1.877h.698l-.82-2.782.82-2.613h-.717l-.49 1.641-.472-1.641h-.707l.792 2.603zm-6.783 0l-.868 2.792h.717l.538-1.877.509 1.877h.708l-.83-2.782.82-2.613h-.707l-.5 1.641-.462-1.641h-.717l.792 2.603zm-4.179 2.792h.717l.538-1.877.519 1.877h.698l-.83-2.782.82-2.613h-.707l-.5 1.641-.462-1.641h-.717l.802 2.603-.878 2.792zm22.225-3.018v.641h-1.792v-.641h1.792zm-13.461 0v.641h-1.793v-.641h1.793z"
     fill="#979797"
     id="path126" />
  <path
     d="M445.42 665.878h2.349a.75.75 0 00.746-.755v-8.754a.749.749 0 00-.746-.754h-2.349v10.263zm-36.799-9.509v8.754c0 .415.33.755.746.755h2.348v-10.273h-2.348a.763.763 0 00-.746.764z"
     fill="#183964"
     id="path128" />
  <path
     d="M434 622c-2.375-.809-4.582-1.892-6.761-3.045-2.16-1.183-4.274-2.428-6.239-3.955 2.375.809 4.582 1.892 6.761 3.045 2.151 1.183 4.274 2.428 6.239 3.955zm-14 0c-2.375-.694-4.582-1.621-6.761-2.61-2.16-1.014-4.283-2.081-6.239-3.39 2.375.694 4.582 1.621 6.761 2.61 2.151 1.006 4.274 2.081 6.239 3.39zm11 2c-3.528-1.328-6.909-2.907-10.253-4.562-3.326-1.675-6.615-3.426-9.747-5.438 3.528 1.319 6.909 2.907 10.253 4.562 3.317 1.684 6.606 3.426 9.747 5.438z"
     fill="#CAC9C9"
     id="path130" />
  <path
     d="M364 629.676l-.788 2.086s-12.852 1.364-16.201-2.434c0 0-.873-8.628 13.011-5.735 1.53.322.066 5.796.066 5.796s2.533.695 3.912.287z"
     fill="#183964"
     id="path132" />
  <path
     d="M613.851 487.116h-18.869v17.394h18.869v-17.394z"
     fill="#FEEBD7"
     id="path134" />
  <path
     d="M503.527 666.113a36.872 36.872 0 0111.978.918c2.452-11.992 12.534-21.472 25.369-22.585.301-.03.632-.046.933-.061 2.874-18.823 19.139-33.238 38.76-33.238 15.017 0 28.063 8.441 34.653 20.84h.015a49.199 49.199 0 0114.37-2.137c27.069 0 49.022 21.953 49.022 49.038 0 3.671-.406 7.237-1.173 10.683H472.486c4.83-12.715 16.581-22.194 31.041-23.458z"
     fill="#009045"
     id="path136" />
  <path
     d="M642.681 672.523a26.527 26.527 0 018.697.662c1.79-8.712 9.118-15.603 18.432-16.416l.677-.045c2.092-13.678 13.903-24.15 28.168-24.15 10.909 0 20.388 6.139 25.173 15.152h.015a35.645 35.645 0 0110.443-1.55c19.666 0 35.616 15.95 35.616 35.631 0 2.663-.286 5.266-.843 7.764H620.125c3.521-9.239 12.053-16.13 22.556-17.048z"
     fill="#7CB928"
     id="path138" />
  <path
     d="M692.531 660.892a55.04 55.04 0 00-3.025-6.711c.211-1.399.346-2.829.346-4.288 0-3.446-.617-6.726-1.73-9.781-2.257-6.169-6.591-11.3-12.143-14.61-7.373-15.589-23.232-26.407-41.65-26.407-18.913 0-35.134 11.39-42.236 27.671-.12.286-.211.587-.331.857a48.022 48.022 0 00-15.604-1.188c-.948.075-1.911.21-2.843.331-24 3.536-41.665 24.496-41.003 48.752 0 .451.045.857.075 1.294-1.82-.828-3.807-1.325-5.943-1.325-.181 0-.361 0-.542.031-7.538.285-13.542 6.44-13.542 14.053h182.352a54.015 54.015 0 001.009-10.442 52.3 52.3 0 00-3.19-18.237z"
     fill="#7CB928"
     id="path140" />
  <path
     d="M710.647 553.186h-3.175v-4.138h-138.25v4.138h-3.175v8.321h3.175v128.064h138.25V561.507h3.175v-8.321z"
     fill="#FEEBD7"
     id="path142" />
  <path
     d="M715.522 555.458H561.157l1.52-4.514 6.831-20.343 8.772-26.077h120.134l2.964 8.788 12.64 37.632 1.504 4.514z"
     fill="url(#paint31_linear)"
     id="path144" />
  <path
     d="M615.461 631.55v55.087H586.36V631.55h29.101zm2.934-2.934h-34.969v60.955h34.969v-60.955z"
     fill="#fff"
     id="path146" />
  <path
     d="M615.461 631.55h-29.1v55.086h29.1V631.55z"
     fill="url(#paint32_linear)"
     id="path148" />
  <path
     d="M704.177 639.661h-78.56l3.16-9.405h72.21l1.79 5.267 1.4 4.138z"
     fill="url(#paint33_linear)"
     id="path150" />
  <path
     d="M689.642 581.564h-56.983v36.203h56.983v-36.203z"
     fill="#63849C"
     id="path152" />
  <path
     d="M689.642 581.565v36.203h-56.983v-36.203h56.983zm2.934-2.934h-62.851v42.071h62.851v-42.071z"
     fill="#fff"
     id="path154" />
  <path
     d="M662.723 581.564h-2.934v36.203h2.934v-36.203z"
     fill="#fff"
     id="path156" />
  <path
     d="M688.724 647.244h-46.435v29.492h46.435v-29.492z"
     fill="#63849C"
     id="path158" />
  <path
     d="M688.724 647.245v29.491h-46.435v-29.491h46.435zm2.934-2.92h-52.303v35.36h52.303v-35.36z"
     fill="#fff"
     id="path160" />
  <path
     d="M614.769 581.564h-27.731v36.203h27.731v-36.203z"
     fill="#63849C"
     id="path162" />
  <path
     d="M614.769 581.565v36.203h-27.732v-36.203h27.732zm2.934-2.934h-33.6v42.071h33.6v-42.071zm11.082-43.213a5.355 5.355 0 01-5.359 5.359 5.355 5.355 0 01-5.359-5.359 5.354 5.354 0 015.359-5.359 5.362 5.362 0 015.359 5.359z"
     fill="#fff"
     id="path164" />
  <path
     d="M623.666 532.227c-.076 0-.152-.025-.227-.025a3.213 3.213 0 00-3.216 3.215 3.213 3.213 0 003.216 3.215 3.213 3.213 0 003.215-3.215c0-.214-.025-.416-.063-.618-1.74-.075-2.572-1.185-2.925-2.572z"
     fill="#183964"
     id="path166" />
  <path
     d="M660.233 535.417a5.355 5.355 0 01-5.359 5.359 5.355 5.355 0 01-5.359-5.359 5.354 5.354 0 015.359-5.359 5.37 5.37 0 015.359 5.359z"
     fill="#fff"
     id="path168" />
  <path
     d="M655.101 532.227c-.076 0-.151-.025-.227-.025a3.212 3.212 0 00-3.215 3.215 3.212 3.212 0 003.215 3.215 3.212 3.212 0 003.215-3.215c0-.214-.025-.416-.063-.618-1.74-.075-2.572-1.185-2.925-2.572z"
     fill="#183964"
     id="path170" />
  <path
     d="M638.999 541.608c2.774 0 4.438-2.22 4.993-3.884.555-1.664-.555-1.664-.555-1.664h-8.877s-1.109 0-.555 1.664c.555 1.664 2.22 3.884 4.994 3.884z"
     fill="#fff"
     id="path172" />
  <path
     d="M711.354 431.581c0-16.517-17.352-26.981-35.045-18.699-3.994 1.873-7.307 5.031-9.304 8.916-4.458 8.622-2.492 18.467 1.548 26.64l13.777 34.907c1.981 5.03 9.117 4.999 11.052-.047l13.499-35.076c4.674-10.697 4.473-16.641 4.473-16.641zm-16.625 14.365c-11.888 6.919-23.947-5.867-17.43-18.482a10.035 10.035 0 013.777-4.01c11.888-6.919 23.947 5.867 17.43 18.483-.867 1.687-2.198 3.096-3.777 4.009z"
     fill="url(#paint34_linear)"
     id="path174" />
  <defs
     id="defs562">
    <linearGradient
       id="paint0_linear"
       x1="532.31"
       y1="393.597"
       x2="918.459"
       y2="8.267"
       gradientUnits="userSpaceOnUse">
      <stop
         stop-color="#FFDC2E"
         id="stop176" />
      <stop
         offset=".09"
         stop-color="#FFE359"
         id="stop178" />
      <stop
         offset=".199"
         stop-color="#FFEA84"
         id="stop180" />
      <stop
         offset=".312"
         stop-color="#FFF1AA"
         id="stop182" />
      <stop
         offset=".43"
         stop-color="#FFF6C9"
         id="stop184" />
      <stop
         offset=".552"
         stop-color="#FFFAE1"
         id="stop186" />
      <stop
         offset=".682"
         stop-color="#FFFDF2"
         id="stop188" />
      <stop
         offset=".824"
         stop-color="#FFFEFC"
         id="stop190" />
      <stop
         offset="1"
         stop-color="#fff"
         id="stop192" />
    </linearGradient>
    <linearGradient
       id="paint1_linear"
       x1="31.747"
       y1="619.681"
       x2="31.747"
       y2="692.618"
       gradientUnits="userSpaceOnUse">
      <stop
         stop-color="#B3FFFF"
         id="stop195" />
      <stop
         offset=".069"
         stop-color="#BDFFFF"
         id="stop197" />
      <stop
         offset=".306"
         stop-color="#DAFFFF"
         id="stop199" />
      <stop
         offset=".543"
         stop-color="#EFF"
         id="stop201" />
      <stop
         offset=".775"
         stop-color="#FBFFFF"
         id="stop203" />
      <stop
         offset="1"
         stop-color="#fff"
         id="stop205" />
    </linearGradient>
    <linearGradient
       id="paint2_linear"
       x1="77.88"
       y1="571.888"
       x2="77.88"
       y2="616.273"
       gradientUnits="userSpaceOnUse">
      <stop
         stop-color="#B3FFFF"
         id="stop208" />
      <stop
         offset=".069"
         stop-color="#BDFFFF"
         id="stop210" />
      <stop
         offset=".306"
         stop-color="#DAFFFF"
         id="stop212" />
      <stop
         offset=".543"
         stop-color="#EFF"
         id="stop214" />
      <stop
         offset=".775"
         stop-color="#FBFFFF"
         id="stop216" />
      <stop
         offset="1"
         stop-color="#fff"
         id="stop218" />
    </linearGradient>
    <linearGradient
       id="paint3_linear"
       x1="206.286"
       y1="536.943"
       x2="206.286"
       y2="558.631"
       gradientUnits="userSpaceOnUse">
      <stop
         stop-color="#B3FFFF"
         id="stop221" />
      <stop
         offset=".069"
         stop-color="#BDFFFF"
         id="stop223" />
      <stop
         offset=".306"
         stop-color="#DAFFFF"
         id="stop225" />
      <stop
         offset=".543"
         stop-color="#EFF"
         id="stop227" />
      <stop
         offset=".775"
         stop-color="#FBFFFF"
         id="stop229" />
      <stop
         offset="1"
         stop-color="#fff"
         id="stop231" />
    </linearGradient>
    <linearGradient
       id="paint4_linear"
       x1="30.393"
       y1="584.222"
       x2="30.393"
       y2="616.502"
       gradientUnits="userSpaceOnUse">
      <stop
         stop-color="#B3FFFF"
         id="stop234" />
      <stop
         offset=".069"
         stop-color="#BDFFFF"
         id="stop236" />
      <stop
         offset=".306"
         stop-color="#DAFFFF"
         id="stop238" />
      <stop
         offset=".543"
         stop-color="#EFF"
         id="stop240" />
      <stop
         offset=".775"
         stop-color="#FBFFFF"
         id="stop242" />
      <stop
         offset="1"
         stop-color="#fff"
         id="stop244" />
    </linearGradient>
    <linearGradient
       id="paint5_linear"
       x1="324.818"
       y1="513.273"
       x2="324.818"
       y2="568.314"
       gradientUnits="userSpaceOnUse">
      <stop
         stop-color="#B3FFFF"
         id="stop247" />
      <stop
         offset=".069"
         stop-color="#BDFFFF"
         id="stop249" />
      <stop
         offset=".306"
         stop-color="#DAFFFF"
         id="stop251" />
      <stop
         offset=".543"
         stop-color="#EFF"
         id="stop253" />
      <stop
         offset=".775"
         stop-color="#FBFFFF"
         id="stop255" />
      <stop
         offset="1"
         stop-color="#fff"
         id="stop257" />
    </linearGradient>
    <linearGradient
       id="paint6_linear"
       x1="301.315"
       y1="603.547"
       x2="292.581"
       y2="554.016"
       gradientUnits="userSpaceOnUse">
      <stop
         stop-color="#B6DD54"
         id="stop260" />
      <stop
         offset=".143"
         stop-color="#B2DC54"
         id="stop262" />
      <stop
         offset=".292"
         stop-color="#A5D753"
         id="stop264" />
      <stop
         offset=".443"
         stop-color="#91D051"
         id="stop266" />
      <stop
         offset=".595"
         stop-color="#74C64F"
         id="stop268" />
      <stop
         offset=".749"
         stop-color="#4EB94D"
         id="stop270" />
      <stop
         offset=".902"
         stop-color="#21A949"
         id="stop272" />
      <stop
         offset="1"
         stop-color="#009E47"
         id="stop274" />
    </linearGradient>
    <linearGradient
       id="paint7_linear"
       x1="335.276"
       y1="646.229"
       x2="385.571"
       y2="646.229"
       gradientUnits="userSpaceOnUse">
      <stop
         stop-color="#B6DD54"
         id="stop277" />
      <stop
         offset=".143"
         stop-color="#B2DC54"
         id="stop279" />
      <stop
         offset=".292"
         stop-color="#A5D753"
         id="stop281" />
      <stop
         offset=".443"
         stop-color="#91D051"
         id="stop283" />
      <stop
         offset=".595"
         stop-color="#74C64F"
         id="stop285" />
      <stop
         offset=".749"
         stop-color="#4EB94D"
         id="stop287" />
      <stop
         offset=".902"
         stop-color="#21A949"
         id="stop289" />
      <stop
         offset="1"
         stop-color="#009E47"
         id="stop291" />
    </linearGradient>
    <linearGradient
       id="paint8_linear"
       x1="268.383"
       y1="634.34"
       x2="293.126"
       y2="654.622"
       gradientUnits="userSpaceOnUse">
      <stop
         stop-color="#302926"
         stop-opacity="0"
         id="stop294" />
      <stop
         offset=".388"
         stop-color="#2D2724"
         stop-opacity=".027"
         id="stop296" />
      <stop
         offset=".621"
         stop-color="#25201D"
         stop-opacity=".043"
         id="stop298" />
      <stop
         offset=".812"
         stop-color="#171412"
         stop-opacity=".059"
         id="stop300" />
      <stop
         offset=".981"
         stop-color="#030202"
         stop-opacity=".071"
         id="stop302" />
      <stop
         offset="1"
         stop-opacity=".071"
         id="stop304" />
    </linearGradient>
    <linearGradient
       id="paint9_linear"
       x1="288.606"
       y1="616.109"
       x2="320.465"
       y2="643.543"
       gradientUnits="userSpaceOnUse">
      <stop
         stop-color="#B6DD54"
         id="stop307" />
      <stop
         offset="1"
         stop-color="#009E47"
         id="stop309" />
    </linearGradient>
    <linearGradient
       id="paint10_linear"
       x1="333.52"
       y1="624.161"
       x2="321.706"
       y2="648.717"
       gradientUnits="userSpaceOnUse">
      <stop
         stop-color="#302926"
         stop-opacity="0"
         id="stop312" />
      <stop
         offset=".388"
         stop-color="#2D2724"
         stop-opacity=".027"
         id="stop314" />
      <stop
         offset=".621"
         stop-color="#25201D"
         stop-opacity=".043"
         id="stop316" />
      <stop
         offset=".812"
         stop-color="#171412"
         stop-opacity=".059"
         id="stop318" />
      <stop
         offset=".981"
         stop-color="#030202"
         stop-opacity=".071"
         id="stop320" />
      <stop
         offset="1"
         stop-opacity=".071"
         id="stop322" />
    </linearGradient>
    <linearGradient
       id="paint11_linear"
       x1="331.079"
       y1="695.438"
       x2="321.26"
       y2="695.438"
       gradientUnits="userSpaceOnUse">
      <stop
         stop-color="#B16464"
         id="stop325" />
      <stop
         offset=".59"
         stop-color="#9C6764"
         id="stop327" />
      <stop
         offset="1"
         stop-color="#936864"
         id="stop329" />
    </linearGradient>
    <linearGradient
       id="paint12_linear"
       x1="280.947"
       y1="603.546"
       x2="272.213"
       y2="554.015"
       gradientUnits="userSpaceOnUse">
      <stop
         stop-color="#B6DD54"
         id="stop332" />
      <stop
         offset=".143"
         stop-color="#B2DC54"
         id="stop334" />
      <stop
         offset=".292"
         stop-color="#A5D753"
         id="stop336" />
      <stop
         offset=".443"
         stop-color="#91D051"
         id="stop338" />
      <stop
         offset=".595"
         stop-color="#74C64F"
         id="stop340" />
      <stop
         offset=".749"
         stop-color="#4EB94D"
         id="stop342" />
      <stop
         offset=".902"
         stop-color="#21A949"
         id="stop344" />
      <stop
         offset="1"
         stop-color="#009E47"
         id="stop346" />
    </linearGradient>
    <linearGradient
       id="paint13_linear"
       x1="314.908"
       y1="646.228"
       x2="365.203"
       y2="646.228"
       gradientUnits="userSpaceOnUse">
      <stop
         stop-color="#B6DD54"
         id="stop349" />
      <stop
         offset=".143"
         stop-color="#B2DC54"
         id="stop351" />
      <stop
         offset=".292"
         stop-color="#A5D753"
         id="stop353" />
      <stop
         offset=".443"
         stop-color="#91D051"
         id="stop355" />
      <stop
         offset=".595"
         stop-color="#74C64F"
         id="stop357" />
      <stop
         offset=".749"
         stop-color="#4EB94D"
         id="stop359" />
      <stop
         offset=".902"
         stop-color="#21A949"
         id="stop361" />
      <stop
         offset="1"
         stop-color="#009E47"
         id="stop363" />
    </linearGradient>
    <linearGradient
       id="paint14_linear"
       x1="248.015"
       y1="634.339"
       x2="272.759"
       y2="654.622"
       gradientUnits="userSpaceOnUse">
      <stop
         stop-color="#302926"
         stop-opacity="0"
         id="stop366" />
      <stop
         offset=".388"
         stop-color="#2D2724"
         stop-opacity=".027"
         id="stop368" />
      <stop
         offset=".621"
         stop-color="#25201D"
         stop-opacity=".043"
         id="stop370" />
      <stop
         offset=".812"
         stop-color="#171412"
         stop-opacity=".059"
         id="stop372" />
      <stop
         offset=".981"
         stop-color="#030202"
         stop-opacity=".071"
         id="stop374" />
      <stop
         offset="1"
         stop-opacity=".071"
         id="stop376" />
    </linearGradient>
    <linearGradient
       id="paint15_linear"
       x1="268.238"
       y1="616.109"
       x2="300.097"
       y2="643.542"
       gradientUnits="userSpaceOnUse">
      <stop
         stop-color="#B6DD54"
         id="stop379" />
      <stop
         offset="1"
         stop-color="#009E47"
         id="stop381" />
    </linearGradient>
    <linearGradient
       id="paint16_linear"
       x1="313.152"
       y1="624.16"
       x2="301.338"
       y2="648.716"
       gradientUnits="userSpaceOnUse">
      <stop
         stop-color="#302926"
         stop-opacity="0"
         id="stop384" />
      <stop
         offset=".388"
         stop-color="#2D2724"
         stop-opacity=".027"
         id="stop386" />
      <stop
         offset=".621"
         stop-color="#25201D"
         stop-opacity=".043"
         id="stop388" />
      <stop
         offset=".812"
         stop-color="#171412"
         stop-opacity=".059"
         id="stop390" />
      <stop
         offset=".981"
         stop-color="#030202"
         stop-opacity=".071"
         id="stop392" />
      <stop
         offset="1"
         stop-opacity=".071"
         id="stop394" />
    </linearGradient>
    <linearGradient
       id="paint17_linear"
       x1="310.711"
       y1="695.437"
       x2="300.892"
       y2="695.437"
       gradientUnits="userSpaceOnUse">
      <stop
         stop-color="#B16464"
         id="stop397" />
      <stop
         offset=".59"
         stop-color="#9C6764"
         id="stop399" />
      <stop
         offset="1"
         stop-color="#936864"
         id="stop401" />
    </linearGradient>
    <linearGradient
       id="paint18_linear"
       x1="252.237"
       y1="602.983"
       x2="243.503"
       y2="553.452"
       gradientUnits="userSpaceOnUse">
      <stop
         stop-color="#B6DD54"
         id="stop404" />
      <stop
         offset=".143"
         stop-color="#B2DC54"
         id="stop406" />
      <stop
         offset=".292"
         stop-color="#A5D753"
         id="stop408" />
      <stop
         offset=".443"
         stop-color="#91D051"
         id="stop410" />
      <stop
         offset=".595"
         stop-color="#74C64F"
         id="stop412" />
      <stop
         offset=".749"
         stop-color="#4EB94D"
         id="stop414" />
      <stop
         offset=".902"
         stop-color="#21A949"
         id="stop416" />
      <stop
         offset="1"
         stop-color="#009E47"
         id="stop418" />
    </linearGradient>
    <linearGradient
       id="paint19_linear"
       x1="286.198"
       y1="645.665"
       x2="336.493"
       y2="645.665"
       gradientUnits="userSpaceOnUse">
      <stop
         stop-color="#B6DD54"
         id="stop421" />
      <stop
         offset=".143"
         stop-color="#B2DC54"
         id="stop423" />
      <stop
         offset=".292"
         stop-color="#A5D753"
         id="stop425" />
      <stop
         offset=".443"
         stop-color="#91D051"
         id="stop427" />
      <stop
         offset=".595"
         stop-color="#74C64F"
         id="stop429" />
      <stop
         offset=".749"
         stop-color="#4EB94D"
         id="stop431" />
      <stop
         offset=".902"
         stop-color="#21A949"
         id="stop433" />
      <stop
         offset="1"
         stop-color="#009E47"
         id="stop435" />
    </linearGradient>
    <linearGradient
       id="paint20_linear"
       x1="219.304"
       y1="633.776"
       x2="244.048"
       y2="654.058"
       gradientUnits="userSpaceOnUse">
      <stop
         stop-color="#302926"
         stop-opacity="0"
         id="stop438" />
      <stop
         offset=".388"
         stop-color="#2D2724"
         stop-opacity=".027"
         id="stop440" />
      <stop
         offset=".621"
         stop-color="#25201D"
         stop-opacity=".043"
         id="stop442" />
      <stop
         offset=".812"
         stop-color="#171412"
         stop-opacity=".059"
         id="stop444" />
      <stop
         offset=".981"
         stop-color="#030202"
         stop-opacity=".071"
         id="stop446" />
      <stop
         offset="1"
         stop-opacity=".071"
         id="stop448" />
    </linearGradient>
    <linearGradient
       id="paint21_linear"
       x1="239.527"
       y1="615.545"
       x2="271.387"
       y2="642.979"
       gradientUnits="userSpaceOnUse">
      <stop
         stop-color="#B6DD54"
         id="stop451" />
      <stop
         offset="1"
         stop-color="#009E47"
         id="stop453" />
    </linearGradient>
    <linearGradient
       id="paint22_linear"
       x1="284.441"
       y1="623.597"
       x2="272.627"
       y2="648.152"
       gradientUnits="userSpaceOnUse">
      <stop
         stop-color="#302926"
         stop-opacity="0"
         id="stop456" />
      <stop
         offset=".388"
         stop-color="#2D2724"
         stop-opacity=".027"
         id="stop458" />
      <stop
         offset=".621"
         stop-color="#25201D"
         stop-opacity=".043"
         id="stop460" />
      <stop
         offset=".812"
         stop-color="#171412"
         stop-opacity=".059"
         id="stop462" />
      <stop
         offset=".981"
         stop-color="#030202"
         stop-opacity=".071"
         id="stop464" />
      <stop
         offset="1"
         stop-opacity=".071"
         id="stop466" />
    </linearGradient>
    <linearGradient
       id="paint23_linear"
       x1="282.001"
       y1="694.874"
       x2="272.182"
       y2="694.874"
       gradientUnits="userSpaceOnUse">
      <stop
         stop-color="#B16464"
         id="stop469" />
      <stop
         offset=".59"
         stop-color="#9C6764"
         id="stop471" />
      <stop
         offset="1"
         stop-color="#936864"
         id="stop473" />
    </linearGradient>
    <linearGradient
       id="paint24_linear"
       x1="459.668"
       y1="597.489"
       x2="568.457"
       y2="549.053"
       gradientUnits="userSpaceOnUse">
      <stop
         stop-color="#F39121"
         id="stop476" />
      <stop
         offset=".272"
         stop-color="#F39121"
         id="stop478" />
      <stop
         offset=".964"
         stop-color="#F8AE3C"
         id="stop480" />
      <stop
         offset="1"
         stop-color="#F8AE3C"
         id="stop482" />
    </linearGradient>
    <linearGradient
       id="paint25_linear"
       x1="387.812"
       y1="529.118"
       x2="538.994"
       y2="550.396"
       gradientUnits="userSpaceOnUse">
      <stop
         stop-color="#46AE4D"
         id="stop485" />
      <stop
         offset=".262"
         stop-color="#46AE4D"
         id="stop487" />
      <stop
         offset=".761"
         stop-color="#009045"
         id="stop489" />
      <stop
         offset="1"
         stop-color="#009045"
         id="stop491" />
    </linearGradient>
    <linearGradient
       id="paint26_linear"
       x1="647.87"
       y1="550.439"
       x2="663.646"
       y2="591.537"
       gradientUnits="userSpaceOnUse">
      <stop
         stop-color="#EB5B2D"
         id="stop494" />
      <stop
         offset="1"
         stop-color="#BF292E"
         id="stop496" />
    </linearGradient>
    <linearGradient
       id="paint27_linear"
       x1="473.989"
       y1="641.008"
       x2="335"
       y2="641.008"
       gradientUnits="userSpaceOnUse">
      <stop
         stop-color="#0A72B9"
         id="stop499" />
      <stop
         offset=".279"
         stop-color="#0A72B9"
         id="stop501" />
      <stop
         offset=".773"
         stop-color="#0C4D86"
         id="stop503" />
      <stop
         offset="1"
         stop-color="#0C4D86"
         id="stop505" />
    </linearGradient>
    <linearGradient
       id="paint28_linear"
       x1="364.995"
       y1="620.496"
       x2="354.003"
       y2="620.496"
       gradientUnits="userSpaceOnUse">
      <stop
         offset=".279"
         stop-color="#fff"
         id="stop508" />
      <stop
         offset="1"
         stop-color="#9FD8F0"
         id="stop510" />
    </linearGradient>
    <linearGradient
       id="paint29_linear"
       x1="359.997"
       y1="617.999"
       x2="347.999"
       y2="617.999"
       gradientUnits="userSpaceOnUse">
      <stop
         offset=".279"
         stop-color="#fff"
         id="stop513" />
      <stop
         offset="1"
         stop-color="#9FD8F0"
         id="stop515" />
    </linearGradient>
    <linearGradient
       id="paint30_linear"
       x1="436.467"
       y1="615.644"
       x2="345.535"
       y2="626.167"
       gradientUnits="userSpaceOnUse">
      <stop
         offset=".279"
         stop-color="#fff"
         id="stop518" />
      <stop
         offset="1"
         stop-color="#9FD8F0"
         id="stop520" />
    </linearGradient>
    <linearGradient
       id="paint31_linear"
       x1="602.807"
       y1="459.7"
       x2="629.714"
       y2="529.801"
       gradientUnits="userSpaceOnUse">
      <stop
         stop-color="#EB5B2D"
         id="stop523" />
      <stop
         offset="1"
         stop-color="#BF292E"
         id="stop525" />
    </linearGradient>
    <linearGradient
       id="paint32_linear"
       x1="597.195"
       y1="645.438"
       x2="612.065"
       y2="700.137"
       gradientUnits="userSpaceOnUse">
      <stop
         stop-color="#F39121"
         id="stop528" />
      <stop
         offset=".272"
         stop-color="#F39121"
         id="stop530" />
      <stop
         offset=".964"
         stop-color="#F8AE3C"
         id="stop532" />
      <stop
         offset="1"
         stop-color="#F8AE3C"
         id="stop534" />
    </linearGradient>
    <linearGradient
       id="paint33_linear"
       x1="660.132"
       y1="624.845"
       x2="672.878"
       y2="664.497"
       gradientUnits="userSpaceOnUse">
      <stop
         stop-color="#EB5B2D"
         id="stop537" />
      <stop
         offset="1"
         stop-color="#BF292E"
         id="stop539" />
    </linearGradient>
    <linearGradient
       id="paint34_linear"
       x1="664.458"
       y1="448.537"
       x2="711.357"
       y2="448.537"
       gradientUnits="userSpaceOnUse">
      <stop
         stop-color="#EB5B2D"
         id="stop542" />
      <stop
         offset="1"
         stop-color="#BF292E"
         id="stop544" />
    </linearGradient>
    <filter
       id="filter0_d"
       x="123.149"
       y="573.202"
       width="159.454"
       height="25.692"
       filterUnits="userSpaceOnUse"
       color-interpolation-filters="sRGB">
      <feFlood
         flood-opacity="0"
         result="BackgroundImageFix"
         id="feFlood547" />
      <feColorMatrix
         in="SourceAlpha"
         values="0 0 0 0 0 0 0 0 0 0 0 0 0 0 0 0 0 0 127 0"
         id="feColorMatrix549" />
      <feOffset
         dy="4"
         id="feOffset551" />
      <feGaussianBlur
         stdDeviation="2"
         id="feGaussianBlur553" />
      <feColorMatrix
         values="0 0 0 0 0 0 0 0 0 0 0 0 0 0 0 0 0 0 0.25 0"
         id="feColorMatrix555" />
      <feBlend
         in2="BackgroundImageFix"
         result="effect1_dropShadow"
         id="feBlend557" />
      <feBlend
         in="SourceGraphic"
         in2="effect1_dropShadow"
         result="shape"
         id="feBlend559" />
    </filter>
  </defs>
  <g
     id="#000000ff"
     transform="matrix(0.13080926,0,0,0.14141693,158.28837,598.30085)">
    <path
       fill="#000000"
       opacity="1"
       d="M 0,0 H 600 V 215 H 0 V 0 m 344.71,75.92 c -3.61,4.57 -6.19,9.8 -8.32,15.2 -4.22,14.39 -3.39,30.95 4.83,43.8 8.6,15.69 27.21,24.24 44.74,23.66 15.1,0.5 29.88,-5.33 41.57,-14.7 0.2,-0.71 0.59,-2.12 0.78,-2.83 0.16,-13.62 0,-27.24 0.07,-40.86 -14.37,-0.06 -28.74,-0.03 -43.11,-0.02 0.04,6.36 -0.08,12.71 0.12,19.06 7.13,-0.02 14.27,0 21.4,-0.02 0,4.68 0.01,9.37 -0.01,14.05 -7.71,5.11 -17.21,6.13 -26.21,5.2 -5.51,-1.51 -10.92,-3.91 -14.95,-8.06 -2.21,-2.09 -3.46,-4.96 -5.6,-7.1 -1.21,-4.09 -2.76,-8.13 -3.11,-12.42 -0.61,-3.67 0.37,-7.3 0.6,-10.95 1.74,-5.25 4.01,-10.47 7.97,-14.46 4.86,-5.34 11.87,-7.98 18.88,-8.97 4.58,0.46 9.26,0.78 13.61,2.39 4.88,1.67 9.04,4.81 13.09,7.91 4.59,-5.56 9.36,-10.98 13.78,-16.68 -6.53,-5.44 -14.06,-9.84 -22.4,-11.75 -8.63,-1.9 -17.64,-2.41 -26.37,-0.91 -12.25,2.07 -23.62,8.74 -31.36,18.46 M 155.96,58.53 c 2.06,5.43 4.34,10.78 6.47,16.19 2.01,5 4.05,9.98 6.02,14.99 2.76,6.49 5.09,13.16 8.1,19.54 5.85,15.67 12.49,31.09 18.61,46.68 0.35,2.82 3.48,1.55 5.4,1.86 7.18,-18.51 14.67,-36.92 21.56,-55.52 2.94,-6.99 5.81,-14.05 8.32,-21.2 2.44,-5.9 4.93,-11.81 7,-17.85 0.79,-1.56 1.51,-3.15 2.24,-4.73 -2.44,-0.08 -4.88,-0.11 -7.32,-0.11 -2.25,5.58 -4.23,11.28 -6.72,16.76 -2.1,-5.58 -4.13,-11.18 -6.26,-16.74 -8.2,-0.02 -16.4,-0.1 -24.59,0.04 5.86,14.67 11.77,29.33 17.77,43.94 0.5,1.15 0.87,2.33 1.12,3.55 -1.79,5.93 -4.77,11.44 -6.37,17.44 -0.12,0.16 -0.37,0.47 -0.49,0.63 -0.31,1 -0.61,2.02 -0.91,3.03 -2.82,-6.7 -5.15,-13.59 -7.75,-20.37 l -0.19,-0.06 c -2.68,-8.01 -5.73,-15.9 -8.77,-23.78 -1.16,-3.85 -2.91,-7.5 -4.02,-11.37 l -0.25,0.15 c -1.41,-4.42 -3.06,-8.76 -4.76,-13.07 -8.07,-0.03 -16.14,-0.03 -24.21,0 m 92.13,0.07 c -4.68,13.1 -10.21,25.88 -14.88,38.97 l -0.28,-0.19 c -7.47,20.24 -15.75,40.17 -23.35,60.36 2.26,0.01 4.51,0.02 6.77,0.02 3.27,-7.6 5.73,-15.53 9.35,-22.96 3.03,7.63 6.26,15.18 9.13,22.87 6.53,0.18 13.06,0.09 19.6,0.07 7.31,-18.23 14.84,-36.4 21.96,-54.71 2.76,-6.61 5.62,-13.2 8.01,-19.95 3.52,-8.11 6.74,-16.34 10.02,-24.54 -7.91,-0.07 -15.82,-0.02 -23.72,-0.03 -1.8,5.14 -4,10.14 -5.61,15.33 -3.07,7.92 -6.24,15.84 -8.79,23.94 L 256,97.42 c -3.37,10.05 -7.21,19.94 -11.03,29.82 -2.52,-6.51 -4.99,-13.05 -7.39,-19.61 -0.93,-2.13 0.32,-4.3 0.68,-6.4 5.98,-14.11 11.33,-28.48 16.93,-42.74 -2.37,0.01 -4.74,0.03 -7.1,0.11 m 53.71,-0.03 c 0.05,32.97 0.07,65.95 -0.01,98.92 7.33,0.46 14.67,0.15 22,0.21 0.14,-25.56 -0.02,-51.12 0.13,-76.68 0.18,-7.54 0.33,-15.08 -0.02,-22.62 -7.37,0.04 -14.74,-0.22 -22.1,0.17 m 145.09,20.19 c -6.64,8.92 -9.35,20.15 -9.11,31.15 0.1,18.75 11.93,36.69 29.08,44.23 10.25,5 21.98,5.34 33.11,4.13 13.9,-2.26 27.23,-10.27 34.63,-22.38 3.87,-4.79 6.18,-10.78 7.11,-16.83 2.22,-8.01 0.55,-16.47 0.48,-24.6 -0.24,0 -0.73,0.01 -0.97,0.01 l 0.22,-0.31 c -0.63,-1.63 -1.2,-3.26 -1.77,-4.89 -4.53,-11.72 -13.64,-21.56 -24.97,-26.96 -10.37,-5.2 -22.29,-5.96 -33.64,-4.61 -13.58,2.13 -26.27,9.76 -34.17,21.06 M 70.38,157.75 c 25.2,0.08 50.39,0.07 75.59,0 0.24,-6.62 0.29,-13.27 -0.06,-19.89 -17.86,-0.17 -35.72,0.01 -53.59,-0.09 -0.12,-6.73 0.29,-13.48 -0.25,-20.2 14.79,-0.1 29.59,0.04 44.39,-0.06 0,-6.6 0.05,-13.2 -0.03,-19.8 -14.74,-0.07 -29.49,0.12 -44.23,-0.08 0.08,-6.55 0.01,-13.1 0.06,-19.65 17.65,-0.18 35.31,0.06 52.97,-0.13 0,-6.44 0,-12.88 0.01,-19.32 -24.93,-0.12 -49.85,-0.03 -74.78,-0.05 -0.34,33.09 -0.1,66.18 -0.08,99.27 z"
       id="path2-8" />
    <path
       fill="#000000"
       opacity="1"
       d="m 478.4,79.31 c 6.27,-2.06 13.09,-2.84 19.54,-1.13 7.22,1.75 13.42,6.65 17.41,12.85 2.86,4.74 4.29,10.16 4.89,15.63 -0.19,7.69 -1.97,15.6 -7.01,21.62 -9.17,11.78 -27.75,13.94 -39.74,5.31 -6.38,-4.29 -10.43,-11.33 -12.22,-18.69 -1.62,-8.94 -0.12,-18.68 5.42,-26.04 2.93,-4.22 7.28,-7.11 11.71,-9.55 z"
       id="path4-4" />
  </g>
  <g
     id="#f6a305ff"
     transform="matrix(0.13080926,0,0,0.14141693,158.28837,598.30085)">
    <path
       fill="#f6a305"
       opacity="1"
       d="m 344.71,75.92 c 7.74,-9.72 19.11,-16.39 31.36,-18.46 8.73,-1.5 17.74,-0.99 26.37,0.91 8.34,1.91 15.87,6.31 22.4,11.75 -4.42,5.7 -9.19,11.12 -13.78,16.68 -4.05,-3.1 -8.21,-6.24 -13.09,-7.91 -4.35,-1.61 -9.03,-1.93 -13.61,-2.39 -2.84,-0.23 -5.77,-0.58 -8.56,0.21 -4.2,1.12 -8.12,3.48 -12.57,3.44 -5.93,-0.08 -11.89,0.82 -17.79,-0.13 -0.24,-1.37 -0.49,-2.73 -0.73,-4.1 z"
       id="path7" />
  </g>
  <g
     id="#f7aa05ff"
     transform="matrix(0.13080926,0,0,0.14141693,158.28837,598.30085)">
    <path
       fill="#f7aa05"
       opacity="1"
       d="m 155.96,58.53 c 8.07,-0.03 16.14,-0.03 24.21,0 1.7,4.31 3.35,8.65 4.76,13.07 -1.81,1.08 -3.69,2.28 -5.88,2.26 -5.12,0.32 -10.28,0.56 -15.37,-0.12 -0.31,0.24 -0.94,0.74 -1.25,0.98 -2.13,-5.41 -4.41,-10.76 -6.47,-16.19 z"
       id="path10-7" />
  </g>
  <g
     id="#bb8323ff"
     transform="matrix(0.13080926,0,0,0.14141693,158.28837,598.30085)">
    <path
       fill="#bb8323"
       opacity="1"
       d="m 194.79,58.44 c 8.19,-0.14 16.39,-0.06 24.59,-0.04 2.13,5.56 4.16,11.16 6.26,16.74 2.49,-5.48 4.47,-11.18 6.72,-16.76 2.44,0 4.88,0.03 7.32,0.11 -0.73,1.58 -1.45,3.17 -2.24,4.73 0.05,-0.95 0.16,-2.83 0.22,-3.78 -1.06,-0.08 -3.18,-0.25 -4.24,-0.33 -2.54,5.22 -4.3,10.76 -6.3,16.2 -0.54,0.17 -1.61,0.51 -2.15,0.69 -2.51,-5.42 -4.07,-11.21 -6.52,-16.66 -7.2,-0.08 -14.4,-0.11 -21.6,0.01 1.67,7.11 5.25,13.53 7.79,20.34 2.58,6.32 5.02,12.71 7.87,18.92 1.45,3.24 3.02,6.95 1.5,10.48 -1.92,4.88 -3.25,10.19 -6.7,14.28 1.6,-6 4.58,-11.51 6.37,-17.44 -0.25,-1.22 -0.62,-2.4 -1.12,-3.55 -6,-14.61 -11.91,-29.27 -17.77,-43.94 z"
       id="path13" />
  </g>
  <g
     id="#f1a30cff"
     transform="matrix(0.13080926,0,0,0.14141693,158.28837,598.30085)">
    <path
       fill="#f1a30c"
       opacity="1"
       d="m 248.09,58.6 c 2.36,-0.08 4.73,-0.1 7.1,-0.11 -5.6,14.26 -10.95,28.63 -16.93,42.74 0.23,-3.22 0.23,-6.44 0.23,-9.66 -1.46,2.23 -2.81,4.54 -4,6.92 -0.32,-0.23 -0.96,-0.69 -1.28,-0.92 4.67,-13.09 10.2,-25.87 14.88,-38.97 z"
       id="path16-5" />
  </g>
  <g
     id="#c77c1aff"
     transform="matrix(0.13080926,0,0,0.14141693,158.28837,598.30085)">
    <path
       fill="#c77c1a"
       opacity="1"
       d="m 301.8,58.57 c 7.36,-0.39 14.73,-0.13 22.1,-0.17 0.35,7.54 0.2,15.08 0.02,22.62 -0.15,25.56 0.01,51.12 -0.13,76.68 -7.33,-0.06 -14.67,0.25 -22,-0.21 0.08,-32.97 0.06,-65.95 0.01,-98.92 m 2.15,1.25 c -1.8,3.77 -0.26,8.59 -0.69,12.78 0.04,10.43 0.02,20.85 0.34,31.27 -0.24,16.05 -0.05,32.11 -0.14,48.16 0.16,1.41 -0.35,3.61 1.61,3.94 5.25,0.61 10.63,0.5 15.9,0.12 0.33,-0.27 0.98,-0.8 1.31,-1.07 0.59,-16.77 0.04,-33.59 0.18,-50.39 0.2,-10.66 0.3,-21.34 0.27,-32.01 -0.03,-3.97 0.33,-7.96 0.01,-11.93 -0.39,-0.32 -1.19,-0.96 -1.58,-1.28 -5.7,-0.04 -11.66,-0.78 -17.21,0.41 z"
       id="path19" />
  </g>
  <g
     id="#f6a105ff"
     transform="matrix(0.13080926,0,0,0.14141693,158.28837,598.30085)">
    <path
       fill="#f6a105"
       opacity="1"
       d="m 446.89,78.76 c 7.9,-11.3 20.59,-18.93 34.17,-21.06 11.35,-1.35 23.27,-0.59 33.64,4.61 11.33,5.4 20.44,15.24 24.97,26.96 -7.8,-0.72 -15.64,-0.46 -23.45,-1.06 -0.22,0.71 -0.65,2.11 -0.87,2.82 -3.99,-6.2 -10.19,-11.1 -17.41,-12.85 -6.45,-1.71 -13.27,-0.93 -19.54,1.13 -4.88,-0.14 -8.29,3.29 -12.09,5.72 -6.53,1 -13.46,0.94 -19.81,-1.11 0.1,-1.73 0.22,-3.45 0.39,-5.16 z"
       id="path22-0" />
  </g>
  <g
     id="#b76a17ff"
     transform="matrix(0.13080926,0,0,0.14141693,158.28837,598.30085)">
    <path
       fill="#b76a17"
       opacity="1"
       d="m 70.38,157.75 c -0.02,-33.09 -0.26,-66.18 0.08,-99.27 0.85,14.1 0.01,28.24 0.99,42.33 -0.12,16.72 0.06,33.44 -0.11,50.16 0.24,1.83 -0.56,4.42 1.55,5.4 4.01,0.57 8.07,0.2 12.1,0.25 18.02,0.01 36.05,-0.05 54.07,0.04 1.82,-0.19 4.19,0.33 5.29,-1.55 0.76,-5.19 0.21,-10.45 0.19,-15.67 -17.62,-0.41 -35.24,0.07 -52.86,-0.24 -0.25,-7.18 -1.35,-14.6 0.39,-21.63 0.54,6.72 0.13,13.47 0.25,20.2 17.87,0.1 35.73,-0.08 53.59,0.09 0.35,6.62 0.3,13.27 0.06,19.89 -25.2,0.07 -50.39,0.08 -75.59,0 z"
       id="path25" />
  </g>
  <g
     id="#dca030ff"
     transform="matrix(0.13080926,0,0,0.14141693,158.28837,598.30085)">
    <path
       fill="#dca030"
       opacity="1"
       d="m 70.46,58.48 c 24.93,0.02 49.85,-0.07 74.78,0.05 -0.01,6.44 -0.01,12.88 -0.01,19.32 -17.66,0.19 -35.32,-0.05 -52.97,0.13 -0.05,6.55 0.02,13.1 -0.06,19.65 l -1.13,-0.1 c -0.61,-4.55 -0.67,-9.16 -0.54,-13.75 0.23,-2.2 0.46,-4.41 0.68,-6.61 7.24,-0.92 14.54,-0.43 21.81,-0.52 10.15,-0.06 20.31,0.11 30.46,-0.05 0.14,-5.43 0.16,-10.87 0.03,-16.31 -23.74,-0.21 -47.5,-0.1 -71.25,-0.01 -0.16,9.05 0.05,18.09 0.04,27.14 0.27,4.48 0.04,8.98 -0.85,13.39 C 70.47,86.72 71.31,72.58 70.46,58.48 Z"
       id="path28-6" />
  </g>
  <g
     id="#f6a506ff"
     transform="matrix(0.13080926,0,0,0.14141693,158.28837,598.30085)">
    <path
       fill="#f6a506"
       opacity="1"
       d="m 265.09,73.84 c 1.61,-5.19 3.81,-10.19 5.61,-15.33 7.9,0.01 15.81,-0.04 23.72,0.03 -3.28,8.2 -6.5,16.43 -10.02,24.54 -0.14,-0.6 -0.43,-1.8 -0.57,-2.4 -6.11,-0.27 -12.27,0.42 -18.33,-0.6 -0.17,-2.08 -0.34,-4.15 -0.41,-6.24 z"
       id="path31" />
  </g>
  <g
     id="#f7a505ff"
     transform="matrix(0.13080926,0,0,0.14141693,158.28837,598.30085)">
    <path
       fill="#f7a505"
       opacity="1"
       d="m 72.26,60.28 c 23.75,-0.09 47.51,-0.2 71.25,0.01 0.13,5.44 0.11,10.88 -0.03,16.31 -10.15,0.16 -20.31,-0.01 -30.46,0.05 -7.27,0.09 -14.57,-0.4 -21.81,0.52 -0.22,2.2 -0.45,4.41 -0.68,6.61 -0.37,1.54 -0.79,3.06 -1.21,4.58 -5.63,0.33 -12.09,2.95 -17.02,-0.94 0.01,-9.05 -0.2,-18.09 -0.04,-27.14 z"
       id="path34-9" />
  </g>
  <g
     id="#f7a605ff"
     transform="matrix(0.13080926,0,0,0.14141693,158.28837,598.30085)">
    <path
       fill="#f7a605"
       opacity="1"
       d="m 196.85,59.35 c 7.2,-0.12 14.4,-0.09 21.6,-0.01 2.45,5.45 4.01,11.24 6.52,16.66 0.54,-0.18 1.61,-0.52 2.15,-0.69 2,-5.44 3.76,-10.98 6.3,-16.2 1.06,0.08 3.18,0.25 4.24,0.33 -0.06,0.95 -0.17,2.83 -0.22,3.78 -2.07,6.04 -4.56,11.95 -7,17.85 -0.06,-1.09 -0.12,-2.19 -0.2,-3.28 -5.08,0.52 -10.18,0.71 -15.25,1.34 -2.06,0.42 -3.96,-0.52 -5.92,-0.92 -1.55,0.25 -2.98,0.93 -4.43,1.48 -2.54,-6.81 -6.12,-13.23 -7.79,-20.34 z"
       id="path37" />
  </g>
  <g
     id="#f8a904ff"
     transform="matrix(0.13080926,0,0,0.14141693,158.28837,598.30085)">
    <path
       fill="#f8a904"
       opacity="1"
       d="m 303.95,59.82 c 5.55,-1.19 11.51,-0.45 17.21,-0.41 0.39,0.32 1.19,0.96 1.58,1.28 0.32,3.97 -0.04,7.96 -0.01,11.93 -6.53,-1.45 -13.03,2.08 -19.47,-0.02 0.43,-4.19 -1.11,-9.01 0.69,-12.78 z"
       id="path40-1" />
  </g>
  <g
     id="#f49907ff"
     transform="matrix(0.13080926,0,0,0.14141693,158.28837,598.30085)">
    <path
       fill="#f49907"
       opacity="1"
       d="m 184.93,71.6 0.25,-0.15 c 1.11,3.87 2.86,7.52 4.02,11.37 0.01,2.59 -0.16,5.18 -0.31,7.77 -6.45,0.57 -13.84,2.42 -19.43,-1.9 -0.25,0.26 -0.75,0.77 -1.01,1.02 -1.97,-5.01 -4.01,-9.99 -6.02,-14.99 0.31,-0.24 0.94,-0.74 1.25,-0.98 5.09,0.68 10.25,0.44 15.37,0.12 2.19,0.02 4.07,-1.18 5.88,-2.26 z"
       id="path43" />
  </g>
  <g
     id="#f39307ff"
     transform="matrix(0.13080926,0,0,0.14141693,158.28837,598.30085)">
    <path
       fill="#f39307"
       opacity="1"
       d="m 303.26,72.6 c 6.44,2.1 12.94,-1.43 19.47,0.02 0.03,10.67 -0.07,21.35 -0.27,32.01 -6.22,-1.19 -12.56,-1.07 -18.86,-0.76 -0.32,-10.42 -0.3,-20.84 -0.34,-31.27 z"
       id="path46-1" />
  </g>
  <g
     id="#f29107ff"
     transform="matrix(0.13080926,0,0,0.14141693,158.28837,598.30085)">
    <path
       fill="#f29107"
       opacity="1"
       d="m 256.3,97.78 c 2.55,-8.1 5.72,-16.02 8.79,-23.94 0.07,2.09 0.24,4.16 0.41,6.24 6.06,1.02 12.22,0.33 18.33,0.6 0.14,0.6 0.43,1.8 0.57,2.4 -2.39,6.75 -5.25,13.34 -8.01,19.95 -0.42,-1.13 -0.86,-2.25 -1.31,-3.37 -3.89,0 -7.76,0.4 -11.63,0.63 -2.57,0.11 -5.68,-0.04 -7.15,-2.51 z"
       id="path49" />
  </g>
  <g
     id="#f29207ff"
     transform="matrix(0.13080926,0,0,0.14141693,158.28837,598.30085)">
    <path
       fill="#f29207"
       opacity="1"
       d="m 336.39,91.12 c 2.13,-5.4 4.71,-10.63 8.32,-15.2 0.24,1.37 0.49,2.73 0.73,4.1 5.9,0.95 11.86,0.05 17.79,0.13 4.45,0.04 8.37,-2.32 12.57,-3.44 2.79,-0.79 5.72,-0.44 8.56,-0.21 -7.01,0.99 -14.02,3.63 -18.88,8.97 -3.96,3.99 -6.23,9.21 -7.97,14.46 -0.26,-1.27 -0.53,-2.54 -0.81,-3.81 -5.77,-1.01 -11.63,0.4 -17.38,-0.48 -2.26,-0.2 -2.08,-2.97 -2.93,-4.52 z"
       id="path52-6" />
  </g>
  <g
     id="#f39407ff"
     transform="matrix(0.13080926,0,0,0.14141693,158.28837,598.30085)">
    <path
       fill="#f39407"
       opacity="1"
       d="m 214.99,79.13 c 5.07,-0.63 10.17,-0.82 15.25,-1.34 0.08,1.09 0.14,2.19 0.2,3.28 -2.51,7.15 -5.38,14.21 -8.32,21.2 -0.09,-1.16 -0.19,-2.33 -0.3,-3.49 -3.1,0.49 -6.24,0.35 -9.31,-0.17 -2.85,-6.21 -5.29,-12.6 -7.87,-18.92 1.45,-0.55 2.88,-1.23 4.43,-1.48 1.96,0.4 3.86,1.34 5.92,0.92 z"
       id="path55" />
  </g>
  <g
     id="#f18a08ff"
     transform="matrix(0.13080926,0,0,0.14141693,158.28837,598.30085)">
    <path
       fill="#f18a08"
       opacity="1"
       d="m 437.78,109.91 c -0.24,-11 2.47,-22.23 9.11,-31.15 -0.17,1.71 -0.29,3.43 -0.39,5.16 6.35,2.05 13.28,2.11 19.81,1.11 3.8,-2.43 7.21,-5.86 12.09,-5.72 -4.43,2.44 -8.78,5.33 -11.71,9.55 -5.54,7.36 -7.04,17.1 -5.42,26.04 -0.28,0.34 -0.85,1.02 -1.14,1.36 -0.59,-3.07 -1.07,-6.16 -1.54,-9.24 -6.95,0.5 -14.6,-1.1 -20.81,2.89 z"
       id="path58-5" />
  </g>
  <g
     id="#f18a09ff"
     transform="matrix(0.13080926,0,0,0.14141693,158.28837,598.30085)">
    <path
       fill="#f18a09"
       opacity="1"
       d="m 189.2,82.82 c 3.04,7.88 6.09,15.77 8.77,23.78 -0.43,-0.16 -1.27,-0.46 -1.69,-0.61 -1.56,-1.49 -2.6,-3.62 -4.53,-4.63 -4.77,-0.48 -9.58,0.12 -14.37,-0.18 -0.31,2.68 -0.64,5.37 -0.83,8.07 -3.01,-6.38 -5.34,-13.05 -8.1,-19.54 0.26,-0.25 0.76,-0.76 1.01,-1.02 5.59,4.32 12.98,2.47 19.43,1.9 0.15,-2.59 0.32,-5.18 0.31,-7.77 z"
       id="path61" />
  </g>
  <g
     id="#ef7d05ff"
     transform="matrix(0.13080926,0,0,0.14141693,158.28837,598.30085)">
    <path
       fill="#ef7d05"
       opacity="1"
       d="m 89.32,88.36 c 0.42,-1.52 0.84,-3.04 1.21,-4.58 -0.13,4.59 -0.07,9.2 0.54,13.75 l 1.13,0.1 c 14.74,0.2 29.49,0.01 44.23,0.08 0.08,6.6 0.03,13.2 0.03,19.8 -14.8,0.1 -29.6,-0.04 -44.39,0.06 -1.74,7.03 -0.64,14.45 -0.39,21.63 17.62,0.31 35.24,-0.17 52.86,0.24 0.02,5.22 0.57,10.48 -0.19,15.67 -1.1,1.88 -3.47,1.36 -5.29,1.55 -18.02,-0.09 -36.05,-0.03 -54.07,-0.04 -4.03,-0.05 -8.09,0.32 -12.1,-0.25 -2.11,-0.98 -1.31,-3.57 -1.55,-5.4 0.17,-16.72 -0.01,-33.44 0.11,-50.16 0.89,-4.41 1.12,-8.91 0.85,-13.39 4.93,3.89 11.39,1.27 17.02,0.94 z"
       id="path64-7" />
    <path
       fill="#ef7d05"
       opacity="1"
       d="m 212.51,98.61 c 3.07,0.52 6.21,0.66 9.31,0.17 0.11,1.16 0.21,2.33 0.3,3.49 -6.89,18.6 -14.38,37.01 -21.56,55.52 -1.92,-0.31 -5.05,0.96 -5.4,-1.86 -6.12,-15.59 -12.76,-31.01 -18.61,-46.68 0.19,-2.7 0.52,-5.39 0.83,-8.07 4.79,0.3 9.6,-0.3 14.37,0.18 1.93,1.01 2.97,3.14 4.53,4.63 0.42,0.15 1.26,0.45 1.69,0.61 l 0.19,0.06 c 2.6,6.78 4.93,13.67 7.75,20.37 0.3,-1.01 0.6,-2.03 0.91,-3.03 0.12,-0.16 0.37,-0.47 0.49,-0.63 3.45,-4.09 4.78,-9.4 6.7,-14.28 1.52,-3.53 -0.05,-7.24 -1.5,-10.48 z"
       id="path66-7" />
  </g>
  <g
     id="#f18b08ff"
     transform="matrix(0.13080926,0,0,0.14141693,158.28837,598.30085)">
    <path
       fill="#f18b08"
       opacity="1"
       d="m 516.22,88.21 c 7.81,0.6 15.65,0.34 23.45,1.06 0.57,1.63 1.14,3.26 1.77,4.89 l -0.22,0.31 c -0.1,0.14 -0.29,0.43 -0.39,0.57 0.11,1.97 0.31,3.94 0.48,5.92 -6.48,-0.28 -12.97,-0.93 -19.44,-0.21 -0.57,1.96 -1.16,3.92 -1.63,5.91 -0.6,-5.47 -2.03,-10.89 -4.89,-15.63 0.22,-0.71 0.65,-2.11 0.87,-2.82 z"
       id="path69" />
  </g>
  <g
     id="#f08209ff"
     transform="matrix(0.13080926,0,0,0.14141693,158.28837,598.30085)">
    <path
       fill="#f08209"
       opacity="1"
       d="m 341.22,134.92 c -8.22,-12.85 -9.05,-29.41 -4.83,-43.8 0.85,1.55 0.67,4.32 2.93,4.52 5.75,0.88 11.61,-0.53 17.38,0.48 0.28,1.27 0.55,2.54 0.81,3.81 -0.23,3.65 -1.21,7.28 -0.6,10.95 0.35,4.29 1.9,8.33 3.11,12.42 -4.11,-2.6 -5.46,-7.35 -6.98,-11.65 -3.47,4.42 -9.06,0.94 -13.66,1.67 -2.84,2.59 -2.38,7.06 -1.05,10.32 1.48,3.62 2.54,7.38 2.89,11.28 z"
       id="path72-1" />
  </g>
  <g
     id="#ef7d02ff"
     transform="matrix(0.13080926,0,0,0.14141693,158.28837,598.30085)">
    <path
       fill="#ef7d02"
       opacity="1"
       d="m 234.49,98.49 c 1.19,-2.38 2.54,-4.69 4,-6.92 0,3.22 0,6.44 -0.23,9.66 -0.36,2.1 -1.61,4.27 -0.68,6.4 2.4,6.56 4.87,13.1 7.39,19.61 3.82,-9.88 7.66,-19.77 11.03,-29.82 l 0.3,0.36 c 1.47,2.47 4.58,2.62 7.15,2.51 3.87,-0.23 7.74,-0.63 11.63,-0.63 0.45,1.12 0.89,2.24 1.31,3.37 -7.12,18.31 -14.65,36.48 -21.96,54.71 -6.54,0.02 -13.07,0.11 -19.6,-0.07 -2.87,-7.69 -6.1,-15.24 -9.13,-22.87 -3.62,7.43 -6.08,15.36 -9.35,22.96 -2.26,0 -4.51,-0.01 -6.77,-0.02 7.6,-20.19 15.88,-40.12 23.35,-60.36 l 0.28,0.19 c 0.32,0.23 0.96,0.69 1.28,0.92 z"
       id="path75" />
  </g>
  <g
     id="#ef7d01ff"
     transform="matrix(0.13080926,0,0,0.14141693,158.28837,598.30085)">
    <path
       fill="#ef7d01"
       opacity="1"
       d="m 541.22,94.47 c 0.24,0 0.73,-0.01 0.97,-0.01 0.07,8.13 1.74,16.59 -0.48,24.6 -3.29,5.17 -5.68,10.86 -7.11,16.83 -7.4,12.11 -20.73,20.12 -34.63,22.38 -11.13,1.21 -22.86,0.87 -33.11,-4.13 -17.15,-7.54 -28.98,-25.48 -29.08,-44.23 6.21,-3.99 13.86,-2.39 20.81,-2.89 0.47,3.08 0.95,6.17 1.54,9.24 0.29,-0.34 0.86,-1.02 1.14,-1.36 1.79,7.36 5.84,14.4 12.22,18.69 11.99,8.63 30.57,6.47 39.74,-5.31 5.04,-6.02 6.82,-13.93 7.01,-21.62 0.47,-1.99 1.06,-3.95 1.63,-5.91 6.47,-0.72 12.96,-0.07 19.44,0.21 -0.17,-1.98 -0.37,-3.95 -0.48,-5.92 0.1,-0.14 0.29,-0.43 0.39,-0.57 z"
       id="path78-5" />
  </g>
  <g
     id="#ef7e0aff"
     transform="matrix(0.13080926,0,0,0.14141693,158.28837,598.30085)">
    <path
       fill="#ef7e0a"
       opacity="1"
       d="m 385.27,100.17 c 14.37,-0.01 28.74,-0.04 43.11,0.02 -0.07,13.62 0.09,27.24 -0.07,40.86 -0.19,0.71 -0.58,2.12 -0.78,2.83 -2.27,-8.37 0.62,-17.26 -2.03,-25.53 -2.01,-1.56 -5.11,-0.02 -7.5,-0.35 -2.94,0.53 -5.27,-1.49 -7.56,-2.96 -2.27,6 -0.49,12.48 -1.81,18.59 -2.25,3.49 -6.62,5.06 -10.58,5.58 -5.81,0.58 -11.83,0.97 -17.48,-0.75 9,0.93 18.5,-0.09 26.21,-5.2 0.02,-4.68 0.01,-9.37 0.01,-14.05 -7.13,0.02 -14.27,0 -21.4,0.02 -0.2,-6.35 -0.08,-12.7 -0.12,-19.06 z"
       id="path81" />
  </g>
  <g
     id="#ef7d00ff"
     transform="matrix(0.13080926,0,0,0.14141693,158.28837,598.30085)">
    <path
       fill="#ef7d00"
       opacity="1"
       d="m 303.6,103.87 c 6.3,-0.31 12.64,-0.43 18.86,0.76 -0.14,16.8 0.41,33.62 -0.18,50.39 -0.33,0.27 -0.98,0.8 -1.31,1.07 -5.27,0.38 -10.65,0.49 -15.9,-0.12 -1.96,-0.33 -1.45,-2.53 -1.61,-3.94 0.09,-16.05 -0.1,-32.11 0.14,-48.16 z"
       id="path84-3" />
    <path
       fill="#ef7d00"
       opacity="1"
       d="m 353.04,111.65 c 1.52,4.3 2.87,9.05 6.98,11.65 2.14,2.14 3.39,5.01 5.6,7.1 4.03,4.15 9.44,6.55 14.95,8.06 5.65,1.72 11.67,1.33 17.48,0.75 3.96,-0.52 8.33,-2.09 10.58,-5.58 1.32,-6.11 -0.46,-12.59 1.81,-18.59 2.29,1.47 4.62,3.49 7.56,2.96 2.39,0.33 5.49,-1.21 7.5,0.35 2.65,8.27 -0.24,17.16 2.03,25.53 -11.69,9.37 -26.47,15.2 -41.57,14.7 -17.53,0.58 -36.14,-7.97 -44.74,-23.66 -0.35,-3.9 -1.41,-7.66 -2.89,-11.28 -1.33,-3.26 -1.79,-7.73 1.05,-10.32 4.6,-0.73 10.19,2.75 13.66,-1.67 z"
       id="path86-3" />
  </g>
  <g
     id="#c06d1bff"
     transform="matrix(0.13080926,0,0,0.14141693,158.28837,598.30085)">
    <path
       fill="#c06d1b"
       opacity="1"
       d="m 534.6,135.89 c 1.43,-5.97 3.82,-11.66 7.11,-16.83 -0.93,6.05 -3.24,12.04 -7.11,16.83 z"
       id="path89" />
  </g>
</svg>
