<?xml version="1.0" encoding="UTF-8" standalone="no"?>
<svg
   width="1024"
   height="681"
   fill="none"
   version="1.1"
   id="svg598"
   sodipodi:docname="SLICE-3-LIVRAISON-TABLETTE.svg"
   inkscape:version="1.1.1 (3bf5ae0d25, 2021-09-20)"
   xmlns:inkscape="http://www.inkscape.org/namespaces/inkscape"
   xmlns:sodipodi="http://sodipodi.sourceforge.net/DTD/sodipodi-0.dtd"
   xmlns="http://www.w3.org/2000/svg"
   xmlns:svg="http://www.w3.org/2000/svg">
  <sodipodi:namedview
     id="namedview600"
     pagecolor="#ffffff"
     bordercolor="#666666"
     borderopacity="1.0"
     inkscape:pageshadow="2"
     inkscape:pageopacity="0.0"
     inkscape:pagecheckerboard="0"
     showgrid="false"
     inkscape:zoom="1.0439453"
     inkscape:cx="512"
     inkscape:cy="340.53508"
     inkscape:window-width="1920"
     inkscape:window-height="1017"
     inkscape:window-x="-8"
     inkscape:window-y="-8"
     inkscape:window-maximized="1"
     inkscape:current-layer="svg598" />
  <path
     fill="#E5E5E5"
     d="M0 0h1024v681H0z"
     id="path2" />
  <path
     d="M986.75 675.6H971v-53.887c0-4.509 3.526-8.165 7.875-8.165s7.875 3.656 7.875 8.165V675.6z"
     fill="url(#paint0_linear)"
     id="path4" />
  <path
     d="M995.915 591c5.065 0 9.165 4.371 9.165 9.762V675.6h-18.33v-74.838c0-5.392 4.103-9.762 9.165-9.762z"
     fill="url(#paint1_linear)"
     id="path6" />
  <path
     d="M1008.35 634.979c5.18 0 9.38 4.365 9.38 9.749V675.6h-18.759v-30.872c0-5.385 4.199-9.749 9.379-9.749z"
     fill="url(#paint2_linear)"
     id="path8" />
  <path
     d="M1005.08 634.979v.568c-2.92 1.316-5.851 4.94-5.851 9.181V675.6h-2.926v-30.872c0-5.379 4.387-9.749 8.777-9.749z"
     fill="url(#paint3_linear)"
     id="path10" />
  <path
     fill="#54A3FF"
     d="M0 0h1024v681H0z"
     id="path12" />
  <path
     d="M11.678 680.584l-8.142-85.859h56.011v85.859H11.678z"
     fill="url(#paint4_linear)"
     stroke="#968F8F"
     id="path14" />
  <path
     d="M118.377 533.36l-60.231 1.902v55.793h60.231V533.36z"
     fill="url(#paint5_linear)"
     id="path16" />
  <path
     d="M366.908 520.045v-37.723l-129.338 9.51-127.765 23.458-3.475 16.802 260.578-12.047z"
     fill="url(#paint6_linear)"
     id="path18" />
  <path
     d="M3.487 590.555v-37.709l51.622-3.732v41.441H3.487z"
     fill="url(#paint7_linear)"
     stroke="#968F8F"
     id="path20" />
  <path
     d="M120.913 534.331l247.264-9.847v155.942l-247.264.658V534.331z"
     fill="#C4C4C4"
     id="path22" />
  <path
     d="M368.177 524.483l106.514 15.851-5.389 140.75-101.125-.659V524.483z"
     fill="#CCC"
     id="path24" />
  <path
     d="M124.083 552.802l240.29-3.909v4.755l-240.29 2.536v-3.382zm0 7.609l240.29-3.91v4.755l-240.29 2.536v-3.381zm0-23.67l240.29-6.129v6.974l-240.29 2.536v-3.381zm0 7.819l240.29-3.91v4.755l-240.29 2.536v-3.381zm0 23.459l240.29-3.91v4.755l-240.29 2.536v-3.381zm0 7.608l240.29-3.91v4.755l-240.29 2.536v-3.381zm0 7.607l240.29-3.909v4.755l-240.29 2.536v-3.382zm0 7.609l240.29-3.91v4.755l-240.29 2.536v-3.381zm0 7.608l240.29-3.91v4.755l-240.29 2.536v-3.381zm0 7.608l240.29-3.91v4.755l-240.29 2.537v-3.382zm0 7.608l240.29-3.909v4.755l-240.29 2.536v-3.382zm0 8.877l240.29-3.91v4.755l-240.29 2.536v-3.381zm0 7.608l240.29-3.91v4.755l-240.29 2.536v-3.381zm0 7.608l240.29-3.909v4.755l-240.29 2.536v-3.382zm0 7.608l240.29-3.91v4.755l-240.29 2.536v-3.381zm0 7.608l240.29-3.91v4.755l-240.29 2.536v-3.381zm0 7.609l240.29-3.91v4.755l-240.29 2.536v-3.381zm0 7.607l240.29-3.91v4.756l-240.29 2.536v-3.382zm0 7.609l240.29-3.91v4.755l-240.29 2.536v-3.381z"
     fill="#9C9A9A"
     id="path26" />
  <path
     d="M371.345 524.973l3.489.534-1.206 153.041h-2.283V524.973zm5.073.778l3.489.533-1.206 152.897h-2.283v-153.43zm5.073.634l3.489.531-1.207 152.266h-2.282V526.385zm5.072.635l3.17.529-1.096 151.633h-2.074V527.02zm4.438.634l3.17.527-1.096 151.001h-2.074V527.654zm4.438.633l3.17.525-1.096 150.37h-2.074V528.287zm4.438.634l2.536.523-.877 149.738h-1.659V528.921zm3.804.635l2.536.52-.876 149.106h-1.66V529.556zm3.804.633l2.536.521-.876 149.106h-1.66V530.189zm3.804.634l2.536.518-.876 148.475h-1.66V530.823zm3.805.634l2.536.516-.877 147.842h-1.659V531.457zm3.803.634l1.903.353-.658 147.372h-1.245V532.091zm3.171.634l1.902.351-.658 146.739h-1.244v-147.09zm6.34 1.269l1.902.348-.658 145.474h-1.244V533.994zm-3.17-.634l1.902.349-.658 146.107h-1.244V533.36zm6.34 1.267l1.902.347-.658 144.842h-1.244V534.627zm3.17 0l1.902.348-.658 145.475h-1.244V534.627zm6.34 1.269l1.902.345-.658 144.209h-1.244V535.896zm3.17.634l1.268.241-.604 143.679h-.664V536.53zm2.536 0l1.268.241-.604 143.679h-.664V536.53zm2.536.633l1.268.24-.604 143.046h-.664V537.163zm2.536 0l1.268.24-.604 143.046h-.664V537.163zm2.536.634l1.268.239-.604 142.414h-.664V537.797zm2.536.635l1.268.238-.604 141.78h-.664V538.432zm2.536 0l1.268.238-.604 141.78h-.664V538.432zm2.536.634l1.268.238-.604 141.78h-.664V539.066zm2.536 0l1.268.238-.604 141.78h-.664V539.066zm2.536.634l1.902.634-1.54 140.75h-.362V539.7zm-29.164-4.438l1.902.346-.658 144.842h-1.244V535.262z"
     fill="#B7B7B7"
     id="path28" />
  <path
     d="M158.453 595.298v85.287h-28.164v-88.96l28.164 3.673z"
     fill="#E6E6E6"
     stroke="#968F8F"
     id="path30" />
  <path
     d="M427.457 531.775l-59.914-49.135v37.114l59.914 12.021z"
     fill="url(#paint8_linear)"
     id="path32" />
  <path
     fill="#C4C4C4"
     stroke="#968F8F"
     d="M366.5 521.149V476.5h2.17v44.649zm-85.39 58.576v-44.649h2.17v44.649zm-162.867 12.098v-59.231h2.17v59.231h-2.17z"
     id="path34" />
  <path
     fill="#C4C4C4"
     stroke="#968F8F"
     d="M3.487 591.555h116.926v2.17H3.487zm97.003-56.811v-2.173l266.553-12.002v4.385l-266.553 9.79zm267.553-9.838v-4.266l85.85 14.821 1.637 1.637-87.487-12.192z"
     id="path36" />
  <path
     d="M52.305 680.585v-85.902l76.984-3.107v89.009H52.305z"
     fill="#EDEDED"
     stroke="#968F8F"
     id="path38" />
  <path
     d="M329.159 485.279l-.013.001-.013.002-41.803 5.247-.001.001-32.086 3.954-.013.002-.013.002-25.537 4.56-.006.001-22.088 4.227-.016.003-.015.004-32.025 8.224-.012.003-28.173 7.941-.008.002-.008.002-22.28 7.083-.004.001-23.894 7.408h0l-.011.004-25.839 8.687-.005.002-78.068 27.142-4.42-15.151 144.077-50.065L179.49 492l.01-.003 28.393-7.741.011-.003 57.103-12.947 101.563-16.849-.13 28.124-37.281 2.698z"
     fill="#C4C4C4"
     stroke="#968F8F"
     id="path40" />
  <path
     d="M367.409 482.723v-27.79l88.644 81.826-29.335-4.191-59.309-49.845z"
     fill="#DBDBDB"
     stroke="#968F8F"
     id="path42" />
  <path
     stroke="#000"
     d="M89.078 613.245v65.303m38.822-66.705l-74.179 1.902"
     id="path44" />
  <path
     d="M93.15 646.848c0 .44-.12.816-.287 1.067-.17.255-.35.335-.48.335-.132 0-.311-.08-.481-.335-.168-.251-.288-.627-.288-1.067 0-.44.12-.816.288-1.068.17-.255.35-.334.48-.334.131 0 .311.079.48.334.168.252.288.628.288 1.068z"
     fill="#C4C4C4"
     stroke="#000"
     id="path46" />
  <path
     d="M58.44 600.515l2.666-.047c1.214-.021 2.098.138 2.65.476.558.334.843.878.856 1.632.009.511-.105.933-.342 1.265a1.43 1.43 0 01-.944.609v.058c.546.112.94.332 1.184.66.248.327.377.766.387 1.317.013.781-.26 1.396-.818 1.843-.555.447-1.316.679-2.285.696l-3.204.056-.15-8.565zm1.875 3.36l1.055-.018c.492-.009.846-.091 1.062-.247.22-.156.327-.41.32-.762-.005-.328-.13-.56-.375-.696-.24-.141-.62-.206-1.14-.197l-.955.016.033 1.904zm.026 1.441l.038 2.233 1.184-.021c.5-.009.867-.111 1.102-.306.235-.196.349-.491.342-.885-.012-.711-.526-1.058-1.542-1.04l-1.125.019zm5.95-4.616c-.011-.582.308-.878.956-.89.649-.011.978.274.988.856.005.278-.073.496-.235.655-.157.155-.398.235-.722.241-.648.011-.978-.276-.988-.862zm2.006 8.211l-1.787.031-.114-6.55 1.787-.031.114 6.55zm4.499-5.482c-.38.007-.674.133-.884.379-.211.242-.328.584-.352 1.025l2.508-.043c-.016-.441-.137-.779-.364-1.014-.226-.238-.53-.354-.908-.347zm.348 5.514c-1.055.019-1.884-.258-2.488-.83-.603-.571-.915-1.39-.933-2.456-.02-1.098.24-1.95.776-2.557.54-.611 1.294-.925 2.263-.942.925-.016 1.65.235 2.175.753.525.518.796 1.242.812 2.172l.015.867-4.224.073c.028.508.186.902.472 1.182.286.28.683.416 1.19.407a4.929 4.929 0 001.118-.143 5.59 5.59 0 001.094-.411l.024 1.382c-.31.162-.641.283-.995.363a6.123 6.123 0 01-1.299.14zm10.168-.295l-1.787.032-.066-3.826c-.009-.472-.099-.824-.27-1.056-.173-.235-.442-.35-.81-.343-.5.008-.858.183-1.075.522-.216.336-.318.891-.305 1.664l.054 3.082-1.787.031-.114-6.55 1.365-.024.255.834.1-.002a1.87 1.87 0 01.807-.729 2.8 2.8 0 011.191-.267c.762-.013 1.343.184 1.745.591.402.403.61.993.623 1.771l.074 4.27zm3.398-.059l-2.61-6.506 1.869-.033 1.33 3.71c.15.47.245.916.288 1.337l.035-.001c.013-.375.093-.824.24-1.346l1.195-3.754 1.868-.032-2.381 6.593-1.834.032zm7.891-5.541c-.379.007-.674.133-.884.379-.21.242-.328.584-.351 1.026l2.507-.044c-.016-.441-.137-.779-.363-1.013-.227-.239-.53-.354-.909-.348zm.348 5.515c-1.054.018-1.883-.259-2.487-.83-.604-.572-.915-1.391-.934-2.457-.019-1.097.24-1.95.776-2.557.54-.611 1.294-.925 2.263-.942.926-.016 1.651.235 2.176.753.525.519.795 1.243.811 2.172l.015.867-4.224.074c.029.507.186.901.472 1.181s.683.416 1.191.407a4.929 4.929 0 001.117-.142c.35-.088.715-.226 1.094-.412l.025 1.383c-.31.161-.642.282-.996.363a6.189 6.189 0 01-1.299.14zm10.169-.295l-1.787.031-.067-3.826c-.008-.472-.098-.824-.27-1.056-.173-.235-.442-.349-.809-.343-.5.009-.859.183-1.075.523-.217.336-.319.89-.305 1.664l.053 3.081-1.786.031-.115-6.549 1.365-.024.255.833.1-.001a1.87 1.87 0 01.807-.729c.349-.171.746-.26 1.191-.267.762-.014 1.344.183 1.745.59.402.404.609.994.623 1.771l.075 4.271zm6.479-.113l-.255-.834-.093.002a1.913 1.913 0 01-.802.723c-.349.17-.748.259-1.197.267-.77.013-1.353-.182-1.751-.585-.398-.407-.603-.997-.617-1.771l-.074-4.27 1.787-.032.066 3.826c.009.473.099.827.271 1.062.172.231.441.344.809.337.499-.008.858-.181 1.075-.517.216-.339.318-.896.305-1.669l-.054-3.082 1.787-.031.114 6.55-1.371.024zm5.864-5.506c-.379.007-.674.133-.884.379-.211.242-.328.584-.352 1.026l2.508-.044c-.016-.441-.137-.779-.364-1.013-.226-.239-.529-.354-.908-.348zm.348 5.515c-1.054.018-1.884-.259-2.487-.83-.604-.572-.915-1.391-.934-2.457-.019-1.097.239-1.95.776-2.557.54-.611 1.294-.925 2.263-.942.926-.016 1.651.235 2.176.753.524.519.795 1.243.811 2.172l.015.867-4.224.074c.029.507.186.901.472 1.181s.683.416 1.191.407a4.933 4.933 0 001.117-.142c.35-.088.715-.226 1.094-.412l.024 1.383a4.145 4.145 0 01-.995.363 6.19 6.19 0 01-1.299.14z"
     fill="#000"
     id="path48" />
  <path
     fill="#D9D7D7"
     d="M145.823 537.674l196.476-5.145.73 27.887-196.476 5.144z"
     id="path50" />
  <g
     filter="url(#filter0_d)"
     id="g54">
    <path
       d="M165.635 542.042l.419 16.014-3.475.091-8.177-11.683.312 11.889-3.475.091-.419-16.014 4.544-.119 7.06 9.936-.264-10.114 3.474-.091h.001zm16.209 9.076l.024.931c-.031.267-.025.489-.02.711a3.633 3.633 0 00-.021.622l-10.654.279c.167.528.559.918 1.139 1.168.58.252 1.424.363 2.531.334l.726-.019c.303-.053.609-.061.953-.07.304-.052.648-.061 1.03-.071.342-.053.686-.062 1.029-.071a426.32 426.32 0 012.517-.199l.064 2.44-2.166.456c-.609.104-1.294.211-2.017.319-.723.108-1.41.126-2.06.143-1.335.035-2.482.02-3.404-.133-.92-.109-1.691-.4-2.275-.784a3.462 3.462 0 01-1.268-1.743c-.287-.747-.427-1.72-.458-2.918-.031-1.197.057-2.176.305-2.938.209-.76.613-1.392 1.175-1.805.561-.46 1.317-.79 2.23-.947a23.99 23.99 0 013.393-.311 19.697 19.697 0 012.945.145c.844.11 1.615.357 2.235.696.621.383 1.13.859 1.49 1.47.322.613.533 1.363.557 2.295zm-3.633-.128l-.013-.487a1.776 1.776 0 00-.163-.396c-.08-.131-.236-.26-.506-.341a3.982 3.982 0 00-1.037-.196 18.255 18.255 0 00-1.797-.041c-1.183.031-2.058.187-2.624.468-.566.281-.898.733-.997 1.358l7.141-.187-.004-.178zm11.027 6.726c-.954.025-1.758.001-2.487-.157a3.755 3.755 0 01-1.817-.796c-.509-.431-.867-.999-1.154-1.745-.249-.749-.389-1.722-.421-2.92l-.146-5.589 3.475-.091.146 5.589c.012.444.097.797.182 1.106.083.263.242.481.4.655.209.183.461.314.735.38.269.037.613.073.995.063l.65-.017c.228-.006.419-.056.647-.062.19-.048.458-.055.685-.106.267-.007.572-.059.953-.114l-.2-7.63 3.475-.091.277 10.602c-.494.102-.95.202-1.443.304-.457.101-.951.202-1.446.26-.532.103-1.065.161-1.636.265-.572.059-1.183.076-1.87.094zm14.907-10.023l.081 3.105-3.474.09.163 6.255-3.513.092-.209-7.984c-.036-1.376.009-2.576.173-3.601.126-1.024.449-1.876 1.002-2.601.517-.679 1.268-1.232 2.289-1.614.984-.336 2.316-.548 3.996-.592l.955-.025.084 3.193-.994.026c-.801.021-1.486.128-1.978.319-.492.19-.905.467-1.202.786a3.329 3.329 0 00-.619 1.17 8.287 8.287 0 00-.191 1.47l3.436-.09.001.001zm11.7 9.059l-5.733-11.747.311 11.889-3.475.091-.419-16.014 4.773-.125 5.328 10.87 4.79-11.135 4.735-.124.419 16.014-3.475.091-.311-11.889-5.111 12.031-1.832.048zm19.253-11.824a23.575 23.575 0 013.404.133c.92.109 1.692.399 2.277.828.583.384 1.019.995 1.268 1.743.287.747.427 1.72.458 2.918.032 1.197-.057 2.177-.305 2.938a3.455 3.455 0 01-1.175 1.806c-.563.414-1.318.745-2.231.902-.911.201-2.017.275-3.393.311-1.336.035-2.482.02-3.404-.133-.92-.109-1.653-.401-2.236-.785a3.448 3.448 0 01-1.268-1.742c-.287-.748-.428-1.721-.459-2.918-.032-1.198.058-2.177.305-2.939.209-.76.613-1.392 1.175-1.805.562-.46 1.279-.789 2.192-.946a23.988 23.988 0 013.392-.311zm.212 8.074a17.435 17.435 0 001.754-.135c.457-.056.837-.154 1.099-.339.264-.14.41-.41.517-.68.107-.313.134-.713.122-1.201-.014-.532-.063-.931-.186-1.239-.122-.307-.281-.525-.552-.651-.271-.171-.656-.249-1.116-.326-.459-.032-1.032-.017-1.758.002-.687.018-1.298.034-1.755.09-.456.101-.797.198-1.06.383a1.15 1.15 0 00-.555.68 4.887 4.887 0 00.064 2.44c.121.264.319.525.59.651.272.17.618.25 1.077.283.459.032 1.071.06 1.759.042zm12.122-8.396l-3.487 1.112.27 10.292 3.513-.092-.296-11.312zm-.245-3.502c.006.223-.026.489-.134.714-.071.225-.18.405-.29.585a1.608 1.608 0 01-.525.414 1.006 1.006 0 01-.606.193.999.999 0 01-.615-.161 1.597 1.597 0 01-.545-.386 2.54 2.54 0 01-.321-.569 1.58 1.58 0 01-.171-.705 1.467 1.467 0 01.134-.714 3 3 0 01.289-.629c.149-.137.337-.275.524-.414.189-.093.378-.142.608-.148a1.4 1.4 0 01.614.116c.194.129.389.257.545.386.119.175.239.393.322.613.12.219.164.439.171.705zm10.401 3.236c1.375-.036 2.485.023 3.405.132.958.108 1.691.4 2.275.828.584.385 1.02.995 1.269 1.743.287.747.427 1.72.458 2.918l.144 5.501-3.704.097-.144-5.501c-.014-.532-.062-.931-.184-1.239a.977.977 0 00-.553-.651c-.272-.17-.656-.249-1.116-.326-.46-.032-1.032-.017-1.758.002l-.878.023a8.393 8.393 0 01-1.068.072 9.213 9.213 0 01-1.143.119c-.381.055-.763.065-1.105.118l.198 7.586-3.474.091-.291-11.091 2.521-.066.435.566a8.143 8.143 0 012.008-.63 16.603 16.603 0 012.705-.292zm21.443 7.562c.017.665-.084 1.2-.301 1.65-.216.494-.627.86-1.193 1.141-.565.281-1.285.522-2.237.636-.913.156-2.059.186-3.434.222-.534.014-1.07-.016-1.644-.045-.536-.074-1.034-.106-1.533-.182-.497-.031-.92-.108-1.341-.142-.384-.079-.691-.115-.921-.154l-.068-2.573c.765.025 1.492.05 2.179.032.612.028 1.224.057 1.836.041.484.021.968.023 1.452.006.764-.02 1.375.008 1.833-.004.458-.056.839-.066 1.067-.116.176-.031.343-.096.492-.19.074-.091.147-.227.145-.315-.003-.133-.006-.222-.085-.308a1.56 1.56 0 00-.347-.124 8.501 8.501 0 00-.729-.115c-.306.008-.688-.026-1.186-.057a37.086 37.086 0 01-3.64-.393c-.959-.153-1.691-.4-2.195-.653-.543-.297-.896-.643-1.098-1.081-.203-.439-.293-.969-.308-1.546-.016-.621.084-1.157.302-1.606.254-.495.627-.86 1.192-1.141.565-.326 1.323-.568 2.237-.68.913-.158 2.057-.231 3.47-.268l1.837.084c.55.066 1.1.14 1.648.224a15.17 15.17 0 011.612.268l.07 2.662a21.505 21.505 0 00-1.187-.102c-.46-.033-.918-.021-1.416-.052-.497-.031-.955-.02-1.414-.051-.459.012-.842-.023-1.147-.015l-1.833.048a6.06 6.06 0 00-1.067.116c-.266.052-.417.1-.529.192a.434.434 0 00-.107.314c.002.089.043.176.083.264.078.043.155.084.347.124.154.04.385.079.69.071.407.044.816.077 1.225.101 1.493.094 2.718.195 3.679.392.921.153 1.653.4 2.196.697.503.253.894.598 1.059 1.037.202.44.293.97.309 1.591zm1.287-4.829c-.036-1.375.047-2.575.211-3.601.164-1.025.524-1.878 1.079-2.603.517-.679 1.304-1.233 2.327-1.57 1.022-.382 2.392-.595 4.034-.638.763-.02 1.527-.04 2.255.029.765.025 1.454.096 2.066.124.652.072 1.227.145 1.725.221.499.076.884.154 1.19.191l.086 3.283c-.153-.041-.421-.034-.844-.112-.421-.033-.958-.107-1.608-.135-.65-.027-1.378-.097-2.219-.119-.803-.024-1.681-.001-2.597.023-.955.025-1.716.134-2.283.371-.529.236-.941.557-1.198.964-.256.45-.396.942-.457 1.521a15.12 15.12 0 00-.063 1.954c.018.71.074 1.375.165 1.95.092.574.257 1.058.535 1.451.278.392.706.691 1.247.899.579.251 1.345.32 2.3.295a53.434 53.434 0 002.823-.163c.877-.067 1.677-.177 2.325-.238.799-.11 1.522-.218 2.168-.368l.086 3.283c-.265.096-.646.15-1.14.252-.568.115-1.139.219-1.712.311-.646.106-1.371.169-2.094.233-.762.108-1.525.128-2.328.149-1.641.043-3.019-.054-4.06-.382-1.04-.327-1.854-.795-2.407-1.491-.591-.65-.996-1.527-1.214-2.542a19.568 19.568 0 01-.398-3.542zm20.433-3.242c.417-.145.835-.245 1.291-.345.379-.098.836-.155 1.33-.257.534-.058 1.029-.115 1.601-.13a23.836 23.836 0 013.404.133c.92.108 1.692.399 2.238.828.584.385 1.02.995 1.269 1.743.287.747.427 1.72.458 2.918l.144 5.501-3.665.096-.144-5.501c-.014-.532-.063-.931-.186-1.238a1.154 1.154 0 00-.589-.651c-.273-.17-.619-.25-1.079-.327-.459-.032-1.071-.016-1.758.002l-.878.023c-.342.053-.686.062-1.068.072-.38.055-.761.109-1.143.119-.419.056-.801.066-1.143.119l.198 7.586-3.474.091-.42-16.015 3.475-.091.139 5.323v.001zm27.334 3.457l.024.932c.007.265-.025.488-.019.71.006.222-.027.445-.022.622l-10.653.279c.167.529.559.918 1.139 1.169s1.423.362 2.53.333l.726-.019c.304-.052.609-.06.953-.069.305-.052.648-.061 1.03-.071a8.207 8.207 0 011.03-.072c.8-.065 1.639-.132 2.516-.199l.064 2.44c-.722.151-1.405.303-2.128.455-.684.112-1.369.218-2.054.32-.724.108-1.411.126-2.06.143-1.336.035-2.483.021-3.404-.133-.92-.109-1.692-.399-2.275-.784a3.456 3.456 0 01-1.269-1.742c-.287-.748-.427-1.72-.458-2.918-.031-1.198.058-2.177.305-2.938.21-.76.613-1.392 1.176-1.806.561-.459 1.317-.789 2.229-.946a23.824 23.824 0 013.392-.312c1.07-.028 2.065.035 2.947.146.882.109 1.614.357 2.234.696.622.383 1.13.858 1.49 1.47.36.612.533 1.362.557 2.294zm-3.633-.127l-.013-.488c-.004-.133-.083-.264-.163-.395-.08-.132-.236-.26-.468-.343a4.768 4.768 0 00-1.074-.194 17.972 17.972 0 00-1.798-.042c-1.183.031-2.058.187-2.624.469-.565.281-.897.733-.996 1.357l7.14-.187-.004-.177zm5.208-3.954c.53-.147 1.101-.251 1.747-.401.608-.105 1.257-.166 1.903-.272.648-.061 1.334-.124 2.02-.186.686-.062 1.336-.079 2.023-.097l.077 2.928c-.726.019-1.335.123-1.868.181-.494.102-.95.203-1.292.257-.418.099-.759.197-1.063.293l.204 7.764-3.475.091-.276-10.558z"
       fill="#E06329"
       id="path52" />
  </g>
  <path
     d="M418.998 608.12a50.403 50.403 0 00-24.132 15.144 50.152 50.152 0 00-12.022 25.774l-.351 2.331a2.054 2.054 0 00.678 1.853 2.08 2.08 0 001.929.436l2.276-.639a50.415 50.415 0 0024.131-15.144 50.154 50.154 0 0012.023-25.774l.824-5.486-5.356 1.505z"
     fill="url(#paint9_linear)"
     id="path56" />
  <path
     d="M388.52 651.139a50.408 50.408 0 00-10.723-26.394 50.148 50.148 0 00-23.295-16.316l-2.235-.751a2.058 2.058 0 00-1.942.347 2.066 2.066 0 00-.765 1.824l.235 2.352a50.414 50.414 0 0010.723 26.395 50.153 50.153 0 0023.295 16.315l5.259 1.764-.552-5.536z"
     fill="url(#paint10_linear)"
     id="path58" />
  <path
     d="M375.331 640.917h-12.586c-7.374-7.985-11.925-18.219-12.939-29.102l-.246-2.239a2.79 2.79 0 01.259-1.437l25.512 32.778z"
     fill="url(#paint11_linear)"
     id="path60" />
  <path
     d="M395.439 641.214c3.922-13.697-1.623-32.473-12.323-41.719l-7.306-6.313a1.978 1.978 0 00-1.874-.4 1.996 1.996 0 00-.848.516 2.034 2.034 0 00-.501.865l-2.678 9.353c-3.922 13.698 1.623 32.473 12.323 41.72l9.665 8.351 3.542-12.373z"
     fill="url(#paint12_linear)"
     id="path62" />
  <path
     d="M403.803 626.653l-1.36-9.854c6.106-7.237 14.462-12.675 23.76-15.464l1.909-.603a2.652 2.652 0 011.27-.06l-25.579 25.981z"
     fill="url(#paint13_linear)"
     id="path64" />
  <path
     d="M380.325 679.692h16.771c2.779 0-.197-2.436-.654-3.48.07-1.599-1.847-2.784-1.847-5.045v-17.052c0-2.261-.04-4.429-.11-6.028-.071-1.599-.166-2.497-.266-2.497l-9.175 3.479c-.1.007-1.321.142-1.392 1.74-.07 1.599-.727 1.05-.727 3.306l-.932 17.052c-1.112 2.957-1.738 3.446-1.668 5.045.071 1.599-1.945 3.48 0 3.48z"
     fill="url(#paint14_linear)"
     id="path66" />
  <path
     d="M393.869 608.119a50.4 50.4 0 00-24.131 15.144 50.152 50.152 0 00-12.022 25.774l-.352 2.331a2.05 2.05 0 00.103 1.012 2.075 2.075 0 002.504 1.277l2.276-.639a50.418 50.418 0 0024.132-15.144 50.156 50.156 0 0012.022-25.774l.825-5.486-5.357 1.505z"
     fill="url(#paint15_linear)"
     id="path68" />
  <path
     d="M363.392 651.139a50.4 50.4 0 00-10.724-26.395 50.143 50.143 0 00-23.294-16.315l-2.235-.751a2.053 2.053 0 00-1.942.346 2.08 2.08 0 00-.766 1.824l.235 2.352a50.414 50.414 0 0010.723 26.395 50.158 50.158 0 0023.295 16.315l5.26 1.765-.552-5.536z"
     fill="url(#paint16_linear)"
     id="path70" />
  <path
     d="M350.202 640.916h-12.585c-7.374-7.984-11.925-18.219-12.94-29.102l-.246-2.238a2.804 2.804 0 01.26-1.438l25.511 32.778z"
     fill="url(#paint17_linear)"
     id="path72" />
  <path
     d="M370.311 641.213c3.922-13.697-1.623-32.473-12.324-41.719l-7.305-6.313a1.978 1.978 0 00-1.875-.4c-.32.097-.612.275-.847.516a2.046 2.046 0 00-.502.865l-2.677 9.353c-3.923 13.698 1.622 32.473 12.323 41.72l9.664 8.351 3.543-12.373z"
     fill="url(#paint18_linear)"
     id="path74" />
  <path
     d="M378.675 626.651l-1.36-9.853c6.106-7.237 14.462-12.676 23.76-15.465l1.909-.602a2.627 2.627 0 011.27-.06l-25.579 25.98z"
     fill="url(#paint19_linear)"
     id="path76" />
  <path
     d="M355.197 679.691h16.771c2.778 0-.198-2.436-.655-3.48.071-1.599-1.846-2.784-1.846-5.045v-17.052c0-2.261-.04-4.429-.111-6.028-.07-1.599-.166-2.497-.266-2.497l-9.174 3.479c-.1.007-1.322.142-1.392 1.74-.071 1.599-.728 1.05-.728 3.306l-.932 17.052c-1.111 2.957-1.738 3.446-1.667 5.045.07 1.599-1.945 3.48 0 3.48z"
     fill="url(#paint20_linear)"
     id="path78" />
  <path
     d="M358.449 607.424a50.399 50.399 0 00-24.132 15.144 50.152 50.152 0 00-12.022 25.774l-.352 2.331a2.055 2.055 0 00.678 1.853 2.072 2.072 0 001.929.436l2.276-.639a50.414 50.414 0 0024.132-15.144 50.152 50.152 0 0012.022-25.774l.825-5.486-5.356 1.505z"
     fill="url(#paint21_linear)"
     id="path80" />
  <path
     d="M327.971 650.444a50.4 50.4 0 00-10.724-26.395 50.153 50.153 0 00-23.295-16.315l-2.235-.751a2.053 2.053 0 00-1.941.346 2.08 2.08 0 00-.766 1.824l.235 2.352a50.408 50.408 0 0010.723 26.395 50.158 50.158 0 0023.295 16.315l5.259 1.765-.551-5.536z"
     fill="url(#paint22_linear)"
     id="path82" />
  <path
     d="M314.781 640.221h-12.585c-7.374-7.984-11.925-18.219-12.94-29.102l-.246-2.238a2.788 2.788 0 01.26-1.437l25.511 32.777z"
     fill="url(#paint23_linear)"
     id="path84" />
  <path
     d="M334.89 640.518c3.922-13.697-1.623-32.473-12.324-41.719l-7.305-6.313a1.987 1.987 0 00-1.875-.4 1.996 1.996 0 00-.847.516 2.052 2.052 0 00-.502.865l-2.678 9.353c-3.922 13.698 1.623 32.474 12.324 41.72l9.664 8.351 3.543-12.373z"
     fill="url(#paint24_linear)"
     id="path86" />
  <path
     d="M343.253 625.956l-1.359-9.853c6.106-7.237 14.462-12.675 23.76-15.464l1.908-.603a2.632 2.632 0 011.271-.06l-25.58 25.98z"
     fill="url(#paint25_linear)"
     id="path88" />
  <path
     d="M319.776 678.996h16.77c2.779 0-.197-2.436-.654-3.479.071-1.599-1.846-2.785-1.846-5.046v-17.052c0-2.261-.04-4.429-.111-6.028-.07-1.599-.166-2.497-.266-2.497l-9.174 3.48c-.1.006-1.322.141-1.392 1.74-.071 1.598-.728 1.049-.728 3.305l-.932 17.052c-1.112 2.958-1.738 3.447-1.667 5.046.07 1.598-1.945 3.479 0 3.479z"
     fill="url(#paint26_linear)"
     id="path90" />
  <path
     opacity=".05"
     d="M263.5 362c20.711 0 37.5-16.342 37.5-36.5S284.211 289 263.5 289 226 305.342 226 325.5s16.789 36.5 37.5 36.5zm326-62C721.22 300 828 193.22 828 61.5S721.22-177 589.5-177 351-70.22 351 61.5 457.78 300 589.5 300zM110 201c81.186 0 147-66.486 147-148.5S191.186-96 110-96-37-29.514-37 52.5 28.814 201 110 201z"
     fill="#fff"
     stroke="#fff"
     stroke-width="2"
     id="path92" />
  <path
     d="M942.5-80C812.437-80 707 25.66 707 156c0 130.339 105.437 236 235.5 236 130.06 0 235.5-105.661 235.5-236 0-130.34-105.44-236-235.5-236z"
     fill="url(#paint27_linear)"
     id="path94" />
  <path
     d="M532 574.178s121.548-92.184 143.606-70.077c14.842 14.866 9.494 37.045 4.392 49.973-2.859 7.267-7.738 14.182-14.283 20.103-10.165 9.208-27.174 20.858-43.708 15.283-12.99-4.369-13.066-17.271-9.88-29.063 3.624-13.501 11.982-26.587 23.317-37.95C653.262 504.605 695.466 482.731 744.5 472"
     stroke="url(#paint28_linear)"
     stroke-width="2"
     stroke-miterlimit="10"
     stroke-dasharray="3.07 3.07"
     id="path96" />
  <path
     d="M711 468.685c-24.043-22.13-48.845-38.3-77.894-51.685l.563 19.994c-49.295 2.137-92.713 16.028-134.669 43.024 6.636 10.854 13.301 21.681 19.937 32.535 36.304-23.03 73.367-34.897 115.8-37.006l.563 19.993c24.38-13.919 48.283-22.102 75.7-26.855z"
     fill="url(#paint29_linear)"
     id="path98" />
  <path
     d="M873.323 508.998h-18.914v3.948h18.914v-3.948z"
     fill="url(#paint30_linear)"
     id="path100" />
  <path
     d="M854.867 649.533c0 .747-.602 1.349-1.348 1.349a1.346 1.346 0 01-1.349-1.349c0-.746.602-1.348 1.349-1.348a1.338 1.338 0 011.348 1.348z"
     fill="#fff"
     id="path102" />
  <path
     d="M530.894 677.165c6.809 0 12.328-7.579 12.328-16.928s-5.519-16.927-12.328-16.927c-6.809 0-12.328 7.578-12.328 16.927s5.519 16.928 12.328 16.928z"
     fill="#3E4039"
     id="path104" />
  <path
     d="M520.841 660.177c0 7.513 2.83 13.592 6.321 13.592 3.491 0 6.321-6.092 6.321-13.592 0-7.513-2.83-13.593-6.321-13.593-3.491-.012-6.321 6.08-6.321 13.593z"
     fill="#D6E3DD"
     id="path106" />
  <path
     d="M430.257 653.471c0 12.533 4.912 22.694 10.956 22.694 6.056 0 10.956-10.161 10.956-22.694s-4.912-22.694-10.956-22.694-10.956 10.161-10.956 22.694z"
     fill="#3E4039"
     id="path108" />
  <path
     d="M432.316 653.952c0 8.38 1.938 15.182 4.31 15.182 2.384 0 4.31-6.802 4.31-15.182 0-8.379-1.926-15.181-4.31-15.181-2.384 0-4.31 6.802-4.31 15.181z"
     fill="#D6E3DD"
     id="path110" />
  <path
     d="M583.266 679.982c9.694 0 17.553-10.781 17.553-24.079s-7.859-24.079-17.553-24.079c-9.695 0-17.554 10.781-17.554 24.079s7.859 24.079 17.554 24.079z"
     fill="#3E4039"
     id="path112" />
  <path
     d="M570.432 654.037c0 11.269 4.719 20.407 10.558 20.407 5.827 0 10.559-9.138 10.559-20.407s-4.72-20.407-10.559-20.407c-5.839.012-10.558 9.138-10.558 20.407z"
     fill="#D6E3DD"
     id="path114" />
  <path
     d="M473.117 679.921c8.83 0 15.988-10.78 15.988-24.078 0-13.299-7.158-24.079-15.988-24.079-8.83 0-15.988 10.78-15.988 24.079 0 13.298 7.158 24.078 15.988 24.078z"
     fill="#3E4039"
     id="path116" />
  <path
     d="M459.573 655.722c0 9.451 3.467 17.12 7.753 17.12s7.753-7.669 7.753-17.12-3.467-17.12-7.753-17.12-7.753 7.669-7.753 17.12z"
     fill="#D6E3DD"
     id="path118" />
  <path
     d="M430.317 653.627s-1.3-24.909 2.191-22.381c0 0 4.335 4.058 4.094 15.411 0 0-.241 13.604 5.418 14.688l15.843 1.589s-2.745-10.089 2.48-21.647c0 0 .41-19.913 6.177-11.847.361.506.409.807 1.011 2.264 1.758 4.31 5.153 14.363 4.671 26.583l.036.108c.061.253.241.927.542 1.77l.012.036c.482 1.384 1.312 3.19 2.468 4.346 0 0 8.368.301 20.877.614 28.665.735 79.146 1.589 100.757-.806a63.611 63.611 0 005.346-.771s1.781-2.841 2.552-5.887c.277-1.048.421-2.119.337-3.094 0 0-.072-21.912-5.61-30.821 0 0-2.348-12.064-11.558-16.615 0 0-2.709-2.576-6.73-6.272-9.872-9.09-27.594-24.97-32.037-26.005 0 0-35.396-10.354-76.811-3.612 0 0-13.484 2.095-23.284 12.521 0 0-2.24 2.938-4.395 7.26-1.589 3.202-3.118 7.187-3.636 11.293 0 0-.024.036-.084.084-.662.71-5.201 5.671-6.02 7.537-.939 2.155-3.214 13.147-4.261 17.89 0 .012-5.816 18.42-.386 25.764z"
     fill="url(#paint31_linear)"
     id="path120" />
  <path
     d="M585.469 600.353l.012.073c.096.18.433.927.469 2.492.012.506-1.926.65-1.926.65l-2.974-2.661-5.044-4.731c0-.012 5.658-2.131 9.463 4.177z"
     fill="#183964"
     id="path122" />
  <path
     d="M465.918 587.676s.794-8.632-2.517-9.222c0 0-2.6-.301-2.997.349-3.107 5.189-6.995 13.773-8.645 24.44 0 0 7.176 3.804 10.005 1.288 2.829-2.504 4.154-16.855 4.154-16.855z"
     fill="url(#paint32_linear)"
     id="path124" />
  <path
     d="M458.634 578.189s-10.751 5.935-13.641 19.347c0 0 5.297 2.011 5.863 1.529.566-.482 4.491-14.363 8.187-19.66 0-.012.963-1.457-.409-1.216z"
     fill="url(#paint33_linear)"
     id="path126" />
  <path
     d="M569.155 602.28c1.59.036 2.396-1.914 1.228-3.01-6.453-6.104-17.156-18.035-22.561-20.058-2.24-.433-22.261-4.213-42.824-4.213-11.57 0-21.178 1.167-28.63 3.479a1.746 1.746 0 00-1.216 1.649c-.072 6.441 2.938 17.578 3.672 20.648.181.782.891 1.312 1.697 1.312 5.021-.024 21.78-.084 40.019-.084 25.271 0 39.983.12 48.615.277z"
     fill="url(#paint34_linear)"
     id="path128" />
  <path
     d="M582.952 614.307c2.456-2.66 4.985-7.139 4.985-7.139 3.383 1.011 5.766 2.769 7.464 4.768 4.346 5.128 4.093 11.858 4.093 11.858-.65.795-3.214.964-3.214.964-3.215-1.445-18.457 1.769-18.457 1.769s.53-8.186 5.129-12.22zm-102.238-7.549s-4.828.988-5.67 4.262c-.157.566-.181 1.216-.036 1.927 0 0 2.407 15.41 10.835 11.798 0 0 18.059.241 26.005 1.204 0 0-2.203-7.404-11.064-11.883 0 0-10.98-5.297-20.07-7.308z"
     fill="#D6E3DD"
     id="path130" />
  <path
     d="M523.971 649.703c-.505 0-.915-.422-.915-.952v-11.028c0-.529.41-.951.915-.951h47.135c.505 0 .915.434.915.951v11.028c0 .53-.41.952-.915.952h-47.135z"
     fill="#fff"
     id="path132" />
  <path
     d="M564.051 642.864l-1.108 3.564h.915l.686-2.396.65 2.396h.891l-1.047-3.552 1.047-3.334h-.915l-.626 2.094-.602-2.094h-.903l1.012 3.322zm-4.226 0l-1.108 3.564h.915l.686-2.396.65 2.396h.903l-1.059-3.552 1.047-3.334h-.903l-.638 2.094-.602-2.094h-.903l1.012 3.322zm-8.645 0l-1.119 3.564h.927l.674-2.396.65 2.396h.903l-1.047-3.552 1.035-3.334h-.903l-.638 2.094-.59-2.094h-.915l1.023 3.322zm-4.225 0l-1.108 3.564h.915l.674-2.396.662 2.396h.891l-1.047-3.552 1.047-3.334h-.915l-.638 2.094-.59-2.094h-.903l1.012 3.322zm-4.226 0l-1.108 3.564h.915l.686-2.396.65 2.396h.891l-1.047-3.552 1.047-3.334h-.915l-.626 2.094-.602-2.094h-.903l1.012 3.322zm-8.657 0l-1.107 3.564h.915l.686-2.396.65 2.396h.903l-1.059-3.552 1.047-3.334h-.903l-.638 2.094-.59-2.094h-.915l1.011 3.322zm-5.333 3.564h.915l.686-2.396.662 2.396h.891l-1.059-3.552 1.047-3.334h-.903l-.638 2.094-.59-2.094h-.915l1.024 3.322-1.12 3.564zm28.365-3.853v.819h-2.288v-.819h2.288zm-17.181 0v.819h-2.287v-.819h2.287z"
     fill="#979797"
     id="path134" />
  <path
     d="M568.927 649.703h2.997c.53 0 .951-.434.951-.964v-11.172a.955.955 0 00-.951-.963h-2.997v13.099zm-46.966-12.136v11.173c0 .529.421.963.951.963h2.998v-13.111h-2.998a.973.973 0 00-.951.975z"
     fill="#183964"
     id="path136" />
  <path
     d="M554.347 593.154c-3.07-.963-5.924-2.251-8.741-3.624-2.793-1.408-5.526-2.889-8.066-4.707 3.07.963 5.923 2.251 8.74 3.624 2.781 1.408 5.526 2.889 8.067 4.707zm-17.734.843c-3.07-.963-5.923-2.252-8.741-3.624-2.793-1.409-5.538-2.89-8.066-4.707 3.07.963 5.923 2.251 8.74 3.623 2.782 1.397 5.527 2.89 8.067 4.708zm14.002 1.661c-4.611-1.661-9.03-3.636-13.4-5.706-4.346-2.095-8.644-4.286-12.738-6.803 4.611 1.65 9.03 3.636 13.4 5.707 4.334 2.107 8.632 4.286 12.738 6.802z"
     fill="#CAC9C9"
     id="path138" />
  <path
     d="M465.111 603.797l-1.011 2.889s-16.494 1.89-20.792-3.371c0 0-1.12-11.955 16.698-7.946 1.963.446.085 8.03.085 8.03s3.25.963 5.02.398z"
     fill="#183964"
     id="path140" />
  <path
     d="M809.93 405h-25.752v23.739h25.752V405z"
     fill="#FEEBD7"
     id="path142" />
  <path
     d="M659.364 649.288a50.342 50.342 0 0116.346 1.253c3.348-16.367 17.106-29.304 34.623-30.823.411-.041.863-.062 1.273-.083 3.922-25.689 26.121-45.362 52.899-45.362 20.494 0 38.299 11.52 47.293 28.441h.021a67.136 67.136 0 0119.611-2.916c36.943 0 66.904 29.961 66.904 66.925 0 5.011-.555 9.877-1.602 14.58H617c6.592-17.352 22.63-30.29 42.364-32.015z"
     fill="#009045"
     id="path144" />
  <path
     d="M849.275 658.037a36.2 36.2 0 0111.87.903c2.444-11.89 12.444-21.295 25.156-22.404l.924-.061c2.854-18.667 18.974-32.96 38.442-32.96 14.888 0 27.825 8.379 34.355 20.679h.021a48.663 48.663 0 0114.251-2.115c26.836 0 48.606 21.768 48.606 48.628 0 3.635-.39 7.187-1.15 10.596H818.493c4.805-12.609 16.449-22.014 30.782-23.266z"
     fill="#7CB928"
     id="path146" />
  <path
     d="M917.308 642.163a74.95 74.95 0 00-4.127-9.159c.287-1.91.472-3.861.472-5.853 0-4.702-.842-9.179-2.361-13.348-3.081-8.419-8.995-15.422-16.572-19.939-10.063-21.275-31.707-36.04-56.842-36.04-25.813 0-47.95 15.545-57.643 37.765-.164.39-.287.801-.452 1.17a65.524 65.524 0 00-21.295-1.622c-1.294.103-2.608.287-3.881.452-32.754 4.825-56.862 33.431-55.959 66.534 0 .616.062 1.171.103 1.766-2.485-1.129-5.195-1.807-8.111-1.807-.247 0-.493 0-.74.041-10.288.39-18.482 8.789-18.482 19.18h248.868a73.682 73.682 0 001.376-14.251 71.354 71.354 0 00-4.354-24.889z"
     fill="#7CB928"
     id="path148" />
  <path
     d="M942.033 495.171H937.7v-5.648H749.022v5.648h-4.333v11.356h4.333v174.776H937.7V506.527h4.333v-11.356z"
     fill="#FEEBD7"
     id="path150" />
  <path
     d="M948.687 498.271H738.015l2.074-6.161 9.323-27.763 11.972-35.588h163.954l4.045 11.992 17.25 51.359 2.054 6.161z"
     fill="url(#paint35_linear)"
     id="path152" />
  <path
     d="M812.127 602.119v75.179h-39.716v-75.179h39.716zm4.004-4.005h-47.724v83.189h47.724v-83.189z"
     fill="#fff"
     id="path154" />
  <path
     d="M812.127 602.118h-39.715v75.18h39.715v-75.18z"
     fill="url(#paint36_linear)"
     id="path156" />
  <path
     d="M933.203 613.187H825.988l4.312-12.834h98.549l2.444 7.187 1.91 5.647z"
     fill="url(#paint37_linear)"
     id="path158" />
  <path
     d="M913.366 533.9h-77.767v49.408h77.767V533.9z"
     fill="#63849C"
     id="path160" />
  <path
     d="M913.366 533.9v49.408h-77.767V533.9h77.767zm4.004-4.004h-85.776v57.417h85.776v-57.417z"
     fill="#fff"
     id="path162" />
  <path
     d="M876.628 533.9h-4.004v49.408h4.004V533.9z"
     fill="#fff"
     id="path164" />
  <path
     d="M912.113 623.537h-63.372v40.249h63.372v-40.249z"
     fill="#63849C"
     id="path166" />
  <path
     d="M912.113 623.537v40.25h-63.372v-40.25h63.372zm4.004-3.984h-71.381v48.258h71.381v-48.258z"
     fill="#fff"
     id="path168" />
  <path
     d="M811.183 533.9h-37.847v49.408h37.847V533.9z"
     fill="#63849C"
     id="path170" />
  <path
     d="M811.182 533.9v49.408h-37.846V533.9h37.846zm4.005-4.004h-45.856v57.417h45.856v-57.417zm15.124-58.976a7.307 7.307 0 01-7.314 7.313 7.306 7.306 0 01-7.313-7.313 7.307 7.307 0 017.313-7.314c4.044 0 7.314 3.287 7.314 7.314z"
     fill="#fff"
     id="path172" />
  <path
     d="M823.324 466.565c-.103 0-.206-.034-.309-.034a4.385 4.385 0 00-4.389 4.388 4.385 4.385 0 004.389 4.388 4.385 4.385 0 004.388-4.388c0-.293-.035-.568-.086-.843-2.375-.103-3.511-1.618-3.993-3.511z"
     fill="#183964"
     id="path174" />
  <path
     d="M873.23 470.919a7.307 7.307 0 01-7.314 7.313 7.307 7.307 0 01-7.314-7.313 7.308 7.308 0 017.314-7.314c4.027 0 7.314 3.287 7.314 7.314z"
     fill="#fff"
     id="path176" />
  <path
     d="M866.226 466.565c-.103 0-.207-.034-.31-.034a4.385 4.385 0 00-4.388 4.388 4.385 4.385 0 004.388 4.388 4.384 4.384 0 004.388-4.388c0-.293-.034-.568-.086-.843-2.374-.103-3.51-1.618-3.992-3.511z"
     fill="#183964"
     id="path178" />
  <path
     d="M844.25 479.368c3.786 0 6.058-3.028 6.815-5.3.757-2.272-.757-2.272-.757-2.272h-12.115s-1.515 0-.758 2.272c.758 2.272 3.029 5.3 6.815 5.3z"
     fill="#fff"
     id="path180" />
  <path
     d="M942.998 329.209c0-22.542-23.682-36.823-47.829-25.52-5.45 2.556-9.971 6.866-12.696 12.168-6.084 11.767-3.401 25.203 2.112 36.358l18.802 47.639c2.704 6.865 12.443 6.823 15.084-.064l18.422-47.871c6.38-14.598 6.105-22.71 6.105-22.71zm-22.689 19.605c-16.224 9.443-32.682-8.007-23.788-25.225 1.184-2.281 3-4.204 5.155-5.471 16.225-9.444 32.682 8.006 23.788 25.224-1.183 2.303-3 4.225-5.155 5.472z"
     fill="url(#paint38_linear)"
     id="path182" />
  <defs
     id="defs596">
    <linearGradient
       id="paint0_linear"
       x1="978.875"
       y1="613.752"
       x2="978.875"
       y2="675.803"
       gradientUnits="userSpaceOnUse">
      <stop
         stop-color="#00E35E"
         id="stop184" />
      <stop
         offset="1"
         stop-color="#00B248"
         id="stop186" />
    </linearGradient>
    <linearGradient
       id="paint1_linear"
       x1="995.915"
       y1="590.647"
       x2="995.915"
       y2="675.705"
       gradientUnits="userSpaceOnUse">
      <stop
         stop-color="#00E35E"
         id="stop189" />
      <stop
         offset="1"
         stop-color="#00A332"
         id="stop191" />
    </linearGradient>
    <linearGradient
       id="paint2_linear"
       x1="1008.35"
       y1="634.775"
       x2="1008.35"
       y2="676.214"
       gradientUnits="userSpaceOnUse">
      <stop
         stop-color="#00E35E"
         id="stop194" />
      <stop
         offset="1"
         stop-color="#00B248"
         id="stop196" />
    </linearGradient>
    <linearGradient
       id="paint3_linear"
       x1="1000.69"
       y1="634.979"
       x2="1000.69"
       y2="675.6"
       gradientUnits="userSpaceOnUse">
      <stop
         stop-color="#304F26"
         stop-opacity="0"
         id="stop199" />
      <stop
         offset=".284"
         stop-color="#2C4D23"
         stop-opacity=".057"
         id="stop201" />
      <stop
         offset=".579"
         stop-color="#1F4719"
         stop-opacity=".116"
         id="stop203" />
      <stop
         offset=".877"
         stop-color="#0B3E09"
         stop-opacity=".175"
         id="stop205" />
      <stop
         offset="1"
         stop-color="#003900"
         stop-opacity=".2"
         id="stop207" />
    </linearGradient>
    <linearGradient
       id="paint4_linear"
       x1="33.102"
       y1="594.225"
       x2="33.102"
       y2="684.21"
       gradientUnits="userSpaceOnUse">
      <stop
         stop-color="#B3FFFF"
         id="stop210" />
      <stop
         offset=".069"
         stop-color="#BDFFFF"
         id="stop212" />
      <stop
         offset=".306"
         stop-color="#DAFFFF"
         id="stop214" />
      <stop
         offset=".543"
         stop-color="#EFF"
         id="stop216" />
      <stop
         offset=".775"
         stop-color="#FBFFFF"
         id="stop218" />
      <stop
         offset="1"
         stop-color="#fff"
         id="stop220" />
    </linearGradient>
    <linearGradient
       id="paint5_linear"
       x1="90.018"
       y1="535.262"
       x2="90.018"
       y2="590.021"
       gradientUnits="userSpaceOnUse">
      <stop
         stop-color="#B3FFFF"
         id="stop223" />
      <stop
         offset=".069"
         stop-color="#BDFFFF"
         id="stop225" />
      <stop
         offset=".306"
         stop-color="#DAFFFF"
         id="stop227" />
      <stop
         offset=".543"
         stop-color="#EFF"
         id="stop229" />
      <stop
         offset=".775"
         stop-color="#FBFFFF"
         id="stop231" />
      <stop
         offset="1"
         stop-color="#fff"
         id="stop233" />
    </linearGradient>
    <linearGradient
       id="paint6_linear"
       x1="248.437"
       y1="492.149"
       x2="248.437"
       y2="518.906"
       gradientUnits="userSpaceOnUse">
      <stop
         stop-color="#B3FFFF"
         id="stop236" />
      <stop
         offset=".069"
         stop-color="#BDFFFF"
         id="stop238" />
      <stop
         offset=".306"
         stop-color="#DAFFFF"
         id="stop240" />
      <stop
         offset=".543"
         stop-color="#EFF"
         id="stop242" />
      <stop
         offset=".775"
         stop-color="#FBFFFF"
         id="stop244" />
      <stop
         offset="1"
         stop-color="#fff"
         id="stop246" />
    </linearGradient>
    <linearGradient
       id="paint7_linear"
       x1="31.431"
       y1="550.479"
       x2="31.431"
       y2="590.303"
       gradientUnits="userSpaceOnUse">
      <stop
         stop-color="#B3FFFF"
         id="stop249" />
      <stop
         offset=".069"
         stop-color="#BDFFFF"
         id="stop251" />
      <stop
         offset=".306"
         stop-color="#DAFFFF"
         id="stop253" />
      <stop
         offset=".543"
         stop-color="#EFF"
         id="stop255" />
      <stop
         offset=".775"
         stop-color="#FBFFFF"
         id="stop257" />
      <stop
         offset="1"
         stop-color="#fff"
         id="stop259" />
    </linearGradient>
    <linearGradient
       id="paint8_linear"
       x1="394.673"
       y1="462.946"
       x2="394.673"
       y2="530.852"
       gradientUnits="userSpaceOnUse">
      <stop
         stop-color="#B3FFFF"
         id="stop262" />
      <stop
         offset=".069"
         stop-color="#BDFFFF"
         id="stop264" />
      <stop
         offset=".306"
         stop-color="#DAFFFF"
         id="stop266" />
      <stop
         offset=".543"
         stop-color="#EFF"
         id="stop268" />
      <stop
         offset=".775"
         stop-color="#FBFFFF"
         id="stop270" />
      <stop
         offset="1"
         stop-color="#fff"
         id="stop272" />
    </linearGradient>
    <linearGradient
       id="paint9_linear"
       x1="386.853"
       y1="572.935"
       x2="376.078"
       y2="511.827"
       gradientUnits="userSpaceOnUse">
      <stop
         stop-color="#B6DD54"
         id="stop275" />
      <stop
         offset=".143"
         stop-color="#B2DC54"
         id="stop277" />
      <stop
         offset=".292"
         stop-color="#A5D753"
         id="stop279" />
      <stop
         offset=".443"
         stop-color="#91D051"
         id="stop281" />
      <stop
         offset=".595"
         stop-color="#74C64F"
         id="stop283" />
      <stop
         offset=".749"
         stop-color="#4EB94D"
         id="stop285" />
      <stop
         offset=".902"
         stop-color="#21A949"
         id="stop287" />
      <stop
         offset="1"
         stop-color="#009E47"
         id="stop289" />
    </linearGradient>
    <linearGradient
       id="paint10_linear"
       x1="428.753"
       y1="625.593"
       x2="490.803"
       y2="625.593"
       gradientUnits="userSpaceOnUse">
      <stop
         stop-color="#B6DD54"
         id="stop292" />
      <stop
         offset=".143"
         stop-color="#B2DC54"
         id="stop294" />
      <stop
         offset=".292"
         stop-color="#A5D753"
         id="stop296" />
      <stop
         offset=".443"
         stop-color="#91D051"
         id="stop298" />
      <stop
         offset=".595"
         stop-color="#74C64F"
         id="stop300" />
      <stop
         offset=".749"
         stop-color="#4EB94D"
         id="stop302" />
      <stop
         offset=".902"
         stop-color="#21A949"
         id="stop304" />
      <stop
         offset="1"
         stop-color="#009E47"
         id="stop306" />
    </linearGradient>
    <linearGradient
       id="paint11_linear"
       x1="346.224"
       y1="610.925"
       x2="376.751"
       y2="635.948"
       gradientUnits="userSpaceOnUse">
      <stop
         stop-color="#302926"
         stop-opacity="0"
         id="stop309" />
      <stop
         offset=".388"
         stop-color="#2D2724"
         stop-opacity=".027"
         id="stop311" />
      <stop
         offset=".621"
         stop-color="#25201D"
         stop-opacity=".043"
         id="stop313" />
      <stop
         offset=".812"
         stop-color="#171412"
         stop-opacity=".059"
         id="stop315" />
      <stop
         offset=".981"
         stop-color="#030202"
         stop-opacity=".071"
         id="stop317" />
      <stop
         offset="1"
         stop-opacity=".071"
         id="stop319" />
    </linearGradient>
    <linearGradient
       id="paint12_linear"
       x1="371.173"
       y1="588.434"
       x2="410.479"
       y2="622.28"
       gradientUnits="userSpaceOnUse">
      <stop
         stop-color="#B6DD54"
         id="stop322" />
      <stop
         offset="1"
         stop-color="#009E47"
         id="stop324" />
    </linearGradient>
    <linearGradient
       id="paint13_linear"
       x1="426.586"
       y1="598.368"
       x2="412.01"
       y2="628.662"
       gradientUnits="userSpaceOnUse">
      <stop
         stop-color="#302926"
         stop-opacity="0"
         id="stop327" />
      <stop
         offset=".388"
         stop-color="#2D2724"
         stop-opacity=".027"
         id="stop329" />
      <stop
         offset=".621"
         stop-color="#25201D"
         stop-opacity=".043"
         id="stop331" />
      <stop
         offset=".812"
         stop-color="#171412"
         stop-opacity=".059"
         id="stop333" />
      <stop
         offset=".981"
         stop-color="#030202"
         stop-opacity=".071"
         id="stop335" />
      <stop
         offset="1"
         stop-opacity=".071"
         id="stop337" />
    </linearGradient>
    <linearGradient
       id="paint14_linear"
       x1="423.574"
       y1="686.304"
       x2="411.461"
       y2="686.304"
       gradientUnits="userSpaceOnUse">
      <stop
         stop-color="#B16464"
         id="stop340" />
      <stop
         offset=".59"
         stop-color="#9C6764"
         id="stop342" />
      <stop
         offset="1"
         stop-color="#936864"
         id="stop344" />
    </linearGradient>
    <linearGradient
       id="paint15_linear"
       x1="361.725"
       y1="572.934"
       x2="350.95"
       y2="511.826"
       gradientUnits="userSpaceOnUse">
      <stop
         stop-color="#B6DD54"
         id="stop347" />
      <stop
         offset=".143"
         stop-color="#B2DC54"
         id="stop349" />
      <stop
         offset=".292"
         stop-color="#A5D753"
         id="stop351" />
      <stop
         offset=".443"
         stop-color="#91D051"
         id="stop353" />
      <stop
         offset=".595"
         stop-color="#74C64F"
         id="stop355" />
      <stop
         offset=".749"
         stop-color="#4EB94D"
         id="stop357" />
      <stop
         offset=".902"
         stop-color="#21A949"
         id="stop359" />
      <stop
         offset="1"
         stop-color="#009E47"
         id="stop361" />
    </linearGradient>
    <linearGradient
       id="paint16_linear"
       x1="403.624"
       y1="625.592"
       x2="465.674"
       y2="625.592"
       gradientUnits="userSpaceOnUse">
      <stop
         stop-color="#B6DD54"
         id="stop364" />
      <stop
         offset=".143"
         stop-color="#B2DC54"
         id="stop366" />
      <stop
         offset=".292"
         stop-color="#A5D753"
         id="stop368" />
      <stop
         offset=".443"
         stop-color="#91D051"
         id="stop370" />
      <stop
         offset=".595"
         stop-color="#74C64F"
         id="stop372" />
      <stop
         offset=".749"
         stop-color="#4EB94D"
         id="stop374" />
      <stop
         offset=".902"
         stop-color="#21A949"
         id="stop376" />
      <stop
         offset="1"
         stop-color="#009E47"
         id="stop378" />
    </linearGradient>
    <linearGradient
       id="paint17_linear"
       x1="321.095"
       y1="610.925"
       x2="351.623"
       y2="635.947"
       gradientUnits="userSpaceOnUse">
      <stop
         stop-color="#302926"
         stop-opacity="0"
         id="stop381" />
      <stop
         offset=".388"
         stop-color="#2D2724"
         stop-opacity=".027"
         id="stop383" />
      <stop
         offset=".621"
         stop-color="#25201D"
         stop-opacity=".043"
         id="stop385" />
      <stop
         offset=".812"
         stop-color="#171412"
         stop-opacity=".059"
         id="stop387" />
      <stop
         offset=".981"
         stop-color="#030202"
         stop-opacity=".071"
         id="stop389" />
      <stop
         offset="1"
         stop-opacity=".071"
         id="stop391" />
    </linearGradient>
    <linearGradient
       id="paint18_linear"
       x1="346.045"
       y1="588.433"
       x2="385.351"
       y2="622.279"
       gradientUnits="userSpaceOnUse">
      <stop
         stop-color="#B6DD54"
         id="stop394" />
      <stop
         offset="1"
         stop-color="#009E47"
         id="stop396" />
    </linearGradient>
    <linearGradient
       id="paint19_linear"
       x1="401.457"
       y1="598.366"
       x2="386.882"
       y2="628.661"
       gradientUnits="userSpaceOnUse">
      <stop
         stop-color="#302926"
         stop-opacity="0"
         id="stop399" />
      <stop
         offset=".388"
         stop-color="#2D2724"
         stop-opacity=".027"
         id="stop401" />
      <stop
         offset=".621"
         stop-color="#25201D"
         stop-opacity=".043"
         id="stop403" />
      <stop
         offset=".812"
         stop-color="#171412"
         stop-opacity=".059"
         id="stop405" />
      <stop
         offset=".981"
         stop-color="#030202"
         stop-opacity=".071"
         id="stop407" />
      <stop
         offset="1"
         stop-opacity=".071"
         id="stop409" />
    </linearGradient>
    <linearGradient
       id="paint20_linear"
       x1="398.446"
       y1="686.303"
       x2="386.332"
       y2="686.303"
       gradientUnits="userSpaceOnUse">
      <stop
         stop-color="#B16464"
         id="stop412" />
      <stop
         offset=".59"
         stop-color="#9C6764"
         id="stop414" />
      <stop
         offset="1"
         stop-color="#936864"
         id="stop416" />
    </linearGradient>
    <linearGradient
       id="paint21_linear"
       x1="326.304"
       y1="572.239"
       x2="315.529"
       y2="511.131"
       gradientUnits="userSpaceOnUse">
      <stop
         stop-color="#B6DD54"
         id="stop419" />
      <stop
         offset=".143"
         stop-color="#B2DC54"
         id="stop421" />
      <stop
         offset=".292"
         stop-color="#A5D753"
         id="stop423" />
      <stop
         offset=".443"
         stop-color="#91D051"
         id="stop425" />
      <stop
         offset=".595"
         stop-color="#74C64F"
         id="stop427" />
      <stop
         offset=".749"
         stop-color="#4EB94D"
         id="stop429" />
      <stop
         offset=".902"
         stop-color="#21A949"
         id="stop431" />
      <stop
         offset="1"
         stop-color="#009E47"
         id="stop433" />
    </linearGradient>
    <linearGradient
       id="paint22_linear"
       x1="368.203"
       y1="624.897"
       x2="430.253"
       y2="624.897"
       gradientUnits="userSpaceOnUse">
      <stop
         stop-color="#B6DD54"
         id="stop436" />
      <stop
         offset=".143"
         stop-color="#B2DC54"
         id="stop438" />
      <stop
         offset=".292"
         stop-color="#A5D753"
         id="stop440" />
      <stop
         offset=".443"
         stop-color="#91D051"
         id="stop442" />
      <stop
         offset=".595"
         stop-color="#74C64F"
         id="stop444" />
      <stop
         offset=".749"
         stop-color="#4EB94D"
         id="stop446" />
      <stop
         offset=".902"
         stop-color="#21A949"
         id="stop448" />
      <stop
         offset="1"
         stop-color="#009E47"
         id="stop450" />
    </linearGradient>
    <linearGradient
       id="paint23_linear"
       x1="285.674"
       y1="610.23"
       x2="316.201"
       y2="635.253"
       gradientUnits="userSpaceOnUse">
      <stop
         stop-color="#302926"
         stop-opacity="0"
         id="stop453" />
      <stop
         offset=".388"
         stop-color="#2D2724"
         stop-opacity=".027"
         id="stop455" />
      <stop
         offset=".621"
         stop-color="#25201D"
         stop-opacity=".043"
         id="stop457" />
      <stop
         offset=".812"
         stop-color="#171412"
         stop-opacity=".059"
         id="stop459" />
      <stop
         offset=".981"
         stop-color="#030202"
         stop-opacity=".071"
         id="stop461" />
      <stop
         offset="1"
         stop-opacity=".071"
         id="stop463" />
    </linearGradient>
    <linearGradient
       id="paint24_linear"
       x1="310.624"
       y1="587.738"
       x2="349.93"
       y2="621.584"
       gradientUnits="userSpaceOnUse">
      <stop
         stop-color="#B6DD54"
         id="stop466" />
      <stop
         offset="1"
         stop-color="#009E47"
         id="stop468" />
    </linearGradient>
    <linearGradient
       id="paint25_linear"
       x1="366.036"
       y1="597.671"
       x2="351.461"
       y2="627.966"
       gradientUnits="userSpaceOnUse">
      <stop
         stop-color="#302926"
         stop-opacity="0"
         id="stop471" />
      <stop
         offset=".388"
         stop-color="#2D2724"
         stop-opacity=".027"
         id="stop473" />
      <stop
         offset=".621"
         stop-color="#25201D"
         stop-opacity=".043"
         id="stop475" />
      <stop
         offset=".812"
         stop-color="#171412"
         stop-opacity=".059"
         id="stop477" />
      <stop
         offset=".981"
         stop-color="#030202"
         stop-opacity=".071"
         id="stop479" />
      <stop
         offset="1"
         stop-opacity=".071"
         id="stop481" />
    </linearGradient>
    <linearGradient
       id="paint26_linear"
       x1="363.025"
       y1="685.608"
       x2="350.911"
       y2="685.608"
       gradientUnits="userSpaceOnUse">
      <stop
         stop-color="#B16464"
         id="stop484" />
      <stop
         offset=".59"
         stop-color="#9C6764"
         id="stop486" />
      <stop
         offset="1"
         stop-color="#936864"
         id="stop488" />
    </linearGradient>
    <linearGradient
       id="paint27_linear"
       x1="750.31"
       y1="348.597"
       x2="1136.46"
       y2="-36.733"
       gradientUnits="userSpaceOnUse">
      <stop
         stop-color="#FFDC2E"
         id="stop491" />
      <stop
         offset=".09"
         stop-color="#FFE359"
         id="stop493" />
      <stop
         offset=".199"
         stop-color="#FFEA84"
         id="stop495" />
      <stop
         offset=".312"
         stop-color="#FFF1AA"
         id="stop497" />
      <stop
         offset=".43"
         stop-color="#FFF6C9"
         id="stop499" />
      <stop
         offset=".552"
         stop-color="#FFFAE1"
         id="stop501" />
      <stop
         offset=".682"
         stop-color="#FFFDF2"
         id="stop503" />
      <stop
         offset=".824"
         stop-color="#FFFEFC"
         id="stop505" />
      <stop
         offset="1"
         stop-color="#fff"
         id="stop507" />
    </linearGradient>
    <linearGradient
       id="paint28_linear"
       x1="599.507"
       y1="555.633"
       x2="747.978"
       y2="489.53"
       gradientUnits="userSpaceOnUse">
      <stop
         stop-color="#F39121"
         id="stop510" />
      <stop
         offset=".272"
         stop-color="#F39121"
         id="stop512" />
      <stop
         offset=".964"
         stop-color="#F8AE3C"
         id="stop514" />
      <stop
         offset="1"
         stop-color="#F8AE3C"
         id="stop516" />
    </linearGradient>
    <linearGradient
       id="paint29_linear"
       x1="501.441"
       y1="462.323"
       x2="707.768"
       y2="491.363"
       gradientUnits="userSpaceOnUse">
      <stop
         stop-color="#46AE4D"
         id="stop519" />
      <stop
         offset=".262"
         stop-color="#46AE4D"
         id="stop521" />
      <stop
         offset=".761"
         stop-color="#009045"
         id="stop523" />
      <stop
         offset="1"
         stop-color="#009045"
         id="stop525" />
    </linearGradient>
    <linearGradient
       id="paint30_linear"
       x1="856.358"
       y1="491.422"
       x2="877.887"
       y2="547.511"
       gradientUnits="userSpaceOnUse">
      <stop
         stop-color="#EB5B2D"
         id="stop528" />
      <stop
         offset="1"
         stop-color="#BF292E"
         id="stop530" />
    </linearGradient>
    <linearGradient
       id="paint31_linear"
       x1="605.139"
       y1="617.475"
       x2="428"
       y2="617.475"
       gradientUnits="userSpaceOnUse">
      <stop
         stop-color="#0A72B9"
         id="stop533" />
      <stop
         offset=".279"
         stop-color="#0A72B9"
         id="stop535" />
      <stop
         offset=".773"
         stop-color="#0C4D86"
         id="stop537" />
      <stop
         offset="1"
         stop-color="#0C4D86"
         id="stop539" />
    </linearGradient>
    <linearGradient
       id="paint32_linear"
       x1="465.995"
       y1="591.883"
       x2="451.763"
       y2="591.883"
       gradientUnits="userSpaceOnUse">
      <stop
         offset=".279"
         stop-color="#fff"
         id="stop542" />
      <stop
         offset="1"
         stop-color="#9FD8F0"
         id="stop544" />
    </linearGradient>
    <linearGradient
       id="paint33_linear"
       x1="459.369"
       y1="588.649"
       x2="444.992"
       y2="588.649"
       gradientUnits="userSpaceOnUse">
      <stop
         offset=".279"
         stop-color="#fff"
         id="stop547" />
      <stop
         offset="1"
         stop-color="#9FD8F0"
         id="stop549" />
    </linearGradient>
    <linearGradient
       id="paint34_linear"
       x1="557.485"
       y1="585.717"
       x2="441.444"
       y2="599.548"
       gradientUnits="userSpaceOnUse">
      <stop
         offset=".279"
         stop-color="#fff"
         id="stop552" />
      <stop
         offset="1"
         stop-color="#9FD8F0"
         id="stop554" />
    </linearGradient>
    <linearGradient
       id="paint35_linear"
       x1="794.857"
       y1="367.584"
       x2="831.579"
       y2="463.255"
       gradientUnits="userSpaceOnUse">
      <stop
         stop-color="#EB5B2D"
         id="stop557" />
      <stop
         offset="1"
         stop-color="#BF292E"
         id="stop559" />
    </linearGradient>
    <linearGradient
       id="paint36_linear"
       x1="787.198"
       y1="621.071"
       x2="807.492"
       y2="695.723"
       gradientUnits="userSpaceOnUse">
      <stop
         stop-color="#F39121"
         id="stop562" />
      <stop
         offset=".272"
         stop-color="#F39121"
         id="stop564" />
      <stop
         offset=".964"
         stop-color="#F8AE3C"
         id="stop566" />
      <stop
         offset="1"
         stop-color="#F8AE3C"
         id="stop568" />
    </linearGradient>
    <linearGradient
       id="paint37_linear"
       x1="873.093"
       y1="592.967"
       x2="890.487"
       y2="647.083"
       gradientUnits="userSpaceOnUse">
      <stop
         stop-color="#EB5B2D"
         id="stop571" />
      <stop
         offset="1"
         stop-color="#BF292E"
         id="stop573" />
    </linearGradient>
    <linearGradient
       id="paint38_linear"
       x1="878.997"
       y1="352.35"
       x2="943.002"
       y2="352.35"
       gradientUnits="userSpaceOnUse">
      <stop
         stop-color="#EB5B2D"
         id="stop576" />
      <stop
         offset="1"
         stop-color="#BF292E"
         id="stop578" />
    </linearGradient>
    <filter
       id="filter0_d"
       x="146.82"
       y="538.507"
       width="194.61"
       height="27.937"
       filterUnits="userSpaceOnUse"
       color-interpolation-filters="sRGB">
      <feFlood
         flood-opacity="0"
         result="BackgroundImageFix"
         id="feFlood581" />
      <feColorMatrix
         in="SourceAlpha"
         values="0 0 0 0 0 0 0 0 0 0 0 0 0 0 0 0 0 0 127 0"
         id="feColorMatrix583" />
      <feOffset
         dy="4"
         id="feOffset585" />
      <feGaussianBlur
         stdDeviation="2"
         id="feGaussianBlur587" />
      <feColorMatrix
         values="0 0 0 0 0 0 0 0 0 0 0 0 0 0 0 0 0 0 0.25 0"
         id="feColorMatrix589" />
      <feBlend
         in2="BackgroundImageFix"
         result="effect1_dropShadow"
         id="feBlend591" />
      <feBlend
         in="SourceGraphic"
         in2="effect1_dropShadow"
         result="shape"
         id="feBlend593" />
    </filter>
  </defs>
  <g
     id="#000000ff"
     transform="matrix(0.16149669,0,0,0.14820484,197.74218,572.65185)">
    <path
       fill="#000000"
       opacity="1"
       d="M 0,0 H 600 V 215 H 0 V 0 m 344.71,75.92 c -3.61,4.57 -6.19,9.8 -8.32,15.2 -4.22,14.39 -3.39,30.95 4.83,43.8 8.6,15.69 27.21,24.24 44.74,23.66 15.1,0.5 29.88,-5.33 41.57,-14.7 0.2,-0.71 0.59,-2.12 0.78,-2.83 0.16,-13.62 0,-27.24 0.07,-40.86 -14.37,-0.06 -28.74,-0.03 -43.11,-0.02 0.04,6.36 -0.08,12.71 0.12,19.06 7.13,-0.02 14.27,0 21.4,-0.02 0,4.68 0.01,9.37 -0.01,14.05 -7.71,5.11 -17.21,6.13 -26.21,5.2 -5.51,-1.51 -10.92,-3.91 -14.95,-8.06 -2.21,-2.09 -3.46,-4.96 -5.6,-7.1 -1.21,-4.09 -2.76,-8.13 -3.11,-12.42 -0.61,-3.67 0.37,-7.3 0.6,-10.95 1.74,-5.25 4.01,-10.47 7.97,-14.46 4.86,-5.34 11.87,-7.98 18.88,-8.97 4.58,0.46 9.26,0.78 13.61,2.39 4.88,1.67 9.04,4.81 13.09,7.91 4.59,-5.56 9.36,-10.98 13.78,-16.68 -6.53,-5.44 -14.06,-9.84 -22.4,-11.75 -8.63,-1.9 -17.64,-2.41 -26.37,-0.91 -12.25,2.07 -23.62,8.74 -31.36,18.46 M 155.96,58.53 c 2.06,5.43 4.34,10.78 6.47,16.19 2.01,5 4.05,9.98 6.02,14.99 2.76,6.49 5.09,13.16 8.1,19.54 5.85,15.67 12.49,31.09 18.61,46.68 0.35,2.82 3.48,1.55 5.4,1.86 7.18,-18.51 14.67,-36.92 21.56,-55.52 2.94,-6.99 5.81,-14.05 8.32,-21.2 2.44,-5.9 4.93,-11.81 7,-17.85 0.79,-1.56 1.51,-3.15 2.24,-4.73 -2.44,-0.08 -4.88,-0.11 -7.32,-0.11 -2.25,5.58 -4.23,11.28 -6.72,16.76 -2.1,-5.58 -4.13,-11.18 -6.26,-16.74 -8.2,-0.02 -16.4,-0.1 -24.59,0.04 5.86,14.67 11.77,29.33 17.77,43.94 0.5,1.15 0.87,2.33 1.12,3.55 -1.79,5.93 -4.77,11.44 -6.37,17.44 -0.12,0.16 -0.37,0.47 -0.49,0.63 -0.31,1 -0.61,2.02 -0.91,3.03 -2.82,-6.7 -5.15,-13.59 -7.75,-20.37 l -0.19,-0.06 c -2.68,-8.01 -5.73,-15.9 -8.77,-23.78 -1.16,-3.85 -2.91,-7.5 -4.02,-11.37 l -0.25,0.15 c -1.41,-4.42 -3.06,-8.76 -4.76,-13.07 -8.07,-0.03 -16.14,-0.03 -24.21,0 m 92.13,0.07 c -4.68,13.1 -10.21,25.88 -14.88,38.97 l -0.28,-0.19 c -7.47,20.24 -15.75,40.17 -23.35,60.36 2.26,0.01 4.51,0.02 6.77,0.02 3.27,-7.6 5.73,-15.53 9.35,-22.96 3.03,7.63 6.26,15.18 9.13,22.87 6.53,0.18 13.06,0.09 19.6,0.07 7.31,-18.23 14.84,-36.4 21.96,-54.71 2.76,-6.61 5.62,-13.2 8.01,-19.95 3.52,-8.11 6.74,-16.34 10.02,-24.54 -7.91,-0.07 -15.82,-0.02 -23.72,-0.03 -1.8,5.14 -4,10.14 -5.61,15.33 -3.07,7.92 -6.24,15.84 -8.79,23.94 L 256,97.42 c -3.37,10.05 -7.21,19.94 -11.03,29.82 -2.52,-6.51 -4.99,-13.05 -7.39,-19.61 -0.93,-2.13 0.32,-4.3 0.68,-6.4 5.98,-14.11 11.33,-28.48 16.93,-42.74 -2.37,0.01 -4.74,0.03 -7.1,0.11 m 53.71,-0.03 c 0.05,32.97 0.07,65.95 -0.01,98.92 7.33,0.46 14.67,0.15 22,0.21 0.14,-25.56 -0.02,-51.12 0.13,-76.68 0.18,-7.54 0.33,-15.08 -0.02,-22.62 -7.37,0.04 -14.74,-0.22 -22.1,0.17 m 145.09,20.19 c -6.64,8.92 -9.35,20.15 -9.11,31.15 0.1,18.75 11.93,36.69 29.08,44.23 10.25,5 21.98,5.34 33.11,4.13 13.9,-2.26 27.23,-10.27 34.63,-22.38 3.87,-4.79 6.18,-10.78 7.11,-16.83 2.22,-8.01 0.55,-16.47 0.48,-24.6 -0.24,0 -0.73,0.01 -0.97,0.01 l 0.22,-0.31 c -0.63,-1.63 -1.2,-3.26 -1.77,-4.89 -4.53,-11.72 -13.64,-21.56 -24.97,-26.96 -10.37,-5.2 -22.29,-5.96 -33.64,-4.61 -13.58,2.13 -26.27,9.76 -34.17,21.06 M 70.38,157.75 c 25.2,0.08 50.39,0.07 75.59,0 0.24,-6.62 0.29,-13.27 -0.06,-19.89 -17.86,-0.17 -35.72,0.01 -53.59,-0.09 -0.12,-6.73 0.29,-13.48 -0.25,-20.2 14.79,-0.1 29.59,0.04 44.39,-0.06 0,-6.6 0.05,-13.2 -0.03,-19.8 -14.74,-0.07 -29.49,0.12 -44.23,-0.08 0.08,-6.55 0.01,-13.1 0.06,-19.65 17.65,-0.18 35.31,0.06 52.97,-0.13 0,-6.44 0,-12.88 0.01,-19.32 -24.93,-0.12 -49.85,-0.03 -74.78,-0.05 -0.34,33.09 -0.1,66.18 -0.08,99.27 z"
       id="path2-2" />
    <path
       fill="#000000"
       opacity="1"
       d="m 478.4,79.31 c 6.27,-2.06 13.09,-2.84 19.54,-1.13 7.22,1.75 13.42,6.65 17.41,12.85 2.86,4.74 4.29,10.16 4.89,15.63 -0.19,7.69 -1.97,15.6 -7.01,21.62 -9.17,11.78 -27.75,13.94 -39.74,5.31 -6.38,-4.29 -10.43,-11.33 -12.22,-18.69 -1.62,-8.94 -0.12,-18.68 5.42,-26.04 2.93,-4.22 7.28,-7.11 11.71,-9.55 z"
       id="path4-1" />
  </g>
  <g
     id="#f6a305ff"
     transform="matrix(0.16149669,0,0,0.14820484,197.74218,572.65185)">
    <path
       fill="#f6a305"
       opacity="1"
       d="m 344.71,75.92 c 7.74,-9.72 19.11,-16.39 31.36,-18.46 8.73,-1.5 17.74,-0.99 26.37,0.91 8.34,1.91 15.87,6.31 22.4,11.75 -4.42,5.7 -9.19,11.12 -13.78,16.68 -4.05,-3.1 -8.21,-6.24 -13.09,-7.91 -4.35,-1.61 -9.03,-1.93 -13.61,-2.39 -2.84,-0.23 -5.77,-0.58 -8.56,0.21 -4.2,1.12 -8.12,3.48 -12.57,3.44 -5.93,-0.08 -11.89,0.82 -17.79,-0.13 -0.24,-1.37 -0.49,-2.73 -0.73,-4.1 z"
       id="path7" />
  </g>
  <g
     id="#f7aa05ff"
     transform="matrix(0.16149669,0,0,0.14820484,197.74218,572.65185)">
    <path
       fill="#f7aa05"
       opacity="1"
       d="m 155.96,58.53 c 8.07,-0.03 16.14,-0.03 24.21,0 1.7,4.31 3.35,8.65 4.76,13.07 -1.81,1.08 -3.69,2.28 -5.88,2.26 -5.12,0.32 -10.28,0.56 -15.37,-0.12 -0.31,0.24 -0.94,0.74 -1.25,0.98 -2.13,-5.41 -4.41,-10.76 -6.47,-16.19 z"
       id="path10-4" />
  </g>
  <g
     id="#bb8323ff"
     transform="matrix(0.16149669,0,0,0.14820484,197.74218,572.65185)">
    <path
       fill="#bb8323"
       opacity="1"
       d="m 194.79,58.44 c 8.19,-0.14 16.39,-0.06 24.59,-0.04 2.13,5.56 4.16,11.16 6.26,16.74 2.49,-5.48 4.47,-11.18 6.72,-16.76 2.44,0 4.88,0.03 7.32,0.11 -0.73,1.58 -1.45,3.17 -2.24,4.73 0.05,-0.95 0.16,-2.83 0.22,-3.78 -1.06,-0.08 -3.18,-0.25 -4.24,-0.33 -2.54,5.22 -4.3,10.76 -6.3,16.2 -0.54,0.17 -1.61,0.51 -2.15,0.69 -2.51,-5.42 -4.07,-11.21 -6.52,-16.66 -7.2,-0.08 -14.4,-0.11 -21.6,0.01 1.67,7.11 5.25,13.53 7.79,20.34 2.58,6.32 5.02,12.71 7.87,18.92 1.45,3.24 3.02,6.95 1.5,10.48 -1.92,4.88 -3.25,10.19 -6.7,14.28 1.6,-6 4.58,-11.51 6.37,-17.44 -0.25,-1.22 -0.62,-2.4 -1.12,-3.55 -6,-14.61 -11.91,-29.27 -17.77,-43.94 z"
       id="path13" />
  </g>
  <g
     id="#f1a30cff"
     transform="matrix(0.16149669,0,0,0.14820484,197.74218,572.65185)">
    <path
       fill="#f1a30c"
       opacity="1"
       d="m 248.09,58.6 c 2.36,-0.08 4.73,-0.1 7.1,-0.11 -5.6,14.26 -10.95,28.63 -16.93,42.74 0.23,-3.22 0.23,-6.44 0.23,-9.66 -1.46,2.23 -2.81,4.54 -4,6.92 -0.32,-0.23 -0.96,-0.69 -1.28,-0.92 4.67,-13.09 10.2,-25.87 14.88,-38.97 z"
       id="path16-3" />
  </g>
  <g
     id="#c77c1aff"
     transform="matrix(0.16149669,0,0,0.14820484,197.74218,572.65185)">
    <path
       fill="#c77c1a"
       opacity="1"
       d="m 301.8,58.57 c 7.36,-0.39 14.73,-0.13 22.1,-0.17 0.35,7.54 0.2,15.08 0.02,22.62 -0.15,25.56 0.01,51.12 -0.13,76.68 -7.33,-0.06 -14.67,0.25 -22,-0.21 0.08,-32.97 0.06,-65.95 0.01,-98.92 m 2.15,1.25 c -1.8,3.77 -0.26,8.59 -0.69,12.78 0.04,10.43 0.02,20.85 0.34,31.27 -0.24,16.05 -0.05,32.11 -0.14,48.16 0.16,1.41 -0.35,3.61 1.61,3.94 5.25,0.61 10.63,0.5 15.9,0.12 0.33,-0.27 0.98,-0.8 1.31,-1.07 0.59,-16.77 0.04,-33.59 0.18,-50.39 0.2,-10.66 0.3,-21.34 0.27,-32.01 -0.03,-3.97 0.33,-7.96 0.01,-11.93 -0.39,-0.32 -1.19,-0.96 -1.58,-1.28 -5.7,-0.04 -11.66,-0.78 -17.21,0.41 z"
       id="path19" />
  </g>
  <g
     id="#f6a105ff"
     transform="matrix(0.16149669,0,0,0.14820484,197.74218,572.65185)">
    <path
       fill="#f6a105"
       opacity="1"
       d="m 446.89,78.76 c 7.9,-11.3 20.59,-18.93 34.17,-21.06 11.35,-1.35 23.27,-0.59 33.64,4.61 11.33,5.4 20.44,15.24 24.97,26.96 -7.8,-0.72 -15.64,-0.46 -23.45,-1.06 -0.22,0.71 -0.65,2.11 -0.87,2.82 -3.99,-6.2 -10.19,-11.1 -17.41,-12.85 -6.45,-1.71 -13.27,-0.93 -19.54,1.13 -4.88,-0.14 -8.29,3.29 -12.09,5.72 -6.53,1 -13.46,0.94 -19.81,-1.11 0.1,-1.73 0.22,-3.45 0.39,-5.16 z"
       id="path22-5" />
  </g>
  <g
     id="#b76a17ff"
     transform="matrix(0.16149669,0,0,0.14820484,197.74218,572.65185)">
    <path
       fill="#b76a17"
       opacity="1"
       d="m 70.38,157.75 c -0.02,-33.09 -0.26,-66.18 0.08,-99.27 0.85,14.1 0.01,28.24 0.99,42.33 -0.12,16.72 0.06,33.44 -0.11,50.16 0.24,1.83 -0.56,4.42 1.55,5.4 4.01,0.57 8.07,0.2 12.1,0.25 18.02,0.01 36.05,-0.05 54.07,0.04 1.82,-0.19 4.19,0.33 5.29,-1.55 0.76,-5.19 0.21,-10.45 0.19,-15.67 -17.62,-0.41 -35.24,0.07 -52.86,-0.24 -0.25,-7.18 -1.35,-14.6 0.39,-21.63 0.54,6.72 0.13,13.47 0.25,20.2 17.87,0.1 35.73,-0.08 53.59,0.09 0.35,6.62 0.3,13.27 0.06,19.89 -25.2,0.07 -50.39,0.08 -75.59,0 z"
       id="path25" />
  </g>
  <g
     id="#dca030ff"
     transform="matrix(0.16149669,0,0,0.14820484,197.74218,572.65185)">
    <path
       fill="#dca030"
       opacity="1"
       d="m 70.46,58.48 c 24.93,0.02 49.85,-0.07 74.78,0.05 -0.01,6.44 -0.01,12.88 -0.01,19.32 -17.66,0.19 -35.32,-0.05 -52.97,0.13 -0.05,6.55 0.02,13.1 -0.06,19.65 l -1.13,-0.1 c -0.61,-4.55 -0.67,-9.16 -0.54,-13.75 0.23,-2.2 0.46,-4.41 0.68,-6.61 7.24,-0.92 14.54,-0.43 21.81,-0.52 10.15,-0.06 20.31,0.11 30.46,-0.05 0.14,-5.43 0.16,-10.87 0.03,-16.31 -23.74,-0.21 -47.5,-0.1 -71.25,-0.01 -0.16,9.05 0.05,18.09 0.04,27.14 0.27,4.48 0.04,8.98 -0.85,13.39 C 70.47,86.72 71.31,72.58 70.46,58.48 Z"
       id="path28-0" />
  </g>
  <g
     id="#f6a506ff"
     transform="matrix(0.16149669,0,0,0.14820484,197.74218,572.65185)">
    <path
       fill="#f6a506"
       opacity="1"
       d="m 265.09,73.84 c 1.61,-5.19 3.81,-10.19 5.61,-15.33 7.9,0.01 15.81,-0.04 23.72,0.03 -3.28,8.2 -6.5,16.43 -10.02,24.54 -0.14,-0.6 -0.43,-1.8 -0.57,-2.4 -6.11,-0.27 -12.27,0.42 -18.33,-0.6 -0.17,-2.08 -0.34,-4.15 -0.41,-6.24 z"
       id="path31" />
  </g>
  <g
     id="#f7a505ff"
     transform="matrix(0.16149669,0,0,0.14820484,197.74218,572.65185)">
    <path
       fill="#f7a505"
       opacity="1"
       d="m 72.26,60.28 c 23.75,-0.09 47.51,-0.2 71.25,0.01 0.13,5.44 0.11,10.88 -0.03,16.31 -10.15,0.16 -20.31,-0.01 -30.46,0.05 -7.27,0.09 -14.57,-0.4 -21.81,0.52 -0.22,2.2 -0.45,4.41 -0.68,6.61 -0.37,1.54 -0.79,3.06 -1.21,4.58 -5.63,0.33 -12.09,2.95 -17.02,-0.94 0.01,-9.05 -0.2,-18.09 -0.04,-27.14 z"
       id="path34-7" />
  </g>
  <g
     id="#f7a605ff"
     transform="matrix(0.16149669,0,0,0.14820484,197.74218,572.65185)">
    <path
       fill="#f7a605"
       opacity="1"
       d="m 196.85,59.35 c 7.2,-0.12 14.4,-0.09 21.6,-0.01 2.45,5.45 4.01,11.24 6.52,16.66 0.54,-0.18 1.61,-0.52 2.15,-0.69 2,-5.44 3.76,-10.98 6.3,-16.2 1.06,0.08 3.18,0.25 4.24,0.33 -0.06,0.95 -0.17,2.83 -0.22,3.78 -2.07,6.04 -4.56,11.95 -7,17.85 -0.06,-1.09 -0.12,-2.19 -0.2,-3.28 -5.08,0.52 -10.18,0.71 -15.25,1.34 -2.06,0.42 -3.96,-0.52 -5.92,-0.92 -1.55,0.25 -2.98,0.93 -4.43,1.48 -2.54,-6.81 -6.12,-13.23 -7.79,-20.34 z"
       id="path37" />
  </g>
  <g
     id="#f8a904ff"
     transform="matrix(0.16149669,0,0,0.14820484,197.74218,572.65185)">
    <path
       fill="#f8a904"
       opacity="1"
       d="m 303.95,59.82 c 5.55,-1.19 11.51,-0.45 17.21,-0.41 0.39,0.32 1.19,0.96 1.58,1.28 0.32,3.97 -0.04,7.96 -0.01,11.93 -6.53,-1.45 -13.03,2.08 -19.47,-0.02 0.43,-4.19 -1.11,-9.01 0.69,-12.78 z"
       id="path40-5" />
  </g>
  <g
     id="#f49907ff"
     transform="matrix(0.16149669,0,0,0.14820484,197.74218,572.65185)">
    <path
       fill="#f49907"
       opacity="1"
       d="m 184.93,71.6 0.25,-0.15 c 1.11,3.87 2.86,7.52 4.02,11.37 0.01,2.59 -0.16,5.18 -0.31,7.77 -6.45,0.57 -13.84,2.42 -19.43,-1.9 -0.25,0.26 -0.75,0.77 -1.01,1.02 -1.97,-5.01 -4.01,-9.99 -6.02,-14.99 0.31,-0.24 0.94,-0.74 1.25,-0.98 5.09,0.68 10.25,0.44 15.37,0.12 2.19,0.02 4.07,-1.18 5.88,-2.26 z"
       id="path43" />
  </g>
  <g
     id="#f39307ff"
     transform="matrix(0.16149669,0,0,0.14820484,197.74218,572.65185)">
    <path
       fill="#f39307"
       opacity="1"
       d="m 303.26,72.6 c 6.44,2.1 12.94,-1.43 19.47,0.02 0.03,10.67 -0.07,21.35 -0.27,32.01 -6.22,-1.19 -12.56,-1.07 -18.86,-0.76 -0.32,-10.42 -0.3,-20.84 -0.34,-31.27 z"
       id="path46-3" />
  </g>
  <g
     id="#f29107ff"
     transform="matrix(0.16149669,0,0,0.14820484,197.74218,572.65185)">
    <path
       fill="#f29107"
       opacity="1"
       d="m 256.3,97.78 c 2.55,-8.1 5.72,-16.02 8.79,-23.94 0.07,2.09 0.24,4.16 0.41,6.24 6.06,1.02 12.22,0.33 18.33,0.6 0.14,0.6 0.43,1.8 0.57,2.4 -2.39,6.75 -5.25,13.34 -8.01,19.95 -0.42,-1.13 -0.86,-2.25 -1.31,-3.37 -3.89,0 -7.76,0.4 -11.63,0.63 -2.57,0.11 -5.68,-0.04 -7.15,-2.51 z"
       id="path49" />
  </g>
  <g
     id="#f29207ff"
     transform="matrix(0.16149669,0,0,0.14820484,197.74218,572.65185)">
    <path
       fill="#f29207"
       opacity="1"
       d="m 336.39,91.12 c 2.13,-5.4 4.71,-10.63 8.32,-15.2 0.24,1.37 0.49,2.73 0.73,4.1 5.9,0.95 11.86,0.05 17.79,0.13 4.45,0.04 8.37,-2.32 12.57,-3.44 2.79,-0.79 5.72,-0.44 8.56,-0.21 -7.01,0.99 -14.02,3.63 -18.88,8.97 -3.96,3.99 -6.23,9.21 -7.97,14.46 -0.26,-1.27 -0.53,-2.54 -0.81,-3.81 -5.77,-1.01 -11.63,0.4 -17.38,-0.48 -2.26,-0.2 -2.08,-2.97 -2.93,-4.52 z"
       id="path52-5" />
  </g>
  <g
     id="#f39407ff"
     transform="matrix(0.16149669,0,0,0.14820484,197.74218,572.65185)">
    <path
       fill="#f39407"
       opacity="1"
       d="m 214.99,79.13 c 5.07,-0.63 10.17,-0.82 15.25,-1.34 0.08,1.09 0.14,2.19 0.2,3.28 -2.51,7.15 -5.38,14.21 -8.32,21.2 -0.09,-1.16 -0.19,-2.33 -0.3,-3.49 -3.1,0.49 -6.24,0.35 -9.31,-0.17 -2.85,-6.21 -5.29,-12.6 -7.87,-18.92 1.45,-0.55 2.88,-1.23 4.43,-1.48 1.96,0.4 3.86,1.34 5.92,0.92 z"
       id="path55" />
  </g>
  <g
     id="#f18a08ff"
     transform="matrix(0.16149669,0,0,0.14820484,197.74218,572.65185)">
    <path
       fill="#f18a08"
       opacity="1"
       d="m 437.78,109.91 c -0.24,-11 2.47,-22.23 9.11,-31.15 -0.17,1.71 -0.29,3.43 -0.39,5.16 6.35,2.05 13.28,2.11 19.81,1.11 3.8,-2.43 7.21,-5.86 12.09,-5.72 -4.43,2.44 -8.78,5.33 -11.71,9.55 -5.54,7.36 -7.04,17.1 -5.42,26.04 -0.28,0.34 -0.85,1.02 -1.14,1.36 -0.59,-3.07 -1.07,-6.16 -1.54,-9.24 -6.95,0.5 -14.6,-1.1 -20.81,2.89 z"
       id="path58-7" />
  </g>
  <g
     id="#f18a09ff"
     transform="matrix(0.16149669,0,0,0.14820484,197.74218,572.65185)">
    <path
       fill="#f18a09"
       opacity="1"
       d="m 189.2,82.82 c 3.04,7.88 6.09,15.77 8.77,23.78 -0.43,-0.16 -1.27,-0.46 -1.69,-0.61 -1.56,-1.49 -2.6,-3.62 -4.53,-4.63 -4.77,-0.48 -9.58,0.12 -14.37,-0.18 -0.31,2.68 -0.64,5.37 -0.83,8.07 -3.01,-6.38 -5.34,-13.05 -8.1,-19.54 0.26,-0.25 0.76,-0.76 1.01,-1.02 5.59,4.32 12.98,2.47 19.43,1.9 0.15,-2.59 0.32,-5.18 0.31,-7.77 z"
       id="path61" />
  </g>
  <g
     id="#ef7d05ff"
     transform="matrix(0.16149669,0,0,0.14820484,197.74218,572.65185)">
    <path
       fill="#ef7d05"
       opacity="1"
       d="m 89.32,88.36 c 0.42,-1.52 0.84,-3.04 1.21,-4.58 -0.13,4.59 -0.07,9.2 0.54,13.75 l 1.13,0.1 c 14.74,0.2 29.49,0.01 44.23,0.08 0.08,6.6 0.03,13.2 0.03,19.8 -14.8,0.1 -29.6,-0.04 -44.39,0.06 -1.74,7.03 -0.64,14.45 -0.39,21.63 17.62,0.31 35.24,-0.17 52.86,0.24 0.02,5.22 0.57,10.48 -0.19,15.67 -1.1,1.88 -3.47,1.36 -5.29,1.55 -18.02,-0.09 -36.05,-0.03 -54.07,-0.04 -4.03,-0.05 -8.09,0.32 -12.1,-0.25 -2.11,-0.98 -1.31,-3.57 -1.55,-5.4 0.17,-16.72 -0.01,-33.44 0.11,-50.16 0.89,-4.41 1.12,-8.91 0.85,-13.39 4.93,3.89 11.39,1.27 17.02,0.94 z"
       id="path64-2" />
    <path
       fill="#ef7d05"
       opacity="1"
       d="m 212.51,98.61 c 3.07,0.52 6.21,0.66 9.31,0.17 0.11,1.16 0.21,2.33 0.3,3.49 -6.89,18.6 -14.38,37.01 -21.56,55.52 -1.92,-0.31 -5.05,0.96 -5.4,-1.86 -6.12,-15.59 -12.76,-31.01 -18.61,-46.68 0.19,-2.7 0.52,-5.39 0.83,-8.07 4.79,0.3 9.6,-0.3 14.37,0.18 1.93,1.01 2.97,3.14 4.53,4.63 0.42,0.15 1.26,0.45 1.69,0.61 l 0.19,0.06 c 2.6,6.78 4.93,13.67 7.75,20.37 0.3,-1.01 0.6,-2.03 0.91,-3.03 0.12,-0.16 0.37,-0.47 0.49,-0.63 3.45,-4.09 4.78,-9.4 6.7,-14.28 1.52,-3.53 -0.05,-7.24 -1.5,-10.48 z"
       id="path66-5" />
  </g>
  <g
     id="#f18b08ff"
     transform="matrix(0.16149669,0,0,0.14820484,197.74218,572.65185)">
    <path
       fill="#f18b08"
       opacity="1"
       d="m 516.22,88.21 c 7.81,0.6 15.65,0.34 23.45,1.06 0.57,1.63 1.14,3.26 1.77,4.89 l -0.22,0.31 c -0.1,0.14 -0.29,0.43 -0.39,0.57 0.11,1.97 0.31,3.94 0.48,5.92 -6.48,-0.28 -12.97,-0.93 -19.44,-0.21 -0.57,1.96 -1.16,3.92 -1.63,5.91 -0.6,-5.47 -2.03,-10.89 -4.89,-15.63 0.22,-0.71 0.65,-2.11 0.87,-2.82 z"
       id="path69" />
  </g>
  <g
     id="#f08209ff"
     transform="matrix(0.16149669,0,0,0.14820484,197.74218,572.65185)">
    <path
       fill="#f08209"
       opacity="1"
       d="m 341.22,134.92 c -8.22,-12.85 -9.05,-29.41 -4.83,-43.8 0.85,1.55 0.67,4.32 2.93,4.52 5.75,0.88 11.61,-0.53 17.38,0.48 0.28,1.27 0.55,2.54 0.81,3.81 -0.23,3.65 -1.21,7.28 -0.6,10.95 0.35,4.29 1.9,8.33 3.11,12.42 -4.11,-2.6 -5.46,-7.35 -6.98,-11.65 -3.47,4.42 -9.06,0.94 -13.66,1.67 -2.84,2.59 -2.38,7.06 -1.05,10.32 1.48,3.62 2.54,7.38 2.89,11.28 z"
       id="path72-0" />
  </g>
  <g
     id="#ef7d02ff"
     transform="matrix(0.16149669,0,0,0.14820484,197.74218,572.65185)">
    <path
       fill="#ef7d02"
       opacity="1"
       d="m 234.49,98.49 c 1.19,-2.38 2.54,-4.69 4,-6.92 0,3.22 0,6.44 -0.23,9.66 -0.36,2.1 -1.61,4.27 -0.68,6.4 2.4,6.56 4.87,13.1 7.39,19.61 3.82,-9.88 7.66,-19.77 11.03,-29.82 l 0.3,0.36 c 1.47,2.47 4.58,2.62 7.15,2.51 3.87,-0.23 7.74,-0.63 11.63,-0.63 0.45,1.12 0.89,2.24 1.31,3.37 -7.12,18.31 -14.65,36.48 -21.96,54.71 -6.54,0.02 -13.07,0.11 -19.6,-0.07 -2.87,-7.69 -6.1,-15.24 -9.13,-22.87 -3.62,7.43 -6.08,15.36 -9.35,22.96 -2.26,0 -4.51,-0.01 -6.77,-0.02 7.6,-20.19 15.88,-40.12 23.35,-60.36 l 0.28,0.19 c 0.32,0.23 0.96,0.69 1.28,0.92 z"
       id="path75" />
  </g>
  <g
     id="#ef7d01ff"
     transform="matrix(0.16149669,0,0,0.14820484,197.74218,572.65185)">
    <path
       fill="#ef7d01"
       opacity="1"
       d="m 541.22,94.47 c 0.24,0 0.73,-0.01 0.97,-0.01 0.07,8.13 1.74,16.59 -0.48,24.6 -3.29,5.17 -5.68,10.86 -7.11,16.83 -7.4,12.11 -20.73,20.12 -34.63,22.38 -11.13,1.21 -22.86,0.87 -33.11,-4.13 -17.15,-7.54 -28.98,-25.48 -29.08,-44.23 6.21,-3.99 13.86,-2.39 20.81,-2.89 0.47,3.08 0.95,6.17 1.54,9.24 0.29,-0.34 0.86,-1.02 1.14,-1.36 1.79,7.36 5.84,14.4 12.22,18.69 11.99,8.63 30.57,6.47 39.74,-5.31 5.04,-6.02 6.82,-13.93 7.01,-21.62 0.47,-1.99 1.06,-3.95 1.63,-5.91 6.47,-0.72 12.96,-0.07 19.44,0.21 -0.17,-1.98 -0.37,-3.95 -0.48,-5.92 0.1,-0.14 0.29,-0.43 0.39,-0.57 z"
       id="path78-6" />
  </g>
  <g
     id="#ef7e0aff"
     transform="matrix(0.16149669,0,0,0.14820484,197.74218,572.65185)">
    <path
       fill="#ef7e0a"
       opacity="1"
       d="m 385.27,100.17 c 14.37,-0.01 28.74,-0.04 43.11,0.02 -0.07,13.62 0.09,27.24 -0.07,40.86 -0.19,0.71 -0.58,2.12 -0.78,2.83 -2.27,-8.37 0.62,-17.26 -2.03,-25.53 -2.01,-1.56 -5.11,-0.02 -7.5,-0.35 -2.94,0.53 -5.27,-1.49 -7.56,-2.96 -2.27,6 -0.49,12.48 -1.81,18.59 -2.25,3.49 -6.62,5.06 -10.58,5.58 -5.81,0.58 -11.83,0.97 -17.48,-0.75 9,0.93 18.5,-0.09 26.21,-5.2 0.02,-4.68 0.01,-9.37 0.01,-14.05 -7.13,0.02 -14.27,0 -21.4,0.02 -0.2,-6.35 -0.08,-12.7 -0.12,-19.06 z"
       id="path81" />
  </g>
  <g
     id="#ef7d00ff"
     transform="matrix(0.16149669,0,0,0.14820484,197.74218,572.65185)">
    <path
       fill="#ef7d00"
       opacity="1"
       d="m 303.6,103.87 c 6.3,-0.31 12.64,-0.43 18.86,0.76 -0.14,16.8 0.41,33.62 -0.18,50.39 -0.33,0.27 -0.98,0.8 -1.31,1.07 -5.27,0.38 -10.65,0.49 -15.9,-0.12 -1.96,-0.33 -1.45,-2.53 -1.61,-3.94 0.09,-16.05 -0.1,-32.11 0.14,-48.16 z"
       id="path84-0" />
    <path
       fill="#ef7d00"
       opacity="1"
       d="m 353.04,111.65 c 1.52,4.3 2.87,9.05 6.98,11.65 2.14,2.14 3.39,5.01 5.6,7.1 4.03,4.15 9.44,6.55 14.95,8.06 5.65,1.72 11.67,1.33 17.48,0.75 3.96,-0.52 8.33,-2.09 10.58,-5.58 1.32,-6.11 -0.46,-12.59 1.81,-18.59 2.29,1.47 4.62,3.49 7.56,2.96 2.39,0.33 5.49,-1.21 7.5,0.35 2.65,8.27 -0.24,17.16 2.03,25.53 -11.69,9.37 -26.47,15.2 -41.57,14.7 -17.53,0.58 -36.14,-7.97 -44.74,-23.66 -0.35,-3.9 -1.41,-7.66 -2.89,-11.28 -1.33,-3.26 -1.79,-7.73 1.05,-10.32 4.6,-0.73 10.19,2.75 13.66,-1.67 z"
       id="path86-9" />
  </g>
  <g
     id="#c06d1bff"
     transform="matrix(0.16149669,0,0,0.14820484,197.74218,572.65185)">
    <path
       fill="#c06d1b"
       opacity="1"
       d="m 534.6,135.89 c 1.43,-5.97 3.82,-11.66 7.11,-16.83 -0.93,6.05 -3.24,12.04 -7.11,16.83 z"
       id="path89" />
  </g>
</svg>
